G04 Layer_Color=8388736*
%FSLAX25Y25*%
%MOIN*%
G70*
G01*
G75*
%ADD39C,0.06800*%
%ADD56C,0.06706*%
G04:AMPARAMS|DCode=57|XSize=33.59mil|YSize=41.47mil|CornerRadius=7.2mil|HoleSize=0mil|Usage=FLASHONLY|Rotation=270.000|XOffset=0mil|YOffset=0mil|HoleType=Round|Shape=RoundedRectangle|*
%AMROUNDEDRECTD57*
21,1,0.03359,0.02707,0,0,270.0*
21,1,0.01919,0.04147,0,0,270.0*
1,1,0.01440,-0.01353,-0.00960*
1,1,0.01440,-0.01353,0.00960*
1,1,0.01440,0.01353,0.00960*
1,1,0.01440,0.01353,-0.00960*
%
%ADD57ROUNDEDRECTD57*%
G04:AMPARAMS|DCode=58|XSize=33.59mil|YSize=41.47mil|CornerRadius=7.2mil|HoleSize=0mil|Usage=FLASHONLY|Rotation=180.000|XOffset=0mil|YOffset=0mil|HoleType=Round|Shape=RoundedRectangle|*
%AMROUNDEDRECTD58*
21,1,0.03359,0.02707,0,0,180.0*
21,1,0.01919,0.04147,0,0,180.0*
1,1,0.01440,-0.00960,0.01353*
1,1,0.01440,0.00960,0.01353*
1,1,0.01440,0.00960,-0.01353*
1,1,0.01440,-0.00960,-0.01353*
%
%ADD58ROUNDEDRECTD58*%
G04:AMPARAMS|DCode=59|XSize=31.62mil|YSize=51.31mil|CornerRadius=9.9mil|HoleSize=0mil|Usage=FLASHONLY|Rotation=90.000|XOffset=0mil|YOffset=0mil|HoleType=Round|Shape=RoundedRectangle|*
%AMROUNDEDRECTD59*
21,1,0.03162,0.03150,0,0,90.0*
21,1,0.01181,0.05131,0,0,90.0*
1,1,0.01981,0.01575,0.00591*
1,1,0.01981,0.01575,-0.00591*
1,1,0.01981,-0.01575,-0.00591*
1,1,0.01981,-0.01575,0.00591*
%
%ADD59ROUNDEDRECTD59*%
G04:AMPARAMS|DCode=60|XSize=39.5mil|YSize=46.19mil|CornerRadius=11.87mil|HoleSize=0mil|Usage=FLASHONLY|Rotation=180.000|XOffset=0mil|YOffset=0mil|HoleType=Round|Shape=RoundedRectangle|*
%AMROUNDEDRECTD60*
21,1,0.03950,0.02244,0,0,180.0*
21,1,0.01575,0.04619,0,0,180.0*
1,1,0.02375,-0.00787,0.01122*
1,1,0.02375,0.00787,0.01122*
1,1,0.02375,0.00787,-0.01122*
1,1,0.02375,-0.00787,-0.01122*
%
%ADD60ROUNDEDRECTD60*%
G04:AMPARAMS|DCode=61|XSize=27.68mil|YSize=31.62mil|CornerRadius=6.46mil|HoleSize=0mil|Usage=FLASHONLY|Rotation=90.000|XOffset=0mil|YOffset=0mil|HoleType=Round|Shape=RoundedRectangle|*
%AMROUNDEDRECTD61*
21,1,0.02768,0.01870,0,0,90.0*
21,1,0.01476,0.03162,0,0,90.0*
1,1,0.01292,0.00935,0.00738*
1,1,0.01292,0.00935,-0.00738*
1,1,0.01292,-0.00935,-0.00738*
1,1,0.01292,-0.00935,0.00738*
%
%ADD61ROUNDEDRECTD61*%
G04:AMPARAMS|DCode=62|XSize=135.95mil|YSize=92.65mil|CornerRadius=14.58mil|HoleSize=0mil|Usage=FLASHONLY|Rotation=90.000|XOffset=0mil|YOffset=0mil|HoleType=Round|Shape=RoundedRectangle|*
%AMROUNDEDRECTD62*
21,1,0.13595,0.06348,0,0,90.0*
21,1,0.10679,0.09265,0,0,90.0*
1,1,0.02916,0.03174,0.05340*
1,1,0.02916,0.03174,-0.05340*
1,1,0.02916,-0.03174,-0.05340*
1,1,0.02916,-0.03174,0.05340*
%
%ADD62ROUNDEDRECTD62*%
G04:AMPARAMS|DCode=63|XSize=45.4mil|YSize=92.65mil|CornerRadius=13.35mil|HoleSize=0mil|Usage=FLASHONLY|Rotation=90.000|XOffset=0mil|YOffset=0mil|HoleType=Round|Shape=RoundedRectangle|*
%AMROUNDEDRECTD63*
21,1,0.04540,0.06594,0,0,90.0*
21,1,0.01870,0.09265,0,0,90.0*
1,1,0.02670,0.03297,0.00935*
1,1,0.02670,0.03297,-0.00935*
1,1,0.02670,-0.03297,-0.00935*
1,1,0.02670,-0.03297,0.00935*
%
%ADD63ROUNDEDRECTD63*%
G04:AMPARAMS|DCode=64|XSize=47.37mil|YSize=59.18mil|CornerRadius=8.92mil|HoleSize=0mil|Usage=FLASHONLY|Rotation=180.000|XOffset=0mil|YOffset=0mil|HoleType=Round|Shape=RoundedRectangle|*
%AMROUNDEDRECTD64*
21,1,0.04737,0.04134,0,0,180.0*
21,1,0.02953,0.05918,0,0,180.0*
1,1,0.01784,-0.01476,0.02067*
1,1,0.01784,0.01476,0.02067*
1,1,0.01784,0.01476,-0.02067*
1,1,0.01784,-0.01476,-0.02067*
%
%ADD64ROUNDEDRECTD64*%
G04:AMPARAMS|DCode=65|XSize=47.37mil|YSize=59.18mil|CornerRadius=8.92mil|HoleSize=0mil|Usage=FLASHONLY|Rotation=270.000|XOffset=0mil|YOffset=0mil|HoleType=Round|Shape=RoundedRectangle|*
%AMROUNDEDRECTD65*
21,1,0.04737,0.04134,0,0,270.0*
21,1,0.02953,0.05918,0,0,270.0*
1,1,0.01784,-0.02067,-0.01476*
1,1,0.01784,-0.02067,0.01476*
1,1,0.01784,0.02067,0.01476*
1,1,0.01784,0.02067,-0.01476*
%
%ADD65ROUNDEDRECTD65*%
G04:AMPARAMS|DCode=66|XSize=47.37mil|YSize=70.99mil|CornerRadius=8.92mil|HoleSize=0mil|Usage=FLASHONLY|Rotation=270.000|XOffset=0mil|YOffset=0mil|HoleType=Round|Shape=RoundedRectangle|*
%AMROUNDEDRECTD66*
21,1,0.04737,0.05315,0,0,270.0*
21,1,0.02953,0.07099,0,0,270.0*
1,1,0.01784,-0.02657,-0.01476*
1,1,0.01784,-0.02657,0.01476*
1,1,0.01784,0.02657,0.01476*
1,1,0.01784,0.02657,-0.01476*
%
%ADD66ROUNDEDRECTD66*%
%ADD67R,0.13400X0.06800*%
G04:AMPARAMS|DCode=68|XSize=19.81mil|YSize=70.99mil|CornerRadius=6.95mil|HoleSize=0mil|Usage=FLASHONLY|Rotation=180.000|XOffset=0mil|YOffset=0mil|HoleType=Round|Shape=RoundedRectangle|*
%AMROUNDEDRECTD68*
21,1,0.01981,0.05709,0,0,180.0*
21,1,0.00591,0.07099,0,0,180.0*
1,1,0.01391,-0.00295,0.02854*
1,1,0.01391,0.00295,0.02854*
1,1,0.01391,0.00295,-0.02854*
1,1,0.01391,-0.00295,-0.02854*
%
%ADD68ROUNDEDRECTD68*%
G04:AMPARAMS|DCode=69|XSize=78.08mil|YSize=67.84mil|CornerRadius=18.96mil|HoleSize=0mil|Usage=FLASHONLY|Rotation=180.000|XOffset=0mil|YOffset=0mil|HoleType=Round|Shape=RoundedRectangle|*
%AMROUNDEDRECTD69*
21,1,0.07808,0.02992,0,0,180.0*
21,1,0.04016,0.06784,0,0,180.0*
1,1,0.03792,-0.02008,0.01496*
1,1,0.03792,0.02008,0.01496*
1,1,0.03792,0.02008,-0.01496*
1,1,0.03792,-0.02008,-0.01496*
%
%ADD69ROUNDEDRECTD69*%
G04:AMPARAMS|DCode=70|XSize=27.68mil|YSize=31.62mil|CornerRadius=6.46mil|HoleSize=0mil|Usage=FLASHONLY|Rotation=180.000|XOffset=0mil|YOffset=0mil|HoleType=Round|Shape=RoundedRectangle|*
%AMROUNDEDRECTD70*
21,1,0.02768,0.01870,0,0,180.0*
21,1,0.01476,0.03162,0,0,180.0*
1,1,0.01292,-0.00738,0.00935*
1,1,0.01292,0.00738,0.00935*
1,1,0.01292,0.00738,-0.00935*
1,1,0.01292,-0.00738,-0.00935*
%
%ADD70ROUNDEDRECTD70*%
G04:AMPARAMS|DCode=71|XSize=70.99mil|YSize=110.36mil|CornerRadius=11.87mil|HoleSize=0mil|Usage=FLASHONLY|Rotation=180.000|XOffset=0mil|YOffset=0mil|HoleType=Round|Shape=RoundedRectangle|*
%AMROUNDEDRECTD71*
21,1,0.07099,0.08661,0,0,180.0*
21,1,0.04724,0.11036,0,0,180.0*
1,1,0.02375,-0.02362,0.04331*
1,1,0.02375,0.02362,0.04331*
1,1,0.02375,0.02362,-0.04331*
1,1,0.02375,-0.02362,-0.04331*
%
%ADD71ROUNDEDRECTD71*%
G04:AMPARAMS|DCode=72|XSize=29.65mil|YSize=67.06mil|CornerRadius=9.41mil|HoleSize=0mil|Usage=FLASHONLY|Rotation=90.000|XOffset=0mil|YOffset=0mil|HoleType=Round|Shape=RoundedRectangle|*
%AMROUNDEDRECTD72*
21,1,0.02965,0.04823,0,0,90.0*
21,1,0.01083,0.06706,0,0,90.0*
1,1,0.01883,0.02411,0.00541*
1,1,0.01883,0.02411,-0.00541*
1,1,0.01883,-0.02411,-0.00541*
1,1,0.01883,-0.02411,0.00541*
%
%ADD72ROUNDEDRECTD72*%
G04:AMPARAMS|DCode=73|XSize=29.65mil|YSize=67.06mil|CornerRadius=9.41mil|HoleSize=0mil|Usage=FLASHONLY|Rotation=0.000|XOffset=0mil|YOffset=0mil|HoleType=Round|Shape=RoundedRectangle|*
%AMROUNDEDRECTD73*
21,1,0.02965,0.04823,0,0,0.0*
21,1,0.01083,0.06706,0,0,0.0*
1,1,0.01883,0.00541,-0.02411*
1,1,0.01883,-0.00541,-0.02411*
1,1,0.01883,-0.00541,0.02411*
1,1,0.01883,0.00541,0.02411*
%
%ADD73ROUNDEDRECTD73*%
%ADD74C,0.04737*%
G04:AMPARAMS|DCode=75|XSize=64.22mil|YSize=64.22mil|CornerRadius=12.43mil|HoleSize=0mil|Usage=FLASHONLY|Rotation=180.000|XOffset=0mil|YOffset=0mil|HoleType=Round|Shape=RoundedRectangle|*
%AMROUNDEDRECTD75*
21,1,0.06422,0.03935,0,0,180.0*
21,1,0.03935,0.06422,0,0,180.0*
1,1,0.02487,-0.01968,0.01968*
1,1,0.02487,0.01968,0.01968*
1,1,0.02487,0.01968,-0.01968*
1,1,0.02487,-0.01968,-0.01968*
%
%ADD75ROUNDEDRECTD75*%
%ADD76C,0.06422*%
%ADD77C,0.13855*%
%ADD78C,0.07600*%
G04:AMPARAMS|DCode=79|XSize=76mil|YSize=76mil|CornerRadius=14.2mil|HoleSize=0mil|Usage=FLASHONLY|Rotation=270.000|XOffset=0mil|YOffset=0mil|HoleType=Round|Shape=RoundedRectangle|*
%AMROUNDEDRECTD79*
21,1,0.07600,0.04760,0,0,270.0*
21,1,0.04760,0.07600,0,0,270.0*
1,1,0.02840,-0.02380,-0.02380*
1,1,0.02840,-0.02380,0.02380*
1,1,0.02840,0.02380,0.02380*
1,1,0.02840,0.02380,-0.02380*
%
%ADD79ROUNDEDRECTD79*%
%ADD80C,0.23241*%
%ADD81C,0.03556*%
G04:AMPARAMS|DCode=82|XSize=68mil|YSize=68mil|CornerRadius=13mil|HoleSize=0mil|Usage=FLASHONLY|Rotation=90.000|XOffset=0mil|YOffset=0mil|HoleType=Round|Shape=RoundedRectangle|*
%AMROUNDEDRECTD82*
21,1,0.06800,0.04200,0,0,90.0*
21,1,0.04200,0.06800,0,0,90.0*
1,1,0.02600,0.02100,0.02100*
1,1,0.02600,0.02100,-0.02100*
1,1,0.02600,-0.02100,-0.02100*
1,1,0.02600,-0.02100,0.02100*
%
%ADD82ROUNDEDRECTD82*%
G04:AMPARAMS|DCode=83|XSize=68mil|YSize=68mil|CornerRadius=19mil|HoleSize=0mil|Usage=FLASHONLY|Rotation=90.000|XOffset=0mil|YOffset=0mil|HoleType=Round|Shape=RoundedRectangle|*
%AMROUNDEDRECTD83*
21,1,0.06800,0.03000,0,0,90.0*
21,1,0.03000,0.06800,0,0,90.0*
1,1,0.03800,0.01500,0.01500*
1,1,0.03800,0.01500,-0.01500*
1,1,0.03800,-0.01500,-0.01500*
1,1,0.03800,-0.01500,0.01500*
%
%ADD83ROUNDEDRECTD83*%
G04:AMPARAMS|DCode=84|XSize=102.49mil|YSize=102.49mil|CornerRadius=15.81mil|HoleSize=0mil|Usage=FLASHONLY|Rotation=270.000|XOffset=0mil|YOffset=0mil|HoleType=Round|Shape=RoundedRectangle|*
%AMROUNDEDRECTD84*
21,1,0.10249,0.07087,0,0,270.0*
21,1,0.07087,0.10249,0,0,270.0*
1,1,0.03162,-0.03543,-0.03543*
1,1,0.03162,-0.03543,0.03543*
1,1,0.03162,0.03543,0.03543*
1,1,0.03162,0.03543,-0.03543*
%
%ADD84ROUNDEDRECTD84*%
%ADD85C,0.10249*%
D39*
X523000Y106000D02*
D03*
Y126000D02*
D03*
Y146000D02*
D03*
X493000D02*
D03*
Y126000D02*
D03*
Y106000D02*
D03*
Y76000D02*
D03*
X203000Y69000D02*
D03*
X213000Y79000D02*
D03*
X565000Y69772D02*
D03*
X450000D02*
D03*
D56*
X283000Y102000D02*
D03*
X60000Y77000D02*
D03*
X127000Y72000D02*
D03*
X117000Y86000D02*
D03*
D57*
X301000Y132953D02*
D03*
Y127047D02*
D03*
X284000Y152953D02*
D03*
Y147047D02*
D03*
X388000Y75000D02*
D03*
Y80905D02*
D03*
Y67953D02*
D03*
Y62047D02*
D03*
X346000Y75000D02*
D03*
Y80905D02*
D03*
X376000Y139953D02*
D03*
Y134047D02*
D03*
X370000Y139953D02*
D03*
Y134047D02*
D03*
X313000Y108000D02*
D03*
Y102094D02*
D03*
Y133047D02*
D03*
Y138953D02*
D03*
X394000Y80953D02*
D03*
Y75047D02*
D03*
X410000Y67953D02*
D03*
Y62047D02*
D03*
X394000Y62047D02*
D03*
Y67953D02*
D03*
X403000Y67953D02*
D03*
Y62047D02*
D03*
X326000Y67953D02*
D03*
Y62047D02*
D03*
X352000Y80905D02*
D03*
Y75000D02*
D03*
X368000Y67953D02*
D03*
Y62047D02*
D03*
X352000Y62000D02*
D03*
Y67905D02*
D03*
X361000Y67905D02*
D03*
Y62000D02*
D03*
X481000Y50953D02*
D03*
Y45047D02*
D03*
X388000Y126953D02*
D03*
Y121047D02*
D03*
X382000Y126953D02*
D03*
Y121047D02*
D03*
X410000Y134047D02*
D03*
Y139953D02*
D03*
X382000Y134047D02*
D03*
Y139953D02*
D03*
X400000Y134047D02*
D03*
Y139953D02*
D03*
X346000Y62000D02*
D03*
Y67905D02*
D03*
X376000Y126953D02*
D03*
Y121047D02*
D03*
X388000Y139953D02*
D03*
Y134047D02*
D03*
X234000Y81047D02*
D03*
Y86953D02*
D03*
Y70953D02*
D03*
Y65047D02*
D03*
X192000Y64953D02*
D03*
Y59047D02*
D03*
X306000Y107953D02*
D03*
Y102047D02*
D03*
X382000Y75047D02*
D03*
Y80953D02*
D03*
Y67953D02*
D03*
Y62047D02*
D03*
X340000Y75000D02*
D03*
Y80905D02*
D03*
Y67905D02*
D03*
Y62000D02*
D03*
X370000Y121047D02*
D03*
Y126953D02*
D03*
X122000Y144953D02*
D03*
Y139047D02*
D03*
D58*
X275953Y131000D02*
D03*
X270047D02*
D03*
Y123000D02*
D03*
X275953D02*
D03*
X263047Y140000D02*
D03*
X268953D02*
D03*
X141047Y130000D02*
D03*
X146953D02*
D03*
X141047Y122000D02*
D03*
X146953D02*
D03*
Y106000D02*
D03*
X141047D02*
D03*
X141047Y114000D02*
D03*
X146953D02*
D03*
X234047Y57000D02*
D03*
X239953D02*
D03*
X168047Y58000D02*
D03*
X173953D02*
D03*
X155047D02*
D03*
X160953D02*
D03*
X142047D02*
D03*
X147953D02*
D03*
X134953D02*
D03*
X129047D02*
D03*
X121953D02*
D03*
X116047D02*
D03*
X108953D02*
D03*
X103047D02*
D03*
X318000Y74000D02*
D03*
X312094D02*
D03*
X312094Y80000D02*
D03*
X318000D02*
D03*
X312094Y68000D02*
D03*
X318000D02*
D03*
X551047Y47000D02*
D03*
X556953D02*
D03*
X339047Y94000D02*
D03*
X344953D02*
D03*
X301095Y80000D02*
D03*
X307000D02*
D03*
X138953Y98000D02*
D03*
X133047D02*
D03*
X151953D02*
D03*
X146047D02*
D03*
X70047Y67000D02*
D03*
X75953D02*
D03*
X119953Y152000D02*
D03*
X114047D02*
D03*
X210953Y109000D02*
D03*
X205047D02*
D03*
X135953Y149000D02*
D03*
X130047D02*
D03*
X135953Y140000D02*
D03*
X130047D02*
D03*
X61953Y58000D02*
D03*
X56047D02*
D03*
X292047Y140000D02*
D03*
X297953D02*
D03*
D59*
X263118Y130740D02*
D03*
Y123260D02*
D03*
X252882D02*
D03*
Y127000D02*
D03*
Y130740D02*
D03*
X127118Y126000D02*
D03*
X116882Y129740D02*
D03*
Y126000D02*
D03*
Y122260D02*
D03*
X127118Y129740D02*
D03*
Y122260D02*
D03*
D60*
X288000Y133118D02*
D03*
X291740Y122882D02*
D03*
X284260D02*
D03*
X489260Y44882D02*
D03*
X496740D02*
D03*
X493000Y55118D02*
D03*
D61*
X275571Y140000D02*
D03*
X284429D02*
D03*
X493071Y62500D02*
D03*
X501929D02*
D03*
X344571Y150000D02*
D03*
X353429D02*
D03*
D62*
X103417Y99000D02*
D03*
D63*
X80583Y89945D02*
D03*
Y99000D02*
D03*
Y108055D02*
D03*
D64*
X88937Y79000D02*
D03*
X81063D02*
D03*
X565063Y47000D02*
D03*
X572937D02*
D03*
X41063Y58000D02*
D03*
X48937D02*
D03*
X76937D02*
D03*
X69063D02*
D03*
D65*
X60000Y97937D02*
D03*
Y90063D02*
D03*
X117000Y106937D02*
D03*
Y99063D02*
D03*
X70000Y107937D02*
D03*
Y100063D02*
D03*
X127000Y82063D02*
D03*
Y89937D02*
D03*
D66*
X107000Y125906D02*
D03*
Y114094D02*
D03*
D67*
X46000Y104800D02*
D03*
Y91200D02*
D03*
D68*
X239925Y64976D02*
D03*
X242484D02*
D03*
X245043D02*
D03*
X247602D02*
D03*
X250161D02*
D03*
X252720D02*
D03*
X255279D02*
D03*
X257839D02*
D03*
X260398D02*
D03*
X262957D02*
D03*
X265516D02*
D03*
X268075D02*
D03*
X239925Y87024D02*
D03*
X242484D02*
D03*
X245043D02*
D03*
X247602D02*
D03*
X250161D02*
D03*
X252720D02*
D03*
X255279D02*
D03*
X257839D02*
D03*
X260398D02*
D03*
X262957D02*
D03*
X265516D02*
D03*
X268075D02*
D03*
D69*
X325000Y104264D02*
D03*
X335000Y139736D02*
D03*
X345000Y104264D02*
D03*
Y139736D02*
D03*
X335000Y104264D02*
D03*
X325000Y139736D02*
D03*
D70*
X410000Y73571D02*
D03*
Y82429D02*
D03*
X403000D02*
D03*
Y73571D02*
D03*
X326000D02*
D03*
Y82429D02*
D03*
X368000D02*
D03*
Y73571D02*
D03*
X361000Y73524D02*
D03*
Y82382D02*
D03*
X400000Y119571D02*
D03*
Y128429D02*
D03*
X410000D02*
D03*
Y119571D02*
D03*
D71*
X517000Y47913D02*
D03*
Y62087D02*
D03*
D72*
X159465Y137024D02*
D03*
Y133874D02*
D03*
Y130724D02*
D03*
Y127575D02*
D03*
Y124425D02*
D03*
Y121276D02*
D03*
Y118126D02*
D03*
Y114976D02*
D03*
X192535D02*
D03*
Y118126D02*
D03*
Y121276D02*
D03*
Y124425D02*
D03*
Y127575D02*
D03*
Y130724D02*
D03*
Y133874D02*
D03*
Y137024D02*
D03*
D73*
X164976Y109465D02*
D03*
X168126D02*
D03*
X171276D02*
D03*
X174425D02*
D03*
X177575D02*
D03*
X180724D02*
D03*
X183874D02*
D03*
X187024D02*
D03*
Y142535D02*
D03*
X183874D02*
D03*
X180724D02*
D03*
X177575D02*
D03*
X174425D02*
D03*
X171276D02*
D03*
X168126D02*
D03*
X164976D02*
D03*
D74*
X144000Y140000D02*
D03*
Y149000D02*
D03*
D75*
X69079Y122728D02*
D03*
D76*
Y130602D02*
D03*
X78921D02*
D03*
Y122728D02*
D03*
D77*
X97701Y141272D02*
D03*
X50299D02*
D03*
D78*
X148000Y86000D02*
D03*
X158000D02*
D03*
X168000D02*
D03*
X325000Y150000D02*
D03*
X315000D02*
D03*
X305000D02*
D03*
X335000D02*
D03*
X263000D02*
D03*
X253000D02*
D03*
X243000D02*
D03*
X273000D02*
D03*
X73000Y47000D02*
D03*
X273000D02*
D03*
X263000D02*
D03*
X243000D02*
D03*
X213000D02*
D03*
X223000D02*
D03*
X233000D02*
D03*
X253000D02*
D03*
X283000D02*
D03*
X293000D02*
D03*
X303000D02*
D03*
X313000D02*
D03*
X323000D02*
D03*
X333000D02*
D03*
X343000D02*
D03*
X353000D02*
D03*
X193000D02*
D03*
X173000D02*
D03*
X153000D02*
D03*
X133000D02*
D03*
X113000D02*
D03*
X93000D02*
D03*
X453000D02*
D03*
X433000D02*
D03*
X373000D02*
D03*
X413000D02*
D03*
X393000D02*
D03*
X594000D02*
D03*
X400000Y150000D02*
D03*
X390000D02*
D03*
X380000D02*
D03*
X410000D02*
D03*
X53000Y47000D02*
D03*
D79*
X138000Y86000D02*
D03*
X295000Y150000D02*
D03*
X233000D02*
D03*
X63000Y47000D02*
D03*
X203000D02*
D03*
X183000D02*
D03*
X163000D02*
D03*
X143000D02*
D03*
X123000D02*
D03*
X103000D02*
D03*
X83000D02*
D03*
X443000D02*
D03*
X423000D02*
D03*
X363000D02*
D03*
X403000D02*
D03*
X383000D02*
D03*
X584000D02*
D03*
X370000Y150000D02*
D03*
X43000Y47000D02*
D03*
D80*
X370079Y98425D02*
D03*
X622047D02*
D03*
X15748D02*
D03*
D81*
X361811D02*
D03*
X364279Y104225D02*
D03*
X370079Y106693D02*
D03*
X375879Y104225D02*
D03*
X378346Y98425D02*
D03*
X375979Y92525D02*
D03*
X370079Y90158D02*
D03*
X364179Y92625D02*
D03*
X613779Y98425D02*
D03*
X616247Y104225D02*
D03*
X622047Y106693D02*
D03*
X627847Y104225D02*
D03*
X630315Y98425D02*
D03*
X627947Y92525D02*
D03*
X622047Y90158D02*
D03*
X616147Y92625D02*
D03*
X7480Y98425D02*
D03*
X9948Y104225D02*
D03*
X15748Y106693D02*
D03*
X21548Y104225D02*
D03*
X24016Y98425D02*
D03*
X21648Y92525D02*
D03*
X15748Y90158D02*
D03*
X9848Y92625D02*
D03*
D82*
X523000Y76000D02*
D03*
D83*
X213000Y59000D02*
D03*
D84*
X542559Y138000D02*
D03*
X427559D02*
D03*
D85*
X542559Y88000D02*
D03*
Y113000D02*
D03*
X587441Y138000D02*
D03*
Y88000D02*
D03*
Y113000D02*
D03*
X472441D02*
D03*
Y88000D02*
D03*
Y138000D02*
D03*
X427559Y113000D02*
D03*
Y88000D02*
D03*
M02*
