G04 Layer_Color=255*
%FSLAX25Y25*%
%MOIN*%
G70*
G01*
G75*
G04:AMPARAMS|DCode=12|XSize=25.59mil|YSize=33.47mil|CornerRadius=3.2mil|HoleSize=0mil|Usage=FLASHONLY|Rotation=180.000|XOffset=0mil|YOffset=0mil|HoleType=Round|Shape=RoundedRectangle|*
%AMROUNDEDRECTD12*
21,1,0.02559,0.02707,0,0,180.0*
21,1,0.01919,0.03347,0,0,180.0*
1,1,0.00640,-0.00960,0.01353*
1,1,0.00640,0.00960,0.01353*
1,1,0.00640,0.00960,-0.01353*
1,1,0.00640,-0.00960,-0.01353*
%
%ADD12ROUNDEDRECTD12*%
G04:AMPARAMS|DCode=18|XSize=39.37mil|YSize=51.18mil|CornerRadius=4.92mil|HoleSize=0mil|Usage=FLASHONLY|Rotation=180.000|XOffset=0mil|YOffset=0mil|HoleType=Round|Shape=RoundedRectangle|*
%AMROUNDEDRECTD18*
21,1,0.03937,0.04134,0,0,180.0*
21,1,0.02953,0.05118,0,0,180.0*
1,1,0.00984,-0.01476,0.02067*
1,1,0.00984,0.01476,0.02067*
1,1,0.00984,0.01476,-0.02067*
1,1,0.00984,-0.01476,-0.02067*
%
%ADD18ROUNDEDRECTD18*%
G04:AMPARAMS|DCode=36|XSize=56.22mil|YSize=56.22mil|CornerRadius=8.43mil|HoleSize=0mil|Usage=FLASHONLY|Rotation=180.000|XOffset=0mil|YOffset=0mil|HoleType=Round|Shape=RoundedRectangle|*
%AMROUNDEDRECTD36*
21,1,0.05622,0.03935,0,0,180.0*
21,1,0.03935,0.05622,0,0,180.0*
1,1,0.01687,-0.01968,0.01968*
1,1,0.01687,0.01968,0.01968*
1,1,0.01687,0.01968,-0.01968*
1,1,0.01687,-0.01968,-0.01968*
%
%ADD36ROUNDEDRECTD36*%
%ADD37C,0.05622*%
%ADD38C,0.13055*%
%ADD39C,0.06800*%
G04:AMPARAMS|DCode=40|XSize=68mil|YSize=68mil|CornerRadius=10.2mil|HoleSize=0mil|Usage=FLASHONLY|Rotation=270.000|XOffset=0mil|YOffset=0mil|HoleType=Round|Shape=RoundedRectangle|*
%AMROUNDEDRECTD40*
21,1,0.06800,0.04760,0,0,270.0*
21,1,0.04760,0.06800,0,0,270.0*
1,1,0.02040,-0.02380,-0.02380*
1,1,0.02040,-0.02380,0.02380*
1,1,0.02040,0.02380,0.02380*
1,1,0.02040,0.02380,-0.02380*
%
%ADD40ROUNDEDRECTD40*%
%ADD41C,0.22441*%
%ADD42C,0.02756*%
G04:AMPARAMS|DCode=43|XSize=60mil|YSize=60mil|CornerRadius=9mil|HoleSize=0mil|Usage=FLASHONLY|Rotation=90.000|XOffset=0mil|YOffset=0mil|HoleType=Round|Shape=RoundedRectangle|*
%AMROUNDEDRECTD43*
21,1,0.06000,0.04200,0,0,90.0*
21,1,0.04200,0.06000,0,0,90.0*
1,1,0.01800,0.02100,0.02100*
1,1,0.01800,0.02100,-0.02100*
1,1,0.01800,-0.02100,-0.02100*
1,1,0.01800,-0.02100,0.02100*
%
%ADD43ROUNDEDRECTD43*%
%ADD44C,0.06000*%
G04:AMPARAMS|DCode=45|XSize=60mil|YSize=60mil|CornerRadius=15mil|HoleSize=0mil|Usage=FLASHONLY|Rotation=90.000|XOffset=0mil|YOffset=0mil|HoleType=Round|Shape=RoundedRectangle|*
%AMROUNDEDRECTD45*
21,1,0.06000,0.03000,0,0,90.0*
21,1,0.03000,0.06000,0,0,90.0*
1,1,0.03000,0.01500,0.01500*
1,1,0.03000,0.01500,-0.01500*
1,1,0.03000,-0.01500,-0.01500*
1,1,0.03000,-0.01500,0.01500*
%
%ADD45ROUNDEDRECTD45*%
G04:AMPARAMS|DCode=46|XSize=94.49mil|YSize=94.49mil|CornerRadius=11.81mil|HoleSize=0mil|Usage=FLASHONLY|Rotation=270.000|XOffset=0mil|YOffset=0mil|HoleType=Round|Shape=RoundedRectangle|*
%AMROUNDEDRECTD46*
21,1,0.09449,0.07087,0,0,270.0*
21,1,0.07087,0.09449,0,0,270.0*
1,1,0.02362,-0.03543,-0.03543*
1,1,0.02362,-0.03543,0.03543*
1,1,0.02362,0.03543,0.03543*
1,1,0.02362,0.03543,-0.03543*
%
%ADD46ROUNDEDRECTD46*%
%ADD47C,0.09449*%
D12*
X56047Y131000D02*
D03*
X61953D02*
D03*
X68953Y138000D02*
D03*
X63047D02*
D03*
D18*
X489437Y96000D02*
D03*
X481563D02*
D03*
D36*
X69079Y122728D02*
D03*
D37*
Y130602D02*
D03*
X78921D02*
D03*
Y122728D02*
D03*
D38*
X97701Y141272D02*
D03*
X50299D02*
D03*
D39*
X148000Y86000D02*
D03*
X158000D02*
D03*
X168000D02*
D03*
X325000Y150000D02*
D03*
X315000D02*
D03*
X305000D02*
D03*
X335000D02*
D03*
X263000D02*
D03*
X253000D02*
D03*
X243000D02*
D03*
X273000D02*
D03*
X73000Y47000D02*
D03*
X273000D02*
D03*
X263000D02*
D03*
X243000D02*
D03*
X213000D02*
D03*
X223000D02*
D03*
X233000D02*
D03*
X253000D02*
D03*
X283000D02*
D03*
X293000D02*
D03*
X303000D02*
D03*
X313000D02*
D03*
X323000D02*
D03*
X333000D02*
D03*
X343000D02*
D03*
X353000D02*
D03*
X193000D02*
D03*
X173000D02*
D03*
X153000D02*
D03*
X133000D02*
D03*
X113000D02*
D03*
X93000D02*
D03*
X453000D02*
D03*
X433000D02*
D03*
X373000D02*
D03*
X413000D02*
D03*
X393000D02*
D03*
X594000D02*
D03*
X400000Y150000D02*
D03*
X390000D02*
D03*
X380000D02*
D03*
X410000D02*
D03*
X53000Y47000D02*
D03*
D40*
X138000Y86000D02*
D03*
X295000Y150000D02*
D03*
X233000D02*
D03*
X63000Y47000D02*
D03*
X203000D02*
D03*
X183000D02*
D03*
X163000D02*
D03*
X143000D02*
D03*
X123000D02*
D03*
X103000D02*
D03*
X83000D02*
D03*
X443000D02*
D03*
X423000D02*
D03*
X363000D02*
D03*
X403000D02*
D03*
X383000D02*
D03*
X584000D02*
D03*
X370000Y150000D02*
D03*
X43000Y47000D02*
D03*
D41*
X370079Y98425D02*
D03*
X622047D02*
D03*
X15748D02*
D03*
D42*
X361811D02*
D03*
X364279Y104225D02*
D03*
X370079Y106693D02*
D03*
X375879Y104225D02*
D03*
X378346Y98425D02*
D03*
X375979Y92525D02*
D03*
X370079Y90158D02*
D03*
X364179Y92625D02*
D03*
X613779Y98425D02*
D03*
X616247Y104225D02*
D03*
X622047Y106693D02*
D03*
X627847Y104225D02*
D03*
X630315Y98425D02*
D03*
X627947Y92525D02*
D03*
X622047Y90158D02*
D03*
X616147Y92625D02*
D03*
X7480Y98425D02*
D03*
X9948Y104225D02*
D03*
X15748Y106693D02*
D03*
X21548Y104225D02*
D03*
X24016Y98425D02*
D03*
X21648Y92525D02*
D03*
X15748Y90158D02*
D03*
X9848Y92625D02*
D03*
D43*
X523000Y76000D02*
D03*
D44*
Y106000D02*
D03*
Y126000D02*
D03*
Y146000D02*
D03*
X493000D02*
D03*
Y126000D02*
D03*
Y106000D02*
D03*
Y76000D02*
D03*
X203000Y69000D02*
D03*
X213000Y79000D02*
D03*
X565000Y69772D02*
D03*
X450000D02*
D03*
D45*
X213000Y59000D02*
D03*
D46*
X542559Y138000D02*
D03*
X427559D02*
D03*
D47*
X542559Y88000D02*
D03*
Y113000D02*
D03*
X587441Y138000D02*
D03*
Y88000D02*
D03*
Y113000D02*
D03*
X472441D02*
D03*
Y88000D02*
D03*
Y138000D02*
D03*
X427559Y113000D02*
D03*
Y88000D02*
D03*
M02*
