G04 Layer_Color=32896*
%FSLAX25Y25*%
%MOIN*%
G70*
G01*
G75*
%ADD55C,0.00787*%
G36*
X64000Y123000D02*
X63489D01*
Y124704D01*
X62835D01*
X62774Y124698D01*
X62729D01*
X62690Y124693D01*
X62663Y124687D01*
X62640D01*
X62629Y124682D01*
X62624D01*
X62535Y124654D01*
X62496Y124637D01*
X62463Y124621D01*
X62429Y124604D01*
X62407Y124593D01*
X62396Y124587D01*
X62391Y124582D01*
X62346Y124548D01*
X62302Y124510D01*
X62218Y124426D01*
X62180Y124388D01*
X62152Y124354D01*
X62135Y124332D01*
X62130Y124326D01*
X62074Y124249D01*
X62013Y124165D01*
X61952Y124077D01*
X61891Y123994D01*
X61841Y123916D01*
X61802Y123855D01*
X61786Y123832D01*
X61774Y123816D01*
X61763Y123805D01*
Y123799D01*
X61258Y123000D01*
X60626D01*
X61286Y124043D01*
X61364Y124154D01*
X61436Y124254D01*
X61508Y124338D01*
X61569Y124415D01*
X61625Y124471D01*
X61669Y124515D01*
X61697Y124543D01*
X61708Y124554D01*
X61752Y124587D01*
X61802Y124626D01*
X61902Y124687D01*
X61946Y124709D01*
X61980Y124732D01*
X62002Y124743D01*
X62013Y124748D01*
X61913Y124765D01*
X61819Y124782D01*
X61736Y124809D01*
X61652Y124831D01*
X61580Y124859D01*
X61514Y124893D01*
X61453Y124920D01*
X61397Y124948D01*
X61353Y124981D01*
X61308Y125009D01*
X61275Y125031D01*
X61247Y125054D01*
X61225Y125070D01*
X61208Y125087D01*
X61203Y125092D01*
X61197Y125098D01*
X61153Y125153D01*
X61108Y125209D01*
X61042Y125326D01*
X60997Y125442D01*
X60964Y125553D01*
X60942Y125647D01*
X60936Y125686D01*
Y125725D01*
X60931Y125753D01*
Y125775D01*
Y125786D01*
Y125792D01*
X60936Y125908D01*
X60953Y126014D01*
X60981Y126114D01*
X61009Y126197D01*
X61042Y126269D01*
X61064Y126324D01*
X61086Y126358D01*
X61092Y126363D01*
Y126369D01*
X61158Y126458D01*
X61225Y126535D01*
X61297Y126602D01*
X61364Y126652D01*
X61425Y126691D01*
X61475Y126713D01*
X61508Y126730D01*
X61514Y126735D01*
X61519D01*
X61569Y126752D01*
X61630Y126769D01*
X61752Y126796D01*
X61885Y126813D01*
X62008Y126830D01*
X62124Y126835D01*
X62174D01*
X62218Y126841D01*
X64000D01*
Y123000D01*
D02*
G37*
G36*
X60243Y124815D02*
X59799Y124754D01*
X59760Y124815D01*
X59710Y124865D01*
X59665Y124915D01*
X59621Y124954D01*
X59577Y124981D01*
X59543Y125009D01*
X59521Y125020D01*
X59516Y125026D01*
X59443Y125059D01*
X59371Y125087D01*
X59305Y125103D01*
X59238Y125120D01*
X59183Y125126D01*
X59138Y125131D01*
X59033D01*
X58966Y125120D01*
X58850Y125092D01*
X58750Y125054D01*
X58661Y125015D01*
X58594Y124970D01*
X58544Y124931D01*
X58517Y124904D01*
X58505Y124898D01*
Y124893D01*
X58428Y124798D01*
X58372Y124698D01*
X58333Y124593D01*
X58306Y124487D01*
X58289Y124399D01*
X58284Y124360D01*
Y124326D01*
X58278Y124299D01*
Y124276D01*
Y124265D01*
Y124260D01*
Y124182D01*
X58289Y124110D01*
X58317Y123971D01*
X58356Y123855D01*
X58394Y123760D01*
X58439Y123683D01*
X58478Y123622D01*
X58494Y123605D01*
X58505Y123588D01*
X58511Y123583D01*
X58517Y123577D01*
X58561Y123533D01*
X58605Y123494D01*
X58705Y123427D01*
X58800Y123383D01*
X58894Y123355D01*
X58972Y123333D01*
X59038Y123327D01*
X59061Y123322D01*
X59094D01*
X59199Y123327D01*
X59294Y123350D01*
X59377Y123377D01*
X59443Y123411D01*
X59504Y123444D01*
X59549Y123472D01*
X59571Y123494D01*
X59582Y123500D01*
X59649Y123577D01*
X59704Y123660D01*
X59749Y123755D01*
X59782Y123838D01*
X59804Y123921D01*
X59821Y123982D01*
X59826Y124010D01*
X59832Y124027D01*
Y124038D01*
Y124043D01*
X60326Y124004D01*
X60315Y123916D01*
X60298Y123832D01*
X60248Y123677D01*
X60187Y123544D01*
X60154Y123483D01*
X60121Y123433D01*
X60093Y123383D01*
X60059Y123339D01*
X60032Y123305D01*
X60004Y123277D01*
X59982Y123255D01*
X59971Y123233D01*
X59960Y123228D01*
X59954Y123222D01*
X59887Y123172D01*
X59821Y123128D01*
X59749Y123089D01*
X59676Y123056D01*
X59538Y123005D01*
X59399Y122972D01*
X59338Y122956D01*
X59277Y122950D01*
X59227Y122944D01*
X59183Y122939D01*
X59144Y122933D01*
X59094D01*
X58977Y122939D01*
X58866Y122956D01*
X58761Y122978D01*
X58666Y123005D01*
X58578Y123044D01*
X58494Y123083D01*
X58417Y123122D01*
X58350Y123167D01*
X58289Y123211D01*
X58234Y123250D01*
X58189Y123294D01*
X58150Y123327D01*
X58123Y123355D01*
X58100Y123377D01*
X58089Y123394D01*
X58084Y123400D01*
X58028Y123472D01*
X57984Y123549D01*
X57939Y123622D01*
X57906Y123699D01*
X57851Y123849D01*
X57817Y123994D01*
X57806Y124055D01*
X57795Y124116D01*
X57789Y124165D01*
X57784Y124210D01*
X57778Y124249D01*
Y124276D01*
Y124293D01*
Y124299D01*
X57784Y124399D01*
X57795Y124493D01*
X57812Y124587D01*
X57834Y124671D01*
X57862Y124748D01*
X57889Y124826D01*
X57923Y124893D01*
X57951Y124954D01*
X57984Y125009D01*
X58017Y125059D01*
X58045Y125098D01*
X58073Y125137D01*
X58095Y125164D01*
X58112Y125181D01*
X58123Y125192D01*
X58128Y125198D01*
X58195Y125259D01*
X58261Y125314D01*
X58333Y125359D01*
X58406Y125398D01*
X58478Y125436D01*
X58550Y125464D01*
X58683Y125503D01*
X58744Y125520D01*
X58800Y125531D01*
X58850Y125536D01*
X58894Y125542D01*
X58927Y125548D01*
X59049D01*
X59116Y125536D01*
X59249Y125509D01*
X59371Y125470D01*
X59482Y125425D01*
X59571Y125381D01*
X59610Y125359D01*
X59643Y125342D01*
X59671Y125326D01*
X59688Y125314D01*
X59699Y125309D01*
X59704Y125303D01*
X59499Y126341D01*
X57962D01*
Y126791D01*
X59871D01*
X60243Y124815D01*
D02*
G37*
G36*
X495169Y97852D02*
X495263Y97846D01*
X495352Y97830D01*
X495435Y97813D01*
X495513Y97791D01*
X495585Y97768D01*
X495652Y97741D01*
X495713Y97713D01*
X495768Y97685D01*
X495813Y97657D01*
X495852Y97635D01*
X495885Y97613D01*
X495913Y97596D01*
X495929Y97580D01*
X495940Y97574D01*
X495946Y97569D01*
X496001Y97513D01*
X496051Y97452D01*
X496101Y97386D01*
X496140Y97319D01*
X496207Y97186D01*
X496251Y97053D01*
X496268Y96991D01*
X496284Y96930D01*
X496296Y96880D01*
X496307Y96836D01*
X496312Y96797D01*
Y96769D01*
X496318Y96753D01*
Y96747D01*
X495835Y96697D01*
X495824Y96825D01*
X495802Y96936D01*
X495768Y97036D01*
X495729Y97114D01*
X495696Y97180D01*
X495663Y97224D01*
X495641Y97252D01*
X495630Y97263D01*
X495546Y97330D01*
X495458Y97380D01*
X495363Y97419D01*
X495280Y97441D01*
X495202Y97458D01*
X495136Y97463D01*
X495114Y97469D01*
X495080D01*
X494964Y97463D01*
X494858Y97441D01*
X494769Y97408D01*
X494692Y97374D01*
X494631Y97336D01*
X494592Y97308D01*
X494564Y97286D01*
X494553Y97275D01*
X494486Y97197D01*
X494436Y97119D01*
X494397Y97041D01*
X494375Y96964D01*
X494359Y96903D01*
X494353Y96847D01*
X494347Y96814D01*
Y96808D01*
Y96803D01*
X494359Y96703D01*
X494381Y96597D01*
X494420Y96503D01*
X494459Y96414D01*
X494503Y96342D01*
X494542Y96281D01*
X494553Y96259D01*
X494564Y96242D01*
X494575Y96237D01*
Y96231D01*
X494620Y96170D01*
X494675Y96109D01*
X494736Y96042D01*
X494803Y95976D01*
X494941Y95843D01*
X495080Y95709D01*
X495152Y95648D01*
X495213Y95593D01*
X495274Y95543D01*
X495324Y95499D01*
X495363Y95465D01*
X495397Y95438D01*
X495419Y95421D01*
X495424Y95415D01*
X495563Y95299D01*
X495691Y95188D01*
X495796Y95088D01*
X495879Y95004D01*
X495952Y94932D01*
X496001Y94882D01*
X496029Y94849D01*
X496040Y94844D01*
Y94838D01*
X496118Y94744D01*
X496179Y94655D01*
X496235Y94566D01*
X496279Y94488D01*
X496312Y94422D01*
X496335Y94372D01*
X496346Y94339D01*
X496351Y94333D01*
Y94327D01*
X496373Y94266D01*
X496384Y94211D01*
X496395Y94155D01*
X496401Y94105D01*
X496407Y94061D01*
Y94028D01*
Y94006D01*
Y94000D01*
X493859D01*
Y94455D01*
X495752D01*
X495685Y94550D01*
X495652Y94588D01*
X495624Y94627D01*
X495596Y94661D01*
X495574Y94683D01*
X495557Y94699D01*
X495552Y94705D01*
X495524Y94733D01*
X495491Y94760D01*
X495413Y94832D01*
X495324Y94916D01*
X495230Y94999D01*
X495141Y95071D01*
X495102Y95104D01*
X495069Y95138D01*
X495041Y95160D01*
X495019Y95177D01*
X495008Y95188D01*
X495003Y95193D01*
X494914Y95271D01*
X494825Y95343D01*
X494747Y95415D01*
X494675Y95476D01*
X494608Y95537D01*
X494553Y95593D01*
X494497Y95643D01*
X494453Y95687D01*
X494409Y95732D01*
X494375Y95765D01*
X494347Y95793D01*
X494320Y95820D01*
X494292Y95854D01*
X494281Y95865D01*
X494203Y95959D01*
X494137Y96042D01*
X494081Y96126D01*
X494037Y96192D01*
X494003Y96253D01*
X493981Y96298D01*
X493970Y96325D01*
X493965Y96337D01*
X493931Y96420D01*
X493909Y96503D01*
X493887Y96581D01*
X493876Y96647D01*
X493870Y96708D01*
X493865Y96753D01*
Y96781D01*
Y96792D01*
X493870Y96875D01*
X493881Y96953D01*
X493892Y97030D01*
X493915Y97097D01*
X493970Y97230D01*
X494026Y97336D01*
X494059Y97386D01*
X494087Y97424D01*
X494114Y97463D01*
X494142Y97491D01*
X494164Y97513D01*
X494175Y97535D01*
X494187Y97541D01*
X494192Y97546D01*
X494253Y97602D01*
X494320Y97652D01*
X494392Y97691D01*
X494464Y97724D01*
X494608Y97780D01*
X494753Y97818D01*
X494814Y97830D01*
X494875Y97841D01*
X494930Y97846D01*
X494975Y97852D01*
X495014Y97857D01*
X495069D01*
X495169Y97852D01*
D02*
G37*
G36*
X503000Y94000D02*
X502489D01*
Y95704D01*
X501834D01*
X501773Y95698D01*
X501729D01*
X501690Y95693D01*
X501662Y95687D01*
X501640D01*
X501629Y95682D01*
X501624D01*
X501535Y95654D01*
X501496Y95637D01*
X501463Y95621D01*
X501429Y95604D01*
X501407Y95593D01*
X501396Y95587D01*
X501391Y95582D01*
X501346Y95548D01*
X501302Y95510D01*
X501219Y95426D01*
X501180Y95388D01*
X501152Y95354D01*
X501135Y95332D01*
X501130Y95326D01*
X501074Y95249D01*
X501013Y95165D01*
X500952Y95077D01*
X500891Y94993D01*
X500841Y94916D01*
X500802Y94855D01*
X500785Y94832D01*
X500774Y94816D01*
X500763Y94805D01*
Y94799D01*
X500258Y94000D01*
X499626D01*
X500286Y95043D01*
X500364Y95154D01*
X500436Y95254D01*
X500508Y95337D01*
X500569Y95415D01*
X500625Y95471D01*
X500669Y95515D01*
X500697Y95543D01*
X500708Y95554D01*
X500752Y95587D01*
X500802Y95626D01*
X500902Y95687D01*
X500947Y95709D01*
X500980Y95732D01*
X501002Y95743D01*
X501013Y95748D01*
X500913Y95765D01*
X500819Y95782D01*
X500736Y95809D01*
X500652Y95832D01*
X500580Y95859D01*
X500514Y95893D01*
X500453Y95920D01*
X500397Y95948D01*
X500353Y95981D01*
X500308Y96009D01*
X500275Y96031D01*
X500247Y96053D01*
X500225Y96070D01*
X500208Y96087D01*
X500203Y96092D01*
X500197Y96098D01*
X500153Y96153D01*
X500108Y96209D01*
X500042Y96325D01*
X499998Y96442D01*
X499964Y96553D01*
X499942Y96647D01*
X499936Y96686D01*
Y96725D01*
X499931Y96753D01*
Y96775D01*
Y96786D01*
Y96792D01*
X499936Y96908D01*
X499953Y97014D01*
X499981Y97114D01*
X500009Y97197D01*
X500042Y97269D01*
X500064Y97325D01*
X500086Y97358D01*
X500092Y97363D01*
Y97369D01*
X500158Y97458D01*
X500225Y97535D01*
X500297Y97602D01*
X500364Y97652D01*
X500425Y97691D01*
X500475Y97713D01*
X500508Y97730D01*
X500514Y97735D01*
X500519D01*
X500569Y97752D01*
X500630Y97768D01*
X500752Y97796D01*
X500885Y97813D01*
X501008Y97830D01*
X501124Y97835D01*
X501174D01*
X501219Y97841D01*
X503000D01*
Y94000D01*
D02*
G37*
G36*
X499243Y95815D02*
X498799Y95754D01*
X498760Y95815D01*
X498710Y95865D01*
X498665Y95915D01*
X498621Y95954D01*
X498577Y95981D01*
X498543Y96009D01*
X498521Y96020D01*
X498516Y96026D01*
X498444Y96059D01*
X498371Y96087D01*
X498305Y96103D01*
X498238Y96120D01*
X498183Y96126D01*
X498138Y96131D01*
X498033D01*
X497966Y96120D01*
X497850Y96092D01*
X497750Y96053D01*
X497661Y96015D01*
X497594Y95970D01*
X497544Y95931D01*
X497517Y95904D01*
X497506Y95898D01*
Y95893D01*
X497428Y95798D01*
X497372Y95698D01*
X497333Y95593D01*
X497306Y95487D01*
X497289Y95399D01*
X497284Y95360D01*
Y95326D01*
X497278Y95299D01*
Y95276D01*
Y95265D01*
Y95260D01*
Y95182D01*
X497289Y95110D01*
X497317Y94971D01*
X497356Y94855D01*
X497395Y94760D01*
X497439Y94683D01*
X497478Y94622D01*
X497494Y94605D01*
X497506Y94588D01*
X497511Y94583D01*
X497517Y94577D01*
X497561Y94533D01*
X497605Y94494D01*
X497705Y94427D01*
X497800Y94383D01*
X497894Y94355D01*
X497972Y94333D01*
X498038Y94327D01*
X498061Y94322D01*
X498094D01*
X498199Y94327D01*
X498294Y94350D01*
X498377Y94377D01*
X498444Y94411D01*
X498504Y94444D01*
X498549Y94472D01*
X498571Y94494D01*
X498582Y94499D01*
X498649Y94577D01*
X498704Y94661D01*
X498749Y94755D01*
X498782Y94838D01*
X498804Y94921D01*
X498821Y94982D01*
X498826Y95010D01*
X498832Y95027D01*
Y95038D01*
Y95043D01*
X499326Y95004D01*
X499315Y94916D01*
X499298Y94832D01*
X499248Y94677D01*
X499187Y94544D01*
X499154Y94483D01*
X499121Y94433D01*
X499093Y94383D01*
X499059Y94339D01*
X499032Y94305D01*
X499004Y94278D01*
X498982Y94255D01*
X498971Y94233D01*
X498960Y94227D01*
X498954Y94222D01*
X498887Y94172D01*
X498821Y94128D01*
X498749Y94089D01*
X498677Y94055D01*
X498538Y94006D01*
X498399Y93972D01*
X498338Y93956D01*
X498277Y93950D01*
X498227Y93945D01*
X498183Y93939D01*
X498144Y93933D01*
X498094D01*
X497977Y93939D01*
X497866Y93956D01*
X497761Y93978D01*
X497666Y94006D01*
X497578Y94044D01*
X497494Y94083D01*
X497417Y94122D01*
X497350Y94166D01*
X497289Y94211D01*
X497234Y94250D01*
X497189Y94294D01*
X497150Y94327D01*
X497122Y94355D01*
X497100Y94377D01*
X497089Y94394D01*
X497084Y94400D01*
X497028Y94472D01*
X496984Y94550D01*
X496939Y94622D01*
X496906Y94699D01*
X496851Y94849D01*
X496817Y94993D01*
X496806Y95055D01*
X496795Y95116D01*
X496790Y95165D01*
X496784Y95210D01*
X496778Y95249D01*
Y95276D01*
Y95293D01*
Y95299D01*
X496784Y95399D01*
X496795Y95493D01*
X496812Y95587D01*
X496834Y95671D01*
X496862Y95748D01*
X496889Y95826D01*
X496923Y95893D01*
X496950Y95954D01*
X496984Y96009D01*
X497017Y96059D01*
X497045Y96098D01*
X497073Y96137D01*
X497095Y96165D01*
X497111Y96181D01*
X497122Y96192D01*
X497128Y96198D01*
X497195Y96259D01*
X497261Y96314D01*
X497333Y96359D01*
X497406Y96398D01*
X497478Y96437D01*
X497550Y96464D01*
X497683Y96503D01*
X497744Y96520D01*
X497800Y96531D01*
X497850Y96536D01*
X497894Y96542D01*
X497927Y96548D01*
X498049D01*
X498116Y96536D01*
X498249Y96509D01*
X498371Y96470D01*
X498482Y96425D01*
X498571Y96381D01*
X498610Y96359D01*
X498643Y96342D01*
X498671Y96325D01*
X498688Y96314D01*
X498699Y96309D01*
X498704Y96303D01*
X498499Y97341D01*
X496962D01*
Y97791D01*
X498871D01*
X499243Y95815D01*
D02*
G37*
G36*
X69374Y145896D02*
X69551Y145868D01*
X69707Y145835D01*
X69779Y145813D01*
X69846Y145791D01*
X69907Y145768D01*
X69962Y145746D01*
X70007Y145730D01*
X70051Y145713D01*
X70079Y145696D01*
X70101Y145685D01*
X70118Y145680D01*
X70123Y145674D01*
X70273Y145580D01*
X70401Y145469D01*
X70512Y145358D01*
X70606Y145247D01*
X70678Y145147D01*
X70706Y145102D01*
X70728Y145064D01*
X70750Y145036D01*
X70761Y145014D01*
X70767Y144997D01*
X70772Y144992D01*
X70850Y144819D01*
X70906Y144642D01*
X70944Y144464D01*
X70972Y144303D01*
X70983Y144231D01*
X70989Y144159D01*
X70994Y144103D01*
Y144048D01*
X71000Y144009D01*
Y143976D01*
Y143954D01*
Y143948D01*
X70989Y143748D01*
X70967Y143554D01*
X70939Y143382D01*
X70917Y143299D01*
X70900Y143227D01*
X70884Y143160D01*
X70861Y143099D01*
X70845Y143043D01*
X70833Y142999D01*
X70817Y142966D01*
X70811Y142938D01*
X70800Y142921D01*
Y142916D01*
X70717Y142749D01*
X70623Y142599D01*
X70523Y142472D01*
X70473Y142422D01*
X70428Y142372D01*
X70384Y142327D01*
X70340Y142289D01*
X70301Y142255D01*
X70267Y142233D01*
X70245Y142211D01*
X70223Y142194D01*
X70212Y142189D01*
X70206Y142183D01*
X70129Y142139D01*
X70051Y142100D01*
X69885Y142039D01*
X69718Y141995D01*
X69557Y141967D01*
X69479Y141956D01*
X69413Y141945D01*
X69352Y141939D01*
X69302D01*
X69257Y141933D01*
X69196D01*
X69085Y141939D01*
X68980Y141950D01*
X68880Y141961D01*
X68786Y141983D01*
X68697Y142011D01*
X68613Y142039D01*
X68536Y142067D01*
X68464Y142100D01*
X68403Y142128D01*
X68341Y142155D01*
X68297Y142183D01*
X68253Y142211D01*
X68225Y142233D01*
X68197Y142244D01*
X68186Y142255D01*
X68181Y142261D01*
X68103Y142327D01*
X68036Y142394D01*
X67975Y142472D01*
X67914Y142550D01*
X67814Y142705D01*
X67737Y142860D01*
X67703Y142932D01*
X67676Y142999D01*
X67653Y143060D01*
X67637Y143110D01*
X67620Y143154D01*
X67609Y143188D01*
X67603Y143210D01*
Y143216D01*
X68114Y143343D01*
X68136Y143254D01*
X68164Y143171D01*
X68192Y143093D01*
X68219Y143021D01*
X68253Y142955D01*
X68286Y142899D01*
X68325Y142844D01*
X68358Y142794D01*
X68386Y142749D01*
X68419Y142716D01*
X68447Y142683D01*
X68469Y142655D01*
X68491Y142638D01*
X68508Y142622D01*
X68514Y142616D01*
X68519Y142611D01*
X68575Y142566D01*
X68636Y142533D01*
X68758Y142472D01*
X68874Y142427D01*
X68991Y142400D01*
X69091Y142377D01*
X69130Y142372D01*
X69169D01*
X69202Y142366D01*
X69241D01*
X69368Y142372D01*
X69490Y142394D01*
X69601Y142422D01*
X69701Y142455D01*
X69779Y142488D01*
X69812Y142505D01*
X69840Y142516D01*
X69862Y142527D01*
X69879Y142538D01*
X69890Y142544D01*
X69896D01*
X70001Y142622D01*
X70090Y142705D01*
X70167Y142799D01*
X70228Y142888D01*
X70279Y142966D01*
X70312Y143032D01*
X70323Y143060D01*
X70334Y143077D01*
X70340Y143088D01*
Y143093D01*
X70384Y143238D01*
X70417Y143382D01*
X70445Y143526D01*
X70462Y143659D01*
X70467Y143720D01*
X70473Y143776D01*
Y143826D01*
X70478Y143865D01*
Y143898D01*
Y143926D01*
Y143942D01*
Y143948D01*
X70473Y144092D01*
X70462Y144226D01*
X70439Y144348D01*
X70417Y144459D01*
X70401Y144553D01*
X70389Y144592D01*
X70378Y144625D01*
X70373Y144653D01*
X70367Y144670D01*
X70362Y144681D01*
Y144686D01*
X70306Y144814D01*
X70245Y144930D01*
X70179Y145025D01*
X70106Y145108D01*
X70045Y145175D01*
X69995Y145219D01*
X69957Y145247D01*
X69951Y145258D01*
X69946D01*
X69829Y145330D01*
X69701Y145386D01*
X69579Y145424D01*
X69463Y145447D01*
X69357Y145463D01*
X69313Y145469D01*
X69274D01*
X69246Y145474D01*
X69202D01*
X69063Y145469D01*
X68935Y145447D01*
X68830Y145413D01*
X68736Y145380D01*
X68664Y145341D01*
X68608Y145313D01*
X68575Y145291D01*
X68563Y145280D01*
X68475Y145197D01*
X68392Y145102D01*
X68325Y145002D01*
X68269Y144903D01*
X68225Y144814D01*
X68208Y144770D01*
X68197Y144736D01*
X68186Y144708D01*
X68175Y144686D01*
X68169Y144675D01*
Y144670D01*
X67670Y144786D01*
X67703Y144886D01*
X67737Y144975D01*
X67781Y145058D01*
X67820Y145141D01*
X67864Y145213D01*
X67914Y145280D01*
X67959Y145347D01*
X68003Y145402D01*
X68047Y145447D01*
X68086Y145491D01*
X68125Y145530D01*
X68153Y145557D01*
X68181Y145585D01*
X68203Y145602D01*
X68214Y145607D01*
X68219Y145613D01*
X68297Y145663D01*
X68375Y145713D01*
X68453Y145752D01*
X68536Y145785D01*
X68702Y145835D01*
X68852Y145868D01*
X68924Y145885D01*
X68985Y145891D01*
X69046Y145896D01*
X69096Y145902D01*
X69135Y145907D01*
X69191D01*
X69374Y145896D01*
D02*
G37*
G36*
X66000Y145852D02*
X66094Y145846D01*
X66183Y145829D01*
X66266Y145813D01*
X66344Y145791D01*
X66416Y145768D01*
X66482Y145741D01*
X66543Y145713D01*
X66599Y145685D01*
X66643Y145657D01*
X66682Y145635D01*
X66715Y145613D01*
X66743Y145596D01*
X66760Y145580D01*
X66771Y145574D01*
X66776Y145569D01*
X66832Y145513D01*
X66882Y145452D01*
X66932Y145386D01*
X66971Y145319D01*
X67037Y145186D01*
X67082Y145053D01*
X67098Y144992D01*
X67115Y144930D01*
X67126Y144880D01*
X67137Y144836D01*
X67143Y144797D01*
Y144770D01*
X67148Y144753D01*
Y144747D01*
X66665Y144697D01*
X66654Y144825D01*
X66632Y144936D01*
X66599Y145036D01*
X66560Y145114D01*
X66527Y145180D01*
X66493Y145224D01*
X66471Y145252D01*
X66460Y145263D01*
X66377Y145330D01*
X66288Y145380D01*
X66194Y145419D01*
X66110Y145441D01*
X66033Y145458D01*
X65966Y145463D01*
X65944Y145469D01*
X65911D01*
X65794Y145463D01*
X65689Y145441D01*
X65600Y145408D01*
X65522Y145374D01*
X65461Y145335D01*
X65422Y145308D01*
X65395Y145286D01*
X65383Y145274D01*
X65317Y145197D01*
X65267Y145119D01*
X65228Y145041D01*
X65206Y144964D01*
X65189Y144903D01*
X65184Y144847D01*
X65178Y144814D01*
Y144808D01*
Y144803D01*
X65189Y144703D01*
X65211Y144597D01*
X65250Y144503D01*
X65289Y144414D01*
X65333Y144342D01*
X65372Y144281D01*
X65383Y144259D01*
X65395Y144242D01*
X65406Y144237D01*
Y144231D01*
X65450Y144170D01*
X65505Y144109D01*
X65566Y144042D01*
X65633Y143976D01*
X65772Y143843D01*
X65911Y143709D01*
X65983Y143648D01*
X66044Y143593D01*
X66105Y143543D01*
X66155Y143499D01*
X66194Y143465D01*
X66227Y143437D01*
X66249Y143421D01*
X66255Y143415D01*
X66394Y143299D01*
X66521Y143188D01*
X66627Y143088D01*
X66710Y143005D01*
X66782Y142932D01*
X66832Y142882D01*
X66860Y142849D01*
X66871Y142844D01*
Y142838D01*
X66948Y142744D01*
X67010Y142655D01*
X67065Y142566D01*
X67110Y142488D01*
X67143Y142422D01*
X67165Y142372D01*
X67176Y142339D01*
X67182Y142333D01*
Y142327D01*
X67204Y142266D01*
X67215Y142211D01*
X67226Y142155D01*
X67232Y142105D01*
X67237Y142061D01*
Y142028D01*
Y142006D01*
Y142000D01*
X64690D01*
Y142455D01*
X66582D01*
X66516Y142550D01*
X66482Y142588D01*
X66454Y142627D01*
X66427Y142660D01*
X66405Y142683D01*
X66388Y142699D01*
X66382Y142705D01*
X66355Y142733D01*
X66321Y142760D01*
X66244Y142833D01*
X66155Y142916D01*
X66061Y142999D01*
X65972Y143071D01*
X65933Y143104D01*
X65899Y143138D01*
X65872Y143160D01*
X65850Y143177D01*
X65838Y143188D01*
X65833Y143193D01*
X65744Y143271D01*
X65655Y143343D01*
X65578Y143415D01*
X65505Y143476D01*
X65439Y143537D01*
X65383Y143593D01*
X65328Y143643D01*
X65284Y143687D01*
X65239Y143732D01*
X65206Y143765D01*
X65178Y143793D01*
X65150Y143820D01*
X65123Y143854D01*
X65112Y143865D01*
X65034Y143959D01*
X64967Y144042D01*
X64912Y144126D01*
X64867Y144192D01*
X64834Y144253D01*
X64812Y144298D01*
X64801Y144325D01*
X64795Y144337D01*
X64762Y144420D01*
X64740Y144503D01*
X64717Y144581D01*
X64706Y144647D01*
X64701Y144708D01*
X64695Y144753D01*
Y144781D01*
Y144792D01*
X64701Y144875D01*
X64712Y144953D01*
X64723Y145030D01*
X64745Y145097D01*
X64801Y145230D01*
X64856Y145335D01*
X64889Y145386D01*
X64917Y145424D01*
X64945Y145463D01*
X64973Y145491D01*
X64995Y145513D01*
X65006Y145535D01*
X65017Y145541D01*
X65023Y145546D01*
X65084Y145602D01*
X65150Y145652D01*
X65223Y145691D01*
X65295Y145724D01*
X65439Y145780D01*
X65583Y145818D01*
X65644Y145829D01*
X65705Y145841D01*
X65761Y145846D01*
X65805Y145852D01*
X65844Y145857D01*
X65899D01*
X66000Y145852D01*
D02*
G37*
G36*
X64346Y143354D02*
Y142921D01*
X62675D01*
Y142000D01*
X62203D01*
Y142921D01*
X61682D01*
Y143354D01*
X62203D01*
Y145841D01*
X62586D01*
X64346Y143354D01*
D02*
G37*
G36*
X56297Y126846D02*
X56446Y126818D01*
X56574Y126774D01*
X56685Y126730D01*
X56735Y126702D01*
X56774Y126680D01*
X56813Y126657D01*
X56840Y126635D01*
X56863Y126619D01*
X56879Y126608D01*
X56890Y126602D01*
X56896Y126596D01*
X57001Y126491D01*
X57085Y126374D01*
X57151Y126252D01*
X57207Y126130D01*
X57240Y126025D01*
X57257Y125980D01*
X57268Y125942D01*
X57273Y125908D01*
X57279Y125886D01*
X57284Y125869D01*
Y125864D01*
X56813Y125780D01*
X56791Y125903D01*
X56757Y126008D01*
X56718Y126097D01*
X56679Y126169D01*
X56641Y126225D01*
X56607Y126263D01*
X56585Y126291D01*
X56580Y126297D01*
X56507Y126352D01*
X56430Y126397D01*
X56358Y126424D01*
X56286Y126447D01*
X56219Y126458D01*
X56169Y126469D01*
X56125D01*
X56025Y126463D01*
X55936Y126441D01*
X55858Y126413D01*
X55791Y126385D01*
X55742Y126352D01*
X55703Y126324D01*
X55675Y126302D01*
X55669Y126297D01*
X55608Y126230D01*
X55564Y126158D01*
X55536Y126086D01*
X55514Y126019D01*
X55503Y125958D01*
X55492Y125914D01*
Y125880D01*
Y125875D01*
Y125869D01*
Y125808D01*
X55503Y125753D01*
X55531Y125658D01*
X55570Y125575D01*
X55614Y125503D01*
X55658Y125453D01*
X55697Y125414D01*
X55725Y125392D01*
X55730Y125387D01*
X55736D01*
X55830Y125337D01*
X55919Y125298D01*
X56014Y125270D01*
X56097Y125253D01*
X56169Y125242D01*
X56230Y125231D01*
X56302D01*
X56324Y125237D01*
X56352D01*
X56408Y124820D01*
X56336Y124837D01*
X56269Y124848D01*
X56213Y124859D01*
X56163Y124865D01*
X56125Y124870D01*
X56075D01*
X55958Y124859D01*
X55853Y124837D01*
X55758Y124804D01*
X55681Y124765D01*
X55620Y124726D01*
X55575Y124693D01*
X55547Y124671D01*
X55536Y124659D01*
X55464Y124576D01*
X55409Y124487D01*
X55370Y124399D01*
X55348Y124310D01*
X55331Y124238D01*
X55325Y124177D01*
X55320Y124154D01*
Y124138D01*
Y124127D01*
Y124121D01*
X55331Y123999D01*
X55359Y123888D01*
X55392Y123794D01*
X55436Y123710D01*
X55481Y123644D01*
X55514Y123594D01*
X55542Y123561D01*
X55553Y123549D01*
X55642Y123472D01*
X55736Y123416D01*
X55830Y123377D01*
X55919Y123350D01*
X55997Y123333D01*
X56058Y123327D01*
X56080Y123322D01*
X56113D01*
X56213Y123327D01*
X56308Y123350D01*
X56391Y123377D01*
X56458Y123411D01*
X56513Y123438D01*
X56557Y123466D01*
X56580Y123488D01*
X56591Y123494D01*
X56657Y123572D01*
X56713Y123660D01*
X56763Y123755D01*
X56802Y123855D01*
X56829Y123938D01*
X56840Y123977D01*
X56846Y124010D01*
X56852Y124038D01*
X56857Y124060D01*
X56863Y124071D01*
Y124077D01*
X57335Y124016D01*
X57323Y123927D01*
X57307Y123844D01*
X57257Y123688D01*
X57196Y123555D01*
X57162Y123500D01*
X57129Y123444D01*
X57096Y123394D01*
X57063Y123355D01*
X57035Y123316D01*
X57007Y123289D01*
X56990Y123266D01*
X56974Y123250D01*
X56963Y123239D01*
X56957Y123233D01*
X56890Y123183D01*
X56824Y123133D01*
X56757Y123094D01*
X56685Y123061D01*
X56546Y123005D01*
X56413Y122972D01*
X56352Y122961D01*
X56297Y122950D01*
X56247Y122944D01*
X56202Y122939D01*
X56169Y122933D01*
X56119D01*
X56014Y122939D01*
X55919Y122950D01*
X55825Y122967D01*
X55736Y122989D01*
X55653Y123017D01*
X55581Y123044D01*
X55509Y123078D01*
X55448Y123111D01*
X55386Y123139D01*
X55336Y123172D01*
X55292Y123200D01*
X55259Y123228D01*
X55231Y123250D01*
X55209Y123266D01*
X55198Y123277D01*
X55192Y123283D01*
X55125Y123350D01*
X55070Y123422D01*
X55020Y123494D01*
X54976Y123566D01*
X54942Y123633D01*
X54909Y123705D01*
X54865Y123838D01*
X54854Y123899D01*
X54843Y123955D01*
X54831Y124004D01*
X54826Y124049D01*
X54820Y124082D01*
Y124110D01*
Y124127D01*
Y124132D01*
X54826Y124265D01*
X54848Y124388D01*
X54881Y124493D01*
X54915Y124582D01*
X54948Y124654D01*
X54981Y124709D01*
X55003Y124743D01*
X55009Y124754D01*
X55087Y124837D01*
X55170Y124909D01*
X55259Y124965D01*
X55348Y125009D01*
X55425Y125042D01*
X55486Y125065D01*
X55509Y125070D01*
X55525Y125076D01*
X55536Y125081D01*
X55542D01*
X55448Y125131D01*
X55370Y125181D01*
X55303Y125237D01*
X55248Y125287D01*
X55203Y125331D01*
X55170Y125370D01*
X55153Y125392D01*
X55148Y125403D01*
X55103Y125481D01*
X55070Y125558D01*
X55042Y125636D01*
X55026Y125708D01*
X55014Y125769D01*
X55009Y125814D01*
Y125847D01*
Y125858D01*
X55014Y125953D01*
X55031Y126047D01*
X55053Y126130D01*
X55081Y126202D01*
X55109Y126263D01*
X55131Y126313D01*
X55148Y126341D01*
X55153Y126352D01*
X55209Y126435D01*
X55275Y126508D01*
X55342Y126569D01*
X55409Y126624D01*
X55464Y126663D01*
X55514Y126696D01*
X55547Y126713D01*
X55553Y126718D01*
X55559D01*
X55658Y126763D01*
X55758Y126796D01*
X55858Y126824D01*
X55947Y126841D01*
X56019Y126852D01*
X56080Y126857D01*
X56219D01*
X56297Y126846D01*
D02*
G37*
%LPC*%
G36*
X63489Y126413D02*
X62279D01*
X62130Y126408D01*
X62002Y126385D01*
X61891Y126358D01*
X61808Y126324D01*
X61736Y126291D01*
X61691Y126263D01*
X61664Y126241D01*
X61652Y126236D01*
X61586Y126163D01*
X61536Y126091D01*
X61502Y126014D01*
X61475Y125947D01*
X61464Y125880D01*
X61458Y125830D01*
X61453Y125797D01*
Y125792D01*
Y125786D01*
X61458Y125719D01*
X61469Y125653D01*
X61486Y125597D01*
X61502Y125548D01*
X61525Y125503D01*
X61541Y125470D01*
X61552Y125448D01*
X61558Y125442D01*
X61597Y125387D01*
X61647Y125337D01*
X61697Y125298D01*
X61747Y125264D01*
X61791Y125242D01*
X61824Y125225D01*
X61847Y125215D01*
X61858Y125209D01*
X61935Y125187D01*
X62024Y125170D01*
X62113Y125159D01*
X62202Y125153D01*
X62279Y125148D01*
X62346Y125142D01*
X63489D01*
Y126413D01*
D02*
G37*
G36*
X502489Y97413D02*
X501279D01*
X501130Y97408D01*
X501002Y97386D01*
X500891Y97358D01*
X500808Y97325D01*
X500736Y97291D01*
X500691Y97263D01*
X500664Y97241D01*
X500652Y97236D01*
X500586Y97163D01*
X500536Y97091D01*
X500502Y97014D01*
X500475Y96947D01*
X500464Y96880D01*
X500458Y96830D01*
X500453Y96797D01*
Y96792D01*
Y96786D01*
X500458Y96719D01*
X500469Y96653D01*
X500486Y96597D01*
X500502Y96548D01*
X500525Y96503D01*
X500541Y96470D01*
X500553Y96448D01*
X500558Y96442D01*
X500597Y96386D01*
X500647Y96337D01*
X500697Y96298D01*
X500747Y96264D01*
X500791Y96242D01*
X500824Y96226D01*
X500847Y96214D01*
X500858Y96209D01*
X500935Y96187D01*
X501024Y96170D01*
X501113Y96159D01*
X501202Y96153D01*
X501279Y96148D01*
X501346Y96142D01*
X502489D01*
Y97413D01*
D02*
G37*
G36*
X62675Y145075D02*
Y143354D01*
X63885D01*
X62675Y145075D01*
D02*
G37*
%LPD*%
D55*
X478500Y92000D02*
Y100000D01*
X492500D01*
Y92000D02*
Y100000D01*
X478500Y92000D02*
X492500D01*
X53500Y134000D02*
X64500D01*
X53500Y128000D02*
Y134000D01*
Y128000D02*
X64500D01*
Y134000D01*
X71500Y135000D02*
Y141000D01*
X60500Y135000D02*
X71500D01*
X60500D02*
Y141000D01*
X71500D01*
M02*
