G04 Layer_Color=16711935*
%FSLAX25Y25*%
%MOIN*%
G70*
G01*
G75*
%ADD39C,0.06800*%
G04:AMPARAMS|DCode=58|XSize=33.59mil|YSize=41.47mil|CornerRadius=7.2mil|HoleSize=0mil|Usage=FLASHONLY|Rotation=180.000|XOffset=0mil|YOffset=0mil|HoleType=Round|Shape=RoundedRectangle|*
%AMROUNDEDRECTD58*
21,1,0.03359,0.02707,0,0,180.0*
21,1,0.01919,0.04147,0,0,180.0*
1,1,0.01440,-0.00960,0.01353*
1,1,0.01440,0.00960,0.01353*
1,1,0.01440,0.00960,-0.01353*
1,1,0.01440,-0.00960,-0.01353*
%
%ADD58ROUNDEDRECTD58*%
G04:AMPARAMS|DCode=64|XSize=47.37mil|YSize=59.18mil|CornerRadius=8.92mil|HoleSize=0mil|Usage=FLASHONLY|Rotation=180.000|XOffset=0mil|YOffset=0mil|HoleType=Round|Shape=RoundedRectangle|*
%AMROUNDEDRECTD64*
21,1,0.04737,0.04134,0,0,180.0*
21,1,0.02953,0.05918,0,0,180.0*
1,1,0.01784,-0.01476,0.02067*
1,1,0.01784,0.01476,0.02067*
1,1,0.01784,0.01476,-0.02067*
1,1,0.01784,-0.01476,-0.02067*
%
%ADD64ROUNDEDRECTD64*%
G04:AMPARAMS|DCode=75|XSize=64.22mil|YSize=64.22mil|CornerRadius=12.43mil|HoleSize=0mil|Usage=FLASHONLY|Rotation=180.000|XOffset=0mil|YOffset=0mil|HoleType=Round|Shape=RoundedRectangle|*
%AMROUNDEDRECTD75*
21,1,0.06422,0.03935,0,0,180.0*
21,1,0.03935,0.06422,0,0,180.0*
1,1,0.02487,-0.01968,0.01968*
1,1,0.02487,0.01968,0.01968*
1,1,0.02487,0.01968,-0.01968*
1,1,0.02487,-0.01968,-0.01968*
%
%ADD75ROUNDEDRECTD75*%
%ADD76C,0.06422*%
%ADD77C,0.13855*%
%ADD78C,0.07600*%
G04:AMPARAMS|DCode=79|XSize=76mil|YSize=76mil|CornerRadius=14.2mil|HoleSize=0mil|Usage=FLASHONLY|Rotation=270.000|XOffset=0mil|YOffset=0mil|HoleType=Round|Shape=RoundedRectangle|*
%AMROUNDEDRECTD79*
21,1,0.07600,0.04760,0,0,270.0*
21,1,0.04760,0.07600,0,0,270.0*
1,1,0.02840,-0.02380,-0.02380*
1,1,0.02840,-0.02380,0.02380*
1,1,0.02840,0.02380,0.02380*
1,1,0.02840,0.02380,-0.02380*
%
%ADD79ROUNDEDRECTD79*%
%ADD80C,0.23241*%
%ADD81C,0.03556*%
G04:AMPARAMS|DCode=82|XSize=68mil|YSize=68mil|CornerRadius=13mil|HoleSize=0mil|Usage=FLASHONLY|Rotation=90.000|XOffset=0mil|YOffset=0mil|HoleType=Round|Shape=RoundedRectangle|*
%AMROUNDEDRECTD82*
21,1,0.06800,0.04200,0,0,90.0*
21,1,0.04200,0.06800,0,0,90.0*
1,1,0.02600,0.02100,0.02100*
1,1,0.02600,0.02100,-0.02100*
1,1,0.02600,-0.02100,-0.02100*
1,1,0.02600,-0.02100,0.02100*
%
%ADD82ROUNDEDRECTD82*%
G04:AMPARAMS|DCode=83|XSize=68mil|YSize=68mil|CornerRadius=19mil|HoleSize=0mil|Usage=FLASHONLY|Rotation=90.000|XOffset=0mil|YOffset=0mil|HoleType=Round|Shape=RoundedRectangle|*
%AMROUNDEDRECTD83*
21,1,0.06800,0.03000,0,0,90.0*
21,1,0.03000,0.06800,0,0,90.0*
1,1,0.03800,0.01500,0.01500*
1,1,0.03800,0.01500,-0.01500*
1,1,0.03800,-0.01500,-0.01500*
1,1,0.03800,-0.01500,0.01500*
%
%ADD83ROUNDEDRECTD83*%
G04:AMPARAMS|DCode=84|XSize=102.49mil|YSize=102.49mil|CornerRadius=15.81mil|HoleSize=0mil|Usage=FLASHONLY|Rotation=270.000|XOffset=0mil|YOffset=0mil|HoleType=Round|Shape=RoundedRectangle|*
%AMROUNDEDRECTD84*
21,1,0.10249,0.07087,0,0,270.0*
21,1,0.07087,0.10249,0,0,270.0*
1,1,0.03162,-0.03543,-0.03543*
1,1,0.03162,-0.03543,0.03543*
1,1,0.03162,0.03543,0.03543*
1,1,0.03162,0.03543,-0.03543*
%
%ADD84ROUNDEDRECTD84*%
%ADD85C,0.10249*%
D39*
X523000Y106000D02*
D03*
Y126000D02*
D03*
Y146000D02*
D03*
X493000D02*
D03*
Y126000D02*
D03*
Y106000D02*
D03*
Y76000D02*
D03*
X203000Y69000D02*
D03*
X213000Y79000D02*
D03*
X565000Y69772D02*
D03*
X450000D02*
D03*
D58*
X56047Y131000D02*
D03*
X61953D02*
D03*
X68953Y138000D02*
D03*
X63047D02*
D03*
D64*
X489437Y96000D02*
D03*
X481563D02*
D03*
D75*
X69079Y122728D02*
D03*
D76*
Y130602D02*
D03*
X78921D02*
D03*
Y122728D02*
D03*
D77*
X97701Y141272D02*
D03*
X50299D02*
D03*
D78*
X148000Y86000D02*
D03*
X158000D02*
D03*
X168000D02*
D03*
X325000Y150000D02*
D03*
X315000D02*
D03*
X305000D02*
D03*
X335000D02*
D03*
X263000D02*
D03*
X253000D02*
D03*
X243000D02*
D03*
X273000D02*
D03*
X73000Y47000D02*
D03*
X273000D02*
D03*
X263000D02*
D03*
X243000D02*
D03*
X213000D02*
D03*
X223000D02*
D03*
X233000D02*
D03*
X253000D02*
D03*
X283000D02*
D03*
X293000D02*
D03*
X303000D02*
D03*
X313000D02*
D03*
X323000D02*
D03*
X333000D02*
D03*
X343000D02*
D03*
X353000D02*
D03*
X193000D02*
D03*
X173000D02*
D03*
X153000D02*
D03*
X133000D02*
D03*
X113000D02*
D03*
X93000D02*
D03*
X453000D02*
D03*
X433000D02*
D03*
X373000D02*
D03*
X413000D02*
D03*
X393000D02*
D03*
X594000D02*
D03*
X400000Y150000D02*
D03*
X390000D02*
D03*
X380000D02*
D03*
X410000D02*
D03*
X53000Y47000D02*
D03*
D79*
X138000Y86000D02*
D03*
X295000Y150000D02*
D03*
X233000D02*
D03*
X63000Y47000D02*
D03*
X203000D02*
D03*
X183000D02*
D03*
X163000D02*
D03*
X143000D02*
D03*
X123000D02*
D03*
X103000D02*
D03*
X83000D02*
D03*
X443000D02*
D03*
X423000D02*
D03*
X363000D02*
D03*
X403000D02*
D03*
X383000D02*
D03*
X584000D02*
D03*
X370000Y150000D02*
D03*
X43000Y47000D02*
D03*
D80*
X370079Y98425D02*
D03*
X622047D02*
D03*
X15748D02*
D03*
D81*
X361811D02*
D03*
X364279Y104225D02*
D03*
X370079Y106693D02*
D03*
X375879Y104225D02*
D03*
X378346Y98425D02*
D03*
X375979Y92525D02*
D03*
X370079Y90158D02*
D03*
X364179Y92625D02*
D03*
X613779Y98425D02*
D03*
X616247Y104225D02*
D03*
X622047Y106693D02*
D03*
X627847Y104225D02*
D03*
X630315Y98425D02*
D03*
X627947Y92525D02*
D03*
X622047Y90158D02*
D03*
X616147Y92625D02*
D03*
X7480Y98425D02*
D03*
X9948Y104225D02*
D03*
X15748Y106693D02*
D03*
X21548Y104225D02*
D03*
X24016Y98425D02*
D03*
X21648Y92525D02*
D03*
X15748Y90158D02*
D03*
X9848Y92625D02*
D03*
D82*
X523000Y76000D02*
D03*
D83*
X213000Y59000D02*
D03*
D84*
X542559Y138000D02*
D03*
X427559D02*
D03*
D85*
X542559Y88000D02*
D03*
Y113000D02*
D03*
X587441Y138000D02*
D03*
Y88000D02*
D03*
Y113000D02*
D03*
X472441D02*
D03*
Y88000D02*
D03*
Y138000D02*
D03*
X427559Y113000D02*
D03*
Y88000D02*
D03*
M02*
