G04 Layer_Color=128*
%FSLAX25Y25*%
%MOIN*%
G70*
G01*
G75*
%ADD86C,0.00200*%
D86*
X67268Y122728D02*
X70890D01*
X69079Y120917D02*
Y124539D01*
X67268Y130602D02*
X70890D01*
X69079Y128791D02*
Y132413D01*
X93173Y141272D02*
X102228D01*
X97701Y136744D02*
Y145799D01*
X45772Y141272D02*
X54827D01*
X50299Y136744D02*
Y145799D01*
X77110Y130602D02*
X80732D01*
X78921Y128791D02*
Y132413D01*
X77110Y122728D02*
X80732D01*
X78921Y120917D02*
Y124539D01*
X146000Y86000D02*
X150000D01*
X148000Y84000D02*
Y88000D01*
X136000Y86000D02*
X140000D01*
X138000Y84000D02*
Y88000D01*
X156000Y86000D02*
X160000D01*
X158000Y84000D02*
Y88000D01*
X166000Y86000D02*
X170000D01*
X168000Y84000D02*
Y88000D01*
X323000Y150000D02*
X327000D01*
X325000Y148000D02*
Y152000D01*
X313000Y150000D02*
X317000D01*
X315000Y148000D02*
Y152000D01*
X293000Y150000D02*
X297000D01*
X295000Y148000D02*
Y152000D01*
X303000Y150000D02*
X307000D01*
X305000Y148000D02*
Y152000D01*
X333000Y150000D02*
X337000D01*
X335000Y148000D02*
Y152000D01*
X261000Y150000D02*
X265000D01*
X263000Y148000D02*
Y152000D01*
X251000Y150000D02*
X255000D01*
X253000Y148000D02*
Y152000D01*
X231000Y150000D02*
X235000D01*
X233000Y148000D02*
Y152000D01*
X241000Y150000D02*
X245000D01*
X243000Y148000D02*
Y152000D01*
X271000Y150000D02*
X275000D01*
X273000Y148000D02*
Y152000D01*
X364173Y98425D02*
X375984D01*
X370079Y92520D02*
Y104331D01*
X360827Y98425D02*
X362795D01*
X361811Y97441D02*
Y99410D01*
X363295Y104225D02*
X365263D01*
X364279Y103241D02*
Y105209D01*
X369094Y106693D02*
X371063D01*
X370079Y105709D02*
Y107677D01*
X374894Y104225D02*
X376863D01*
X375879Y103241D02*
Y105209D01*
X377362Y98425D02*
X379331D01*
X378346Y97441D02*
Y99410D01*
X374994Y92525D02*
X376963D01*
X375979Y91541D02*
Y93510D01*
X369094Y90158D02*
X371063D01*
X370079Y89173D02*
Y91142D01*
X363194Y92625D02*
X365163D01*
X364179Y91641D02*
Y93609D01*
X616142Y98425D02*
X627953D01*
X622047Y92520D02*
Y104331D01*
X612795Y98425D02*
X614764D01*
X613779Y97441D02*
Y99410D01*
X615263Y104225D02*
X617232D01*
X616247Y103241D02*
Y105209D01*
X621063Y106693D02*
X623032D01*
X622047Y105709D02*
Y107677D01*
X626863Y104225D02*
X628831D01*
X627847Y103241D02*
Y105209D01*
X629331Y98425D02*
X631299D01*
X630315Y97441D02*
Y99410D01*
X626963Y92525D02*
X628932D01*
X627947Y91541D02*
Y93510D01*
X621063Y90158D02*
X623032D01*
X622047Y89173D02*
Y91142D01*
X615163Y92625D02*
X617132D01*
X616147Y91641D02*
Y93609D01*
X9843Y98425D02*
X21654D01*
X15748Y92520D02*
Y104331D01*
X6496Y98425D02*
X8465D01*
X7480Y97441D02*
Y99410D01*
X8964Y104225D02*
X10932D01*
X9948Y103241D02*
Y105209D01*
X14764Y106693D02*
X16732D01*
X15748Y105709D02*
Y107677D01*
X20564Y104225D02*
X22532D01*
X21548Y103241D02*
Y105209D01*
X23031Y98425D02*
X25000D01*
X24016Y97441D02*
Y99410D01*
X20664Y92525D02*
X22632D01*
X21648Y91541D02*
Y93510D01*
X14764Y90158D02*
X16732D01*
X15748Y89173D02*
Y91142D01*
X8864Y92625D02*
X10832D01*
X9848Y91641D02*
Y93609D01*
X61000Y47000D02*
X65000D01*
X63000Y45000D02*
Y49000D01*
X71000Y47000D02*
X75000D01*
X73000Y45000D02*
Y49000D01*
X521000Y76000D02*
X525000D01*
X523000Y74000D02*
Y78000D01*
X521000Y106000D02*
X525000D01*
X523000Y104000D02*
Y108000D01*
X521000Y126000D02*
X525000D01*
X523000Y124000D02*
Y128000D01*
X521000Y146000D02*
X525000D01*
X523000Y144000D02*
Y148000D01*
X491000Y146000D02*
X495000D01*
X493000Y144000D02*
Y148000D01*
X491000Y126000D02*
X495000D01*
X493000Y124000D02*
Y128000D01*
X491000Y106000D02*
X495000D01*
X493000Y104000D02*
Y108000D01*
X491000Y76000D02*
X495000D01*
X493000Y74000D02*
Y78000D01*
X201500Y69000D02*
X204500D01*
X203000Y67500D02*
Y70500D01*
X211500Y59000D02*
X214500D01*
X213000Y57500D02*
Y60500D01*
X211500Y79000D02*
X214500D01*
X213000Y77500D02*
Y80500D01*
X271000Y47000D02*
X275000D01*
X273000Y45000D02*
Y49000D01*
X261000Y47000D02*
X265000D01*
X263000Y45000D02*
Y49000D01*
X241000Y47000D02*
X245000D01*
X243000Y45000D02*
Y49000D01*
X211000Y47000D02*
X215000D01*
X213000Y45000D02*
Y49000D01*
X201000Y47000D02*
X205000D01*
X203000Y45000D02*
Y49000D01*
X221000Y47000D02*
X225000D01*
X223000Y45000D02*
Y49000D01*
X231000Y47000D02*
X235000D01*
X233000Y45000D02*
Y49000D01*
X251000Y47000D02*
X255000D01*
X253000Y45000D02*
Y49000D01*
X281000Y47000D02*
X285000D01*
X283000Y45000D02*
Y49000D01*
X291000Y47000D02*
X295000D01*
X293000Y45000D02*
Y49000D01*
X301000Y47000D02*
X305000D01*
X303000Y45000D02*
Y49000D01*
X311000Y47000D02*
X315000D01*
X313000Y45000D02*
Y49000D01*
X321000Y47000D02*
X325000D01*
X323000Y45000D02*
Y49000D01*
X331000Y47000D02*
X335000D01*
X333000Y45000D02*
Y49000D01*
X341000Y47000D02*
X345000D01*
X343000Y45000D02*
Y49000D01*
X351000Y47000D02*
X355000D01*
X353000Y45000D02*
Y49000D01*
X191000Y47000D02*
X195000D01*
X193000Y45000D02*
Y49000D01*
X181000Y47000D02*
X185000D01*
X183000Y45000D02*
Y49000D01*
X161000Y47000D02*
X165000D01*
X163000Y45000D02*
Y49000D01*
X171000Y47000D02*
X175000D01*
X173000Y45000D02*
Y49000D01*
X151000Y47000D02*
X155000D01*
X153000Y45000D02*
Y49000D01*
X141000Y47000D02*
X145000D01*
X143000Y45000D02*
Y49000D01*
X121000Y47000D02*
X125000D01*
X123000Y45000D02*
Y49000D01*
X131000Y47000D02*
X135000D01*
X133000Y45000D02*
Y49000D01*
X111000Y47000D02*
X115000D01*
X113000Y45000D02*
Y49000D01*
X101000Y47000D02*
X105000D01*
X103000Y45000D02*
Y49000D01*
X81000Y47000D02*
X85000D01*
X83000Y45000D02*
Y49000D01*
X91000Y47000D02*
X95000D01*
X93000Y45000D02*
Y49000D01*
X451000Y47000D02*
X455000D01*
X453000Y45000D02*
Y49000D01*
X441000Y47000D02*
X445000D01*
X443000Y45000D02*
Y49000D01*
X421000Y47000D02*
X425000D01*
X423000Y45000D02*
Y49000D01*
X431000Y47000D02*
X435000D01*
X433000Y45000D02*
Y49000D01*
X371000Y47000D02*
X375000D01*
X373000Y45000D02*
Y49000D01*
X361000Y47000D02*
X365000D01*
X363000Y45000D02*
Y49000D01*
X401000Y47000D02*
X405000D01*
X403000Y45000D02*
Y49000D01*
X411000Y47000D02*
X415000D01*
X413000Y45000D02*
Y49000D01*
X391000Y47000D02*
X395000D01*
X393000Y45000D02*
Y49000D01*
X381000Y47000D02*
X385000D01*
X383000Y45000D02*
Y49000D01*
X582000Y47000D02*
X586000D01*
X584000Y45000D02*
Y49000D01*
X592000Y47000D02*
X596000D01*
X594000Y45000D02*
Y49000D01*
X398000Y150000D02*
X402000D01*
X400000Y148000D02*
Y152000D01*
X388000Y150000D02*
X392000D01*
X390000Y148000D02*
Y152000D01*
X368000Y150000D02*
X372000D01*
X370000Y148000D02*
Y152000D01*
X378000Y150000D02*
X382000D01*
X380000Y148000D02*
Y152000D01*
X408000Y150000D02*
X412000D01*
X410000Y148000D02*
Y152000D01*
X51000Y47000D02*
X55000D01*
X53000Y45000D02*
Y49000D01*
X41000Y47000D02*
X45000D01*
X43000Y45000D02*
Y49000D01*
X560866Y69772D02*
X569134D01*
X565000Y65638D02*
Y73905D01*
X539508Y138000D02*
X545610D01*
X542559Y134949D02*
Y141051D01*
X539508Y88000D02*
X545610D01*
X542559Y84949D02*
Y91051D01*
X539508Y113000D02*
X545610D01*
X542559Y109949D02*
Y116051D01*
X584390Y138000D02*
X590492D01*
X587441Y134949D02*
Y141051D01*
X584390Y88000D02*
X590492D01*
X587441Y84949D02*
Y91051D01*
X584390Y113000D02*
X590492D01*
X587441Y109949D02*
Y116051D01*
X469390Y113000D02*
X475492D01*
X472441Y109949D02*
Y116051D01*
X469390Y88000D02*
X475492D01*
X472441Y84949D02*
Y91051D01*
X469390Y138000D02*
X475492D01*
X472441Y134949D02*
Y141051D01*
X424508Y113000D02*
X430610D01*
X427559Y109949D02*
Y116051D01*
X424508Y88000D02*
X430610D01*
X427559Y84949D02*
Y91051D01*
X424508Y138000D02*
X430610D01*
X427559Y134949D02*
Y141051D01*
X445866Y69772D02*
X454134D01*
X450000Y65638D02*
Y73905D01*
X421016Y59000D02*
X422984D01*
X422000Y58016D02*
Y59984D01*
X425016Y59000D02*
X426984D01*
X426000Y58016D02*
Y59984D01*
X547016Y70000D02*
X548984D01*
X548000Y69016D02*
Y70984D01*
X581016Y70000D02*
X582984D01*
X582000Y69016D02*
Y70984D01*
X466016Y70000D02*
X467984D01*
X467000Y69016D02*
Y70984D01*
X432016Y70000D02*
X433984D01*
X433000Y69016D02*
Y70984D01*
X159016Y151000D02*
X160984D01*
X160000Y150016D02*
Y151984D01*
X197016Y107000D02*
X198984D01*
X198000Y106016D02*
Y107984D01*
X303016Y117000D02*
X304984D01*
X304000Y116016D02*
Y117984D01*
X307016Y129000D02*
X308984D01*
X308000Y128016D02*
Y129984D01*
X312016Y93000D02*
X313984D01*
X313000Y92016D02*
Y93984D01*
X299016Y105000D02*
X300984D01*
X300000Y104016D02*
Y105984D01*
X288016Y114000D02*
X289984D01*
X289000Y113016D02*
Y114984D01*
X312016Y122000D02*
X313984D01*
X313000Y121016D02*
Y122984D01*
X294016Y110000D02*
X295984D01*
X295000Y109016D02*
Y110984D01*
X266016Y127000D02*
X267984D01*
X267000Y126016D02*
Y127984D01*
X257016Y136000D02*
X258984D01*
X258000Y135016D02*
Y136984D01*
X287016Y143000D02*
X288984D01*
X288000Y142016D02*
Y143984D01*
X272016Y105000D02*
X273984D01*
X273000Y104016D02*
Y105984D01*
X244016Y130000D02*
X245984D01*
X245000Y129016D02*
Y130984D01*
X334016Y111000D02*
X335984D01*
X335000Y110016D02*
Y111984D01*
X173016Y153000D02*
X174984D01*
X174000Y152016D02*
Y153984D01*
X164016Y153000D02*
X165984D01*
X165000Y152016D02*
Y153984D01*
X333016Y89000D02*
X334984D01*
X334000Y88016D02*
Y89984D01*
X333016Y83000D02*
X334984D01*
X334000Y82016D02*
Y83984D01*
X205016Y142000D02*
X206984D01*
X206000Y141016D02*
Y142984D01*
X523016Y45000D02*
X524984D01*
X524000Y44016D02*
Y45984D01*
X509016Y45000D02*
X510984D01*
X510000Y44016D02*
Y45984D01*
X152016Y109000D02*
X153984D01*
X153000Y108016D02*
Y109984D01*
X167016Y126000D02*
X168984D01*
X168000Y125016D02*
Y126984D01*
X183016Y126000D02*
X184984D01*
X184000Y125016D02*
Y126984D01*
X175016Y126000D02*
X176984D01*
X176000Y125016D02*
Y126984D01*
X167016Y118000D02*
X168984D01*
X168000Y117016D02*
Y118984D01*
X183016Y118000D02*
X184984D01*
X184000Y117016D02*
Y118984D01*
X175016Y118000D02*
X176984D01*
X176000Y117016D02*
Y118984D01*
X175016Y134000D02*
X176984D01*
X176000Y133016D02*
Y134984D01*
X183016Y134000D02*
X184984D01*
X184000Y133016D02*
Y134984D01*
X167016Y134000D02*
X168984D01*
X168000Y133016D02*
Y134984D01*
X116016Y114000D02*
X117984D01*
X117000Y113016D02*
Y114984D01*
X387016Y130500D02*
X388984D01*
X388000Y129516D02*
Y131484D01*
X369016Y130500D02*
X370984D01*
X370000Y129516D02*
Y131484D01*
X325016Y86000D02*
X326984D01*
X326000Y85016D02*
Y86984D01*
X300063Y74000D02*
X302031D01*
X301047Y73016D02*
Y74984D01*
X233016Y76000D02*
X234984D01*
X234000Y75016D02*
Y76984D01*
X271516Y87000D02*
X273484D01*
X272500Y86016D02*
Y87984D01*
X271516Y65000D02*
X273484D01*
X272500Y64016D02*
Y65984D01*
X375016Y60000D02*
X376984D01*
X376000Y59016D02*
Y60984D01*
X333016Y60000D02*
X334984D01*
X334000Y59016D02*
Y60984D01*
X339016Y71500D02*
X340984D01*
X340000Y70516D02*
Y72484D01*
X381016Y71500D02*
X382984D01*
X382000Y70516D02*
Y72484D01*
X363016Y121000D02*
X364984D01*
X364000Y120016D02*
Y121984D01*
X375016Y83000D02*
X376984D01*
X376000Y82016D02*
Y83984D01*
X133016Y126000D02*
X134984D01*
X134000Y125016D02*
Y126984D01*
X91016Y90000D02*
X92984D01*
X92000Y89016D02*
Y90984D01*
X91016Y108000D02*
X92984D01*
X92000Y107016D02*
Y108984D01*
X59016Y105000D02*
X60984D01*
X60000Y104016D02*
Y105984D01*
X59016Y112000D02*
X60984D01*
X60000Y111016D02*
Y112984D01*
X69016Y84000D02*
X70984D01*
X70000Y83016D02*
Y84984D01*
X108016Y64000D02*
X109984D01*
X109000Y63016D02*
Y64984D01*
X121016Y64000D02*
X122984D01*
X122000Y63016D02*
Y64984D01*
X134016Y64000D02*
X135984D01*
X135000Y63016D02*
Y64984D01*
X147016Y64000D02*
X148984D01*
X148000Y63016D02*
Y64984D01*
X160016Y64000D02*
X161984D01*
X161000Y63016D02*
Y64984D01*
X173016Y64000D02*
X174984D01*
X174000Y63016D02*
Y64984D01*
X219016Y142000D02*
X220984D01*
X220000Y141016D02*
Y142984D01*
X212016Y142000D02*
X213984D01*
X213000Y141016D02*
Y142984D01*
X198016Y142000D02*
X199984D01*
X199000Y141016D02*
Y142984D01*
X473016Y45000D02*
X474984D01*
X474000Y44016D02*
Y45984D01*
X112016Y145000D02*
X113984D01*
X113000Y144016D02*
Y145984D01*
X411016Y103000D02*
X412984D01*
X412000Y102016D02*
Y103984D01*
X112016Y139000D02*
X113984D01*
X113000Y138016D02*
Y139984D01*
X223016Y87000D02*
X224984D01*
X224000Y86016D02*
Y87984D01*
X130016Y109000D02*
X131984D01*
X131000Y108016D02*
Y109984D01*
X224016Y132000D02*
X225984D01*
X225000Y131016D02*
Y132984D01*
X230016Y126000D02*
X231984D01*
X231000Y125016D02*
Y126984D01*
X218016Y126000D02*
X219984D01*
X219000Y125016D02*
Y126984D01*
X224016Y120000D02*
X225984D01*
X225000Y119016D02*
Y120984D01*
X227016Y65000D02*
X228984D01*
X228000Y64016D02*
Y65984D01*
X281016Y93000D02*
X282984D01*
X282000Y92016D02*
Y93984D01*
X334016Y98000D02*
X335984D01*
X335000Y97016D02*
Y98984D01*
X154016Y142000D02*
X155984D01*
X155000Y141016D02*
Y142984D01*
X147016Y154000D02*
X148984D01*
X148000Y153016D02*
Y154984D01*
X52016Y76000D02*
X53984D01*
X53000Y75016D02*
Y76984D01*
X143016Y102000D02*
X144984D01*
X144000Y101016D02*
Y102984D01*
X302016Y63000D02*
X303984D01*
X303000Y62016D02*
Y63984D01*
X295016Y133000D02*
X296984D01*
X296000Y132016D02*
Y133984D01*
X399016Y115000D02*
X400984D01*
X400000Y114016D02*
Y115984D01*
X409016Y115000D02*
X410984D01*
X410000Y114016D02*
Y115984D01*
X402016Y87000D02*
X403984D01*
X403000Y86016D02*
Y87984D01*
X409016Y87000D02*
X410984D01*
X410000Y86016D02*
Y87984D01*
M02*
