G04 Layer_Physical_Order=1*
G04 Layer_Color=255*
%FSLAX25Y25*%
%MOIN*%
G70*
G01*
G75*
%ADD10C,0.05905*%
G04:AMPARAMS|DCode=11|XSize=25.59mil|YSize=33.47mil|CornerRadius=3.2mil|HoleSize=0mil|Usage=FLASHONLY|Rotation=270.000|XOffset=0mil|YOffset=0mil|HoleType=Round|Shape=RoundedRectangle|*
%AMROUNDEDRECTD11*
21,1,0.02559,0.02707,0,0,270.0*
21,1,0.01919,0.03347,0,0,270.0*
1,1,0.00640,-0.01353,-0.00960*
1,1,0.00640,-0.01353,0.00960*
1,1,0.00640,0.01353,0.00960*
1,1,0.00640,0.01353,-0.00960*
%
%ADD11ROUNDEDRECTD11*%
G04:AMPARAMS|DCode=12|XSize=25.59mil|YSize=33.47mil|CornerRadius=3.2mil|HoleSize=0mil|Usage=FLASHONLY|Rotation=180.000|XOffset=0mil|YOffset=0mil|HoleType=Round|Shape=RoundedRectangle|*
%AMROUNDEDRECTD12*
21,1,0.02559,0.02707,0,0,180.0*
21,1,0.01919,0.03347,0,0,180.0*
1,1,0.00640,-0.00960,0.01353*
1,1,0.00640,0.00960,0.01353*
1,1,0.00640,0.00960,-0.01353*
1,1,0.00640,-0.00960,-0.01353*
%
%ADD12ROUNDEDRECTD12*%
G04:AMPARAMS|DCode=13|XSize=23.62mil|YSize=43.31mil|CornerRadius=5.91mil|HoleSize=0mil|Usage=FLASHONLY|Rotation=90.000|XOffset=0mil|YOffset=0mil|HoleType=Round|Shape=RoundedRectangle|*
%AMROUNDEDRECTD13*
21,1,0.02362,0.03150,0,0,90.0*
21,1,0.01181,0.04331,0,0,90.0*
1,1,0.01181,0.01575,0.00591*
1,1,0.01181,0.01575,-0.00591*
1,1,0.01181,-0.01575,-0.00591*
1,1,0.01181,-0.01575,0.00591*
%
%ADD13ROUNDEDRECTD13*%
G04:AMPARAMS|DCode=14|XSize=31.5mil|YSize=38.19mil|CornerRadius=7.87mil|HoleSize=0mil|Usage=FLASHONLY|Rotation=180.000|XOffset=0mil|YOffset=0mil|HoleType=Round|Shape=RoundedRectangle|*
%AMROUNDEDRECTD14*
21,1,0.03150,0.02244,0,0,180.0*
21,1,0.01575,0.03819,0,0,180.0*
1,1,0.01575,-0.00787,0.01122*
1,1,0.01575,0.00787,0.01122*
1,1,0.01575,0.00787,-0.01122*
1,1,0.01575,-0.00787,-0.01122*
%
%ADD14ROUNDEDRECTD14*%
G04:AMPARAMS|DCode=15|XSize=19.68mil|YSize=23.62mil|CornerRadius=2.46mil|HoleSize=0mil|Usage=FLASHONLY|Rotation=90.000|XOffset=0mil|YOffset=0mil|HoleType=Round|Shape=RoundedRectangle|*
%AMROUNDEDRECTD15*
21,1,0.01968,0.01870,0,0,90.0*
21,1,0.01476,0.02362,0,0,90.0*
1,1,0.00492,0.00935,0.00738*
1,1,0.00492,0.00935,-0.00738*
1,1,0.00492,-0.00935,-0.00738*
1,1,0.00492,-0.00935,0.00738*
%
%ADD15ROUNDEDRECTD15*%
G04:AMPARAMS|DCode=16|XSize=127.95mil|YSize=84.65mil|CornerRadius=10.58mil|HoleSize=0mil|Usage=FLASHONLY|Rotation=90.000|XOffset=0mil|YOffset=0mil|HoleType=Round|Shape=RoundedRectangle|*
%AMROUNDEDRECTD16*
21,1,0.12795,0.06348,0,0,90.0*
21,1,0.10679,0.08465,0,0,90.0*
1,1,0.02116,0.03174,0.05340*
1,1,0.02116,0.03174,-0.05340*
1,1,0.02116,-0.03174,-0.05340*
1,1,0.02116,-0.03174,0.05340*
%
%ADD16ROUNDEDRECTD16*%
G04:AMPARAMS|DCode=17|XSize=37.4mil|YSize=84.65mil|CornerRadius=9.35mil|HoleSize=0mil|Usage=FLASHONLY|Rotation=90.000|XOffset=0mil|YOffset=0mil|HoleType=Round|Shape=RoundedRectangle|*
%AMROUNDEDRECTD17*
21,1,0.03740,0.06594,0,0,90.0*
21,1,0.01870,0.08465,0,0,90.0*
1,1,0.01870,0.03297,0.00935*
1,1,0.01870,0.03297,-0.00935*
1,1,0.01870,-0.03297,-0.00935*
1,1,0.01870,-0.03297,0.00935*
%
%ADD17ROUNDEDRECTD17*%
G04:AMPARAMS|DCode=18|XSize=39.37mil|YSize=51.18mil|CornerRadius=4.92mil|HoleSize=0mil|Usage=FLASHONLY|Rotation=180.000|XOffset=0mil|YOffset=0mil|HoleType=Round|Shape=RoundedRectangle|*
%AMROUNDEDRECTD18*
21,1,0.03937,0.04134,0,0,180.0*
21,1,0.02953,0.05118,0,0,180.0*
1,1,0.00984,-0.01476,0.02067*
1,1,0.00984,0.01476,0.02067*
1,1,0.00984,0.01476,-0.02067*
1,1,0.00984,-0.01476,-0.02067*
%
%ADD18ROUNDEDRECTD18*%
G04:AMPARAMS|DCode=19|XSize=39.37mil|YSize=51.18mil|CornerRadius=4.92mil|HoleSize=0mil|Usage=FLASHONLY|Rotation=270.000|XOffset=0mil|YOffset=0mil|HoleType=Round|Shape=RoundedRectangle|*
%AMROUNDEDRECTD19*
21,1,0.03937,0.04134,0,0,270.0*
21,1,0.02953,0.05118,0,0,270.0*
1,1,0.00984,-0.02067,-0.01476*
1,1,0.00984,-0.02067,0.01476*
1,1,0.00984,0.02067,0.01476*
1,1,0.00984,0.02067,-0.01476*
%
%ADD19ROUNDEDRECTD19*%
G04:AMPARAMS|DCode=20|XSize=39.37mil|YSize=62.99mil|CornerRadius=4.92mil|HoleSize=0mil|Usage=FLASHONLY|Rotation=270.000|XOffset=0mil|YOffset=0mil|HoleType=Round|Shape=RoundedRectangle|*
%AMROUNDEDRECTD20*
21,1,0.03937,0.05315,0,0,270.0*
21,1,0.02953,0.06299,0,0,270.0*
1,1,0.00984,-0.02657,-0.01476*
1,1,0.00984,-0.02657,0.01476*
1,1,0.00984,0.02657,0.01476*
1,1,0.00984,0.02657,-0.01476*
%
%ADD20ROUNDEDRECTD20*%
%ADD21R,0.12600X0.06000*%
G04:AMPARAMS|DCode=22|XSize=11.81mil|YSize=62.99mil|CornerRadius=2.95mil|HoleSize=0mil|Usage=FLASHONLY|Rotation=180.000|XOffset=0mil|YOffset=0mil|HoleType=Round|Shape=RoundedRectangle|*
%AMROUNDEDRECTD22*
21,1,0.01181,0.05709,0,0,180.0*
21,1,0.00591,0.06299,0,0,180.0*
1,1,0.00591,-0.00295,0.02854*
1,1,0.00591,0.00295,0.02854*
1,1,0.00591,0.00295,-0.02854*
1,1,0.00591,-0.00295,-0.02854*
%
%ADD22ROUNDEDRECTD22*%
G04:AMPARAMS|DCode=23|XSize=70.08mil|YSize=59.84mil|CornerRadius=14.96mil|HoleSize=0mil|Usage=FLASHONLY|Rotation=180.000|XOffset=0mil|YOffset=0mil|HoleType=Round|Shape=RoundedRectangle|*
%AMROUNDEDRECTD23*
21,1,0.07008,0.02992,0,0,180.0*
21,1,0.04016,0.05984,0,0,180.0*
1,1,0.02992,-0.02008,0.01496*
1,1,0.02992,0.02008,0.01496*
1,1,0.02992,0.02008,-0.01496*
1,1,0.02992,-0.02008,-0.01496*
%
%ADD23ROUNDEDRECTD23*%
G04:AMPARAMS|DCode=24|XSize=19.68mil|YSize=23.62mil|CornerRadius=2.46mil|HoleSize=0mil|Usage=FLASHONLY|Rotation=180.000|XOffset=0mil|YOffset=0mil|HoleType=Round|Shape=RoundedRectangle|*
%AMROUNDEDRECTD24*
21,1,0.01968,0.01870,0,0,180.0*
21,1,0.01476,0.02362,0,0,180.0*
1,1,0.00492,-0.00738,0.00935*
1,1,0.00492,0.00738,0.00935*
1,1,0.00492,0.00738,-0.00935*
1,1,0.00492,-0.00738,-0.00935*
%
%ADD24ROUNDEDRECTD24*%
G04:AMPARAMS|DCode=25|XSize=62.99mil|YSize=102.36mil|CornerRadius=7.87mil|HoleSize=0mil|Usage=FLASHONLY|Rotation=180.000|XOffset=0mil|YOffset=0mil|HoleType=Round|Shape=RoundedRectangle|*
%AMROUNDEDRECTD25*
21,1,0.06299,0.08661,0,0,180.0*
21,1,0.04724,0.10236,0,0,180.0*
1,1,0.01575,-0.02362,0.04331*
1,1,0.01575,0.02362,0.04331*
1,1,0.01575,0.02362,-0.04331*
1,1,0.01575,-0.02362,-0.04331*
%
%ADD25ROUNDEDRECTD25*%
G04:AMPARAMS|DCode=26|XSize=21.65mil|YSize=59.05mil|CornerRadius=5.41mil|HoleSize=0mil|Usage=FLASHONLY|Rotation=90.000|XOffset=0mil|YOffset=0mil|HoleType=Round|Shape=RoundedRectangle|*
%AMROUNDEDRECTD26*
21,1,0.02165,0.04823,0,0,90.0*
21,1,0.01083,0.05905,0,0,90.0*
1,1,0.01083,0.02411,0.00541*
1,1,0.01083,0.02411,-0.00541*
1,1,0.01083,-0.02411,-0.00541*
1,1,0.01083,-0.02411,0.00541*
%
%ADD26ROUNDEDRECTD26*%
G04:AMPARAMS|DCode=27|XSize=21.65mil|YSize=59.05mil|CornerRadius=5.41mil|HoleSize=0mil|Usage=FLASHONLY|Rotation=0.000|XOffset=0mil|YOffset=0mil|HoleType=Round|Shape=RoundedRectangle|*
%AMROUNDEDRECTD27*
21,1,0.02165,0.04823,0,0,0.0*
21,1,0.01083,0.05905,0,0,0.0*
1,1,0.01083,0.00541,-0.02411*
1,1,0.01083,-0.00541,-0.02411*
1,1,0.01083,-0.00541,0.02411*
1,1,0.01083,0.00541,0.02411*
%
%ADD27ROUNDEDRECTD27*%
%ADD28C,0.03937*%
%ADD29C,0.01000*%
%ADD30C,0.02000*%
%ADD31C,0.01500*%
%ADD32C,0.00800*%
%ADD33C,0.03000*%
%ADD34C,0.01800*%
%ADD35R,0.24000X0.24000*%
G04:AMPARAMS|DCode=36|XSize=56.22mil|YSize=56.22mil|CornerRadius=8.43mil|HoleSize=0mil|Usage=FLASHONLY|Rotation=180.000|XOffset=0mil|YOffset=0mil|HoleType=Round|Shape=RoundedRectangle|*
%AMROUNDEDRECTD36*
21,1,0.05622,0.03935,0,0,180.0*
21,1,0.03935,0.05622,0,0,180.0*
1,1,0.01687,-0.01968,0.01968*
1,1,0.01687,0.01968,0.01968*
1,1,0.01687,0.01968,-0.01968*
1,1,0.01687,-0.01968,-0.01968*
%
%ADD36ROUNDEDRECTD36*%
%ADD37C,0.05622*%
%ADD38C,0.13055*%
%ADD39C,0.06800*%
G04:AMPARAMS|DCode=40|XSize=68mil|YSize=68mil|CornerRadius=10.2mil|HoleSize=0mil|Usage=FLASHONLY|Rotation=270.000|XOffset=0mil|YOffset=0mil|HoleType=Round|Shape=RoundedRectangle|*
%AMROUNDEDRECTD40*
21,1,0.06800,0.04760,0,0,270.0*
21,1,0.04760,0.06800,0,0,270.0*
1,1,0.02040,-0.02380,-0.02380*
1,1,0.02040,-0.02380,0.02380*
1,1,0.02040,0.02380,0.02380*
1,1,0.02040,0.02380,-0.02380*
%
%ADD40ROUNDEDRECTD40*%
%ADD41C,0.22441*%
%ADD42C,0.02756*%
G04:AMPARAMS|DCode=43|XSize=60mil|YSize=60mil|CornerRadius=9mil|HoleSize=0mil|Usage=FLASHONLY|Rotation=90.000|XOffset=0mil|YOffset=0mil|HoleType=Round|Shape=RoundedRectangle|*
%AMROUNDEDRECTD43*
21,1,0.06000,0.04200,0,0,90.0*
21,1,0.04200,0.06000,0,0,90.0*
1,1,0.01800,0.02100,0.02100*
1,1,0.01800,0.02100,-0.02100*
1,1,0.01800,-0.02100,-0.02100*
1,1,0.01800,-0.02100,0.02100*
%
%ADD43ROUNDEDRECTD43*%
%ADD44C,0.06000*%
G04:AMPARAMS|DCode=45|XSize=60mil|YSize=60mil|CornerRadius=15mil|HoleSize=0mil|Usage=FLASHONLY|Rotation=90.000|XOffset=0mil|YOffset=0mil|HoleType=Round|Shape=RoundedRectangle|*
%AMROUNDEDRECTD45*
21,1,0.06000,0.03000,0,0,90.0*
21,1,0.03000,0.06000,0,0,90.0*
1,1,0.03000,0.01500,0.01500*
1,1,0.03000,0.01500,-0.01500*
1,1,0.03000,-0.01500,-0.01500*
1,1,0.03000,-0.01500,0.01500*
%
%ADD45ROUNDEDRECTD45*%
G04:AMPARAMS|DCode=46|XSize=94.49mil|YSize=94.49mil|CornerRadius=11.81mil|HoleSize=0mil|Usage=FLASHONLY|Rotation=270.000|XOffset=0mil|YOffset=0mil|HoleType=Round|Shape=RoundedRectangle|*
%AMROUNDEDRECTD46*
21,1,0.09449,0.07087,0,0,270.0*
21,1,0.07087,0.09449,0,0,270.0*
1,1,0.02362,-0.03543,-0.03543*
1,1,0.02362,-0.03543,0.03543*
1,1,0.02362,0.03543,0.03543*
1,1,0.02362,0.03543,-0.03543*
%
%ADD46ROUNDEDRECTD46*%
%ADD47C,0.09449*%
%ADD48C,0.03543*%
%ADD49C,0.03150*%
G36*
X602362Y114173D02*
X637795D01*
Y82677D01*
X602362D01*
Y39370D01*
X35433D01*
Y82677D01*
X0D01*
Y114173D01*
X35433D01*
Y157480D01*
X602362D01*
Y114173D01*
D02*
G37*
%LPC*%
G36*
X70000Y86594D02*
X69329Y86506D01*
X68703Y86246D01*
X68166Y85834D01*
X67754Y85297D01*
X67494Y84671D01*
X67406Y84000D01*
X67494Y83329D01*
X67754Y82703D01*
X68166Y82166D01*
X68674Y81776D01*
Y69413D01*
X68651Y69408D01*
X68280Y69161D01*
X68033Y68790D01*
X67946Y68353D01*
Y68326D01*
X65000D01*
X64493Y68225D01*
X64063Y67937D01*
X61015Y64890D01*
X60728Y64460D01*
X60627Y63953D01*
Y60422D01*
X60556Y60408D01*
X60186Y60161D01*
X59938Y59790D01*
X59851Y59353D01*
Y56647D01*
X59938Y56210D01*
X60186Y55839D01*
X60556Y55592D01*
X60993Y55505D01*
X62912D01*
X63349Y55592D01*
X63720Y55839D01*
X63967Y56210D01*
X64054Y56647D01*
Y59353D01*
X63967Y59790D01*
X63720Y60161D01*
X63349Y60408D01*
X63278Y60422D01*
Y63404D01*
X65549Y65675D01*
X67946D01*
Y65647D01*
X68033Y65210D01*
X68280Y64839D01*
X68651Y64592D01*
X69088Y64505D01*
X71007D01*
X71444Y64592D01*
X71814Y64839D01*
X72062Y65210D01*
X72149Y65647D01*
Y68353D01*
X72062Y68790D01*
X71814Y69161D01*
X71444Y69408D01*
X71325Y69432D01*
Y81776D01*
X71834Y82166D01*
X72246Y82703D01*
X72505Y83329D01*
X72594Y84000D01*
X72505Y84671D01*
X72246Y85297D01*
X71834Y85834D01*
X71297Y86246D01*
X70671Y86506D01*
X70000Y86594D01*
D02*
G37*
G36*
X194699Y64453D02*
X192500D01*
Y62647D01*
X193353D01*
X193868Y62750D01*
X194305Y63042D01*
X194597Y63478D01*
X194699Y63993D01*
Y64453D01*
D02*
G37*
G36*
X565000Y74748D02*
X563712Y74578D01*
X562512Y74081D01*
X561481Y73290D01*
X560690Y72260D01*
X560193Y71060D01*
X560024Y69772D01*
X560193Y68484D01*
X560690Y67283D01*
X561481Y66253D01*
X562512Y65462D01*
X563712Y64965D01*
X565000Y64795D01*
X566288Y64965D01*
X567488Y65462D01*
X568519Y66253D01*
X569310Y67283D01*
X569807Y68484D01*
X569976Y69772D01*
X569807Y71060D01*
X569310Y72260D01*
X568519Y73290D01*
X567488Y74081D01*
X566288Y74578D01*
X565000Y74748D01*
D02*
G37*
G36*
X450000D02*
X448712Y74578D01*
X447512Y74081D01*
X446481Y73290D01*
X445690Y72260D01*
X445193Y71060D01*
X445024Y69772D01*
X445193Y68484D01*
X445690Y67283D01*
X446481Y66253D01*
X447512Y65462D01*
X448712Y64965D01*
X450000Y64795D01*
X451288Y64965D01*
X452488Y65462D01*
X453519Y66253D01*
X454310Y67283D01*
X454807Y68484D01*
X454976Y69772D01*
X454807Y71060D01*
X454310Y72260D01*
X453519Y73290D01*
X452488Y74081D01*
X451288Y74578D01*
X450000Y74748D01*
D02*
G37*
G36*
X161000Y66594D02*
X160329Y66505D01*
X159703Y66246D01*
X159166Y65834D01*
X158776Y65325D01*
X157000D01*
X156493Y65225D01*
X156063Y64937D01*
X154110Y62985D01*
X153823Y62555D01*
X153722Y62047D01*
Y60422D01*
X153651Y60408D01*
X153280Y60161D01*
X153033Y59790D01*
X152946Y59353D01*
Y56647D01*
X153033Y56210D01*
X153280Y55839D01*
X153651Y55592D01*
X154088Y55505D01*
X156007D01*
X156444Y55592D01*
X156814Y55839D01*
X157062Y56210D01*
X157149Y56647D01*
Y59353D01*
X157062Y59790D01*
X156814Y60161D01*
X156444Y60408D01*
X156373Y60422D01*
Y61498D01*
X157549Y62674D01*
X158776D01*
X159166Y62166D01*
X159703Y61754D01*
X160329Y61494D01*
X161000Y61406D01*
X161671Y61494D01*
X162297Y61754D01*
X162834Y62166D01*
X163246Y62703D01*
X163505Y63329D01*
X163594Y64000D01*
X163505Y64671D01*
X163246Y65297D01*
X162834Y65834D01*
X162297Y66246D01*
X161671Y66505D01*
X161000Y66594D01*
D02*
G37*
G36*
X148000D02*
X147329Y66505D01*
X146703Y66246D01*
X146166Y65834D01*
X145776Y65325D01*
X144000D01*
X143493Y65225D01*
X143063Y64937D01*
X141110Y62985D01*
X140823Y62555D01*
X140722Y62047D01*
Y60422D01*
X140651Y60408D01*
X140280Y60161D01*
X140033Y59790D01*
X139946Y59353D01*
Y56647D01*
X140033Y56210D01*
X140280Y55839D01*
X140651Y55592D01*
X141088Y55505D01*
X143007D01*
X143444Y55592D01*
X143814Y55839D01*
X144062Y56210D01*
X144149Y56647D01*
Y59353D01*
X144062Y59790D01*
X143814Y60161D01*
X143444Y60408D01*
X143373Y60422D01*
Y61498D01*
X144549Y62674D01*
X145776D01*
X146166Y62166D01*
X146703Y61754D01*
X147329Y61494D01*
X148000Y61406D01*
X148671Y61494D01*
X149297Y61754D01*
X149834Y62166D01*
X150246Y62703D01*
X150505Y63329D01*
X150594Y64000D01*
X150505Y64671D01*
X150246Y65297D01*
X149834Y65834D01*
X149297Y66246D01*
X148671Y66505D01*
X148000Y66594D01*
D02*
G37*
G36*
X191500Y64453D02*
X189301D01*
Y63993D01*
X189403Y63478D01*
X189695Y63042D01*
X190132Y62750D01*
X190647Y62647D01*
X191500D01*
Y64453D01*
D02*
G37*
G36*
X174000Y66594D02*
X173329Y66505D01*
X172703Y66246D01*
X172166Y65834D01*
X171776Y65325D01*
X170000D01*
X169493Y65225D01*
X169063Y64937D01*
X167110Y62985D01*
X166823Y62555D01*
X166722Y62047D01*
Y60422D01*
X166651Y60408D01*
X166280Y60161D01*
X166033Y59790D01*
X165946Y59353D01*
Y56647D01*
X166033Y56210D01*
X166280Y55839D01*
X166651Y55592D01*
X167088Y55505D01*
X169007D01*
X169444Y55592D01*
X169814Y55839D01*
X170062Y56210D01*
X170149Y56647D01*
Y59353D01*
X170062Y59790D01*
X169814Y60161D01*
X169444Y60408D01*
X169373Y60422D01*
Y61498D01*
X170549Y62674D01*
X171776D01*
X172166Y62166D01*
X172703Y61754D01*
X173329Y61494D01*
X174000Y61406D01*
X174671Y61494D01*
X175297Y61754D01*
X175834Y62166D01*
X176246Y62703D01*
X176505Y63329D01*
X176594Y64000D01*
X176505Y64671D01*
X176246Y65297D01*
X175834Y65834D01*
X175297Y66246D01*
X174671Y66505D01*
X174000Y66594D01*
D02*
G37*
G36*
X403738Y75573D02*
X402262D01*
X401854Y75491D01*
X401508Y75260D01*
X401276Y74914D01*
X401273Y74896D01*
X399618D01*
X399111Y74795D01*
X398681Y74508D01*
X394227Y70054D01*
X392647D01*
X392210Y69967D01*
X391839Y69720D01*
X391592Y69349D01*
X391505Y68912D01*
Y66993D01*
X391592Y66556D01*
X391839Y66186D01*
X392210Y65938D01*
X392647Y65851D01*
X395353D01*
X395790Y65938D01*
X396161Y66186D01*
X396408Y66556D01*
X396495Y66993D01*
Y68573D01*
X400167Y72245D01*
X401273D01*
X401276Y72228D01*
X401508Y71882D01*
X401675Y71770D01*
Y70054D01*
X401647D01*
X401210Y69967D01*
X400839Y69720D01*
X400592Y69349D01*
X400505Y68912D01*
Y66993D01*
X400592Y66556D01*
X400839Y66186D01*
X401210Y65938D01*
X401647Y65851D01*
X404353D01*
X404790Y65938D01*
X405161Y66186D01*
X405408Y66556D01*
X405495Y66993D01*
Y68912D01*
X405408Y69349D01*
X405161Y69720D01*
X404790Y69967D01*
X404353Y70054D01*
X404325D01*
Y71770D01*
X404492Y71882D01*
X404724Y72228D01*
X404805Y72636D01*
Y74506D01*
X404724Y74914D01*
X404492Y75260D01*
X404146Y75491D01*
X403738Y75573D01*
D02*
G37*
G36*
X268575Y69111D02*
Y65476D01*
X269691D01*
Y67831D01*
X269590Y68336D01*
X269304Y68765D01*
X268876Y69051D01*
X268575Y69111D01*
D02*
G37*
G36*
X339500Y70211D02*
X338647D01*
X338132Y70108D01*
X337695Y69817D01*
X337403Y69380D01*
X337301Y68865D01*
Y68405D01*
X339500D01*
Y70211D01*
D02*
G37*
G36*
X376000Y85594D02*
X375329Y85505D01*
X374703Y85246D01*
X374166Y84834D01*
X373754Y84297D01*
X373495Y83671D01*
X373406Y83000D01*
X373495Y82329D01*
X373754Y81703D01*
X374166Y81166D01*
X374703Y80754D01*
X375329Y80494D01*
X376000Y80406D01*
X376671Y80494D01*
X377297Y80754D01*
X377834Y81166D01*
X378224Y81674D01*
X379404D01*
X379505Y81573D01*
Y79993D01*
X379592Y79556D01*
X379839Y79186D01*
X380210Y78938D01*
X380647Y78851D01*
X383353D01*
X383790Y78938D01*
X384161Y79186D01*
X384408Y79556D01*
X384413Y79580D01*
X385578D01*
X385592Y79509D01*
X385839Y79138D01*
X386210Y78891D01*
X386647Y78804D01*
X389353D01*
X389790Y78891D01*
X390161Y79138D01*
X390408Y79509D01*
X390432Y79627D01*
X391578D01*
X391592Y79556D01*
X391839Y79186D01*
X392210Y78938D01*
X392647Y78851D01*
X394798D01*
X395129Y78051D01*
X394227Y77149D01*
X392647D01*
X392210Y77062D01*
X391839Y76814D01*
X391592Y76444D01*
X391505Y76007D01*
Y74088D01*
X391592Y73651D01*
X391839Y73280D01*
X392210Y73033D01*
X392647Y72946D01*
X395353D01*
X395790Y73033D01*
X396161Y73280D01*
X396408Y73651D01*
X396495Y74088D01*
Y75668D01*
X397502Y76674D01*
X405022D01*
X408195Y73501D01*
Y72636D01*
X408277Y72228D01*
X408508Y71882D01*
X408674Y71770D01*
Y70054D01*
X408647D01*
X408210Y69967D01*
X407839Y69720D01*
X407592Y69349D01*
X407505Y68912D01*
Y66993D01*
X407592Y66556D01*
X407839Y66186D01*
X408210Y65938D01*
X408647Y65851D01*
X411353D01*
X411790Y65938D01*
X412161Y66186D01*
X412408Y66556D01*
X412495Y66993D01*
Y68912D01*
X412408Y69349D01*
X412161Y69720D01*
X411790Y69967D01*
X411353Y70054D01*
X411326D01*
Y71770D01*
X411492Y71882D01*
X411724Y72228D01*
X411805Y72636D01*
Y74506D01*
X411724Y74914D01*
X411492Y75260D01*
X411146Y75491D01*
X410738Y75573D01*
X409873D01*
X406508Y78937D01*
X406078Y79225D01*
X405571Y79325D01*
X397143D01*
X396631Y79795D01*
X396517Y79961D01*
X396495Y80050D01*
Y81912D01*
X396408Y82349D01*
X396161Y82720D01*
X395790Y82967D01*
X395353Y83054D01*
X392647D01*
X392210Y82967D01*
X391839Y82720D01*
X391592Y82349D01*
X391578Y82278D01*
X390413D01*
X390408Y82302D01*
X390161Y82673D01*
X389790Y82920D01*
X389353Y83007D01*
X386647D01*
X386210Y82920D01*
X385839Y82673D01*
X385592Y82302D01*
X385578Y82231D01*
X384432D01*
X384408Y82349D01*
X384161Y82720D01*
X383790Y82967D01*
X383353Y83054D01*
X381773D01*
X380890Y83937D01*
X380460Y84225D01*
X379953Y84325D01*
X378224D01*
X377834Y84834D01*
X377297Y85246D01*
X376671Y85505D01*
X376000Y85594D01*
D02*
G37*
G36*
X206969Y68500D02*
X203500D01*
Y65031D01*
X204044Y65103D01*
X205017Y65506D01*
X205853Y66147D01*
X206494Y66983D01*
X206897Y67956D01*
X206969Y68500D01*
D02*
G37*
G36*
X202500D02*
X199031D01*
X199103Y67956D01*
X199506Y66983D01*
X200147Y66147D01*
X200983Y65506D01*
X201956Y65103D01*
X202500Y65031D01*
Y68500D01*
D02*
G37*
G36*
X193353Y67258D02*
X192500D01*
Y65453D01*
X194699D01*
Y65912D01*
X194597Y66427D01*
X194305Y66864D01*
X193868Y67156D01*
X193353Y67258D01*
D02*
G37*
G36*
X191500D02*
X190647D01*
X190132Y67156D01*
X189695Y66864D01*
X189403Y66427D01*
X189301Y65912D01*
Y65453D01*
X191500D01*
Y67258D01*
D02*
G37*
G36*
X68563Y57500D02*
X66065D01*
Y55933D01*
X66181Y55351D01*
X66511Y54857D01*
X67004Y54527D01*
X67587Y54412D01*
X68563D01*
Y57500D01*
D02*
G37*
G36*
X595000Y151816D02*
X420000D01*
X419688Y151754D01*
X419423Y151577D01*
X419246Y151312D01*
X419184Y151000D01*
Y81000D01*
X419246Y80688D01*
X419423Y80423D01*
X419688Y80246D01*
X420000Y80184D01*
X491081D01*
X491241Y79384D01*
X491084Y79319D01*
X490290Y78710D01*
X489681Y77916D01*
X489298Y76992D01*
X489167Y76000D01*
X489298Y75008D01*
X489681Y74084D01*
X490290Y73290D01*
X491084Y72681D01*
X491745Y72407D01*
Y64227D01*
X491728Y64224D01*
X491382Y63992D01*
X491151Y63646D01*
X491069Y63238D01*
Y61762D01*
X491151Y61354D01*
X491382Y61008D01*
X491728Y60776D01*
X491745Y60773D01*
Y57766D01*
X491593Y57736D01*
X491068Y57385D01*
X490717Y56859D01*
X490594Y56240D01*
Y53996D01*
X490666Y53635D01*
X490275Y52978D01*
X490117Y52835D01*
X488760D01*
X481298Y60298D01*
X480702Y60696D01*
X480000Y60835D01*
X427833D01*
X427297Y61246D01*
X426671Y61506D01*
X426000Y61594D01*
X425329Y61506D01*
X424703Y61246D01*
X424167Y60835D01*
X423833D01*
X423297Y61246D01*
X422671Y61506D01*
X422002Y61594D01*
X417835Y65760D01*
Y99000D01*
X417696Y99702D01*
X417298Y100298D01*
X414594Y103002D01*
X414505Y103671D01*
X414246Y104297D01*
X413834Y104834D01*
X413297Y105246D01*
X412671Y105506D01*
X412000Y105594D01*
X411329Y105506D01*
X410703Y105246D01*
X410166Y104834D01*
X409754Y104297D01*
X409494Y103671D01*
X409406Y103000D01*
X409494Y102329D01*
X409754Y101703D01*
X410166Y101166D01*
X410703Y100754D01*
X411329Y100495D01*
X411998Y100406D01*
X414165Y98240D01*
Y65000D01*
X414304Y64298D01*
X414702Y63702D01*
X419406Y58998D01*
X419494Y58329D01*
X419579Y58126D01*
X419086Y57326D01*
X416596D01*
X412495Y61427D01*
Y63007D01*
X412408Y63444D01*
X412161Y63814D01*
X411790Y64062D01*
X411353Y64149D01*
X408647D01*
X408210Y64062D01*
X407839Y63814D01*
X407592Y63444D01*
X407505Y63007D01*
Y61088D01*
X407592Y60651D01*
X407839Y60280D01*
X408210Y60033D01*
X408647Y59946D01*
X410227D01*
X414108Y56065D01*
X413802Y55326D01*
X411596D01*
X405495Y61427D01*
Y63007D01*
X405408Y63444D01*
X405161Y63814D01*
X404790Y64062D01*
X404353Y64149D01*
X401647D01*
X401210Y64062D01*
X400839Y63814D01*
X400592Y63444D01*
X400505Y63007D01*
Y61088D01*
X400592Y60651D01*
X400839Y60280D01*
X401210Y60033D01*
X401647Y59946D01*
X403227D01*
X410110Y53063D01*
X410540Y52775D01*
X411047Y52675D01*
X415451D01*
X418764Y49361D01*
Y44620D01*
X418906Y43910D01*
X419308Y43308D01*
X419910Y42906D01*
X420620Y42764D01*
X425380D01*
X426090Y42906D01*
X426692Y43308D01*
X427094Y43910D01*
X427236Y44620D01*
Y49380D01*
X427094Y50090D01*
X426692Y50692D01*
X426090Y51094D01*
X425380Y51236D01*
X420639D01*
X417939Y53935D01*
X418245Y54675D01*
X433451D01*
X438764Y49361D01*
Y44620D01*
X438906Y43910D01*
X439308Y43308D01*
X439910Y42906D01*
X440620Y42764D01*
X445380D01*
X446090Y42906D01*
X446692Y43308D01*
X447094Y43910D01*
X447236Y44620D01*
Y49380D01*
X447094Y50090D01*
X446692Y50692D01*
X446090Y51094D01*
X445380Y51236D01*
X440639D01*
X435510Y56365D01*
X435841Y57165D01*
X479240D01*
X482346Y54058D01*
X482015Y53258D01*
X481500D01*
Y51453D01*
X483699D01*
Y51574D01*
X484499Y51906D01*
X486702Y49702D01*
X487298Y49304D01*
X488000Y49165D01*
X508000D01*
X508702Y49304D01*
X509298Y49702D01*
X512040Y52444D01*
X512442Y52340D01*
X512815Y52089D01*
Y48413D01*
X516500D01*
Y54066D01*
X514793D01*
X514542Y54440D01*
X514438Y54842D01*
X515733Y56137D01*
X519362D01*
X519982Y56261D01*
X520507Y56612D01*
X520857Y57136D01*
X520981Y57756D01*
Y60761D01*
X523364D01*
X538063Y46063D01*
X538493Y45775D01*
X539000Y45674D01*
X548946D01*
Y45647D01*
X549033Y45210D01*
X549280Y44839D01*
X549651Y44592D01*
X550088Y44505D01*
X552007D01*
X552444Y44592D01*
X552814Y44839D01*
X553062Y45210D01*
X553149Y45647D01*
Y48353D01*
X553062Y48790D01*
X552814Y49161D01*
X552444Y49408D01*
X552007Y49495D01*
X550088D01*
X549651Y49408D01*
X549280Y49161D01*
X549033Y48790D01*
X548946Y48353D01*
Y48325D01*
X539549D01*
X537000Y50875D01*
X537331Y51674D01*
X570451D01*
X571014Y51111D01*
X570993Y50813D01*
X570809Y50185D01*
X570529Y49999D01*
X570244Y49571D01*
X570143Y49067D01*
Y44933D01*
X570244Y44429D01*
X570446Y44126D01*
X570306Y43649D01*
X570101Y43325D01*
X567899D01*
X567694Y43649D01*
X567554Y44126D01*
X567757Y44429D01*
X567857Y44933D01*
Y49067D01*
X567757Y49571D01*
X567471Y49999D01*
X567043Y50284D01*
X566539Y50384D01*
X563587D01*
X563082Y50284D01*
X562655Y49999D01*
X562369Y49571D01*
X562269Y49067D01*
Y48325D01*
X559054D01*
Y48353D01*
X558967Y48790D01*
X558720Y49161D01*
X558349Y49408D01*
X557912Y49495D01*
X555993D01*
X555556Y49408D01*
X555186Y49161D01*
X554938Y48790D01*
X554851Y48353D01*
Y45647D01*
X554938Y45210D01*
X555186Y44839D01*
X555556Y44592D01*
X555993Y44505D01*
X557912D01*
X558349Y44592D01*
X558720Y44839D01*
X558967Y45210D01*
X559054Y45647D01*
Y45674D01*
X562269D01*
Y44933D01*
X562369Y44429D01*
X562655Y44001D01*
X563082Y43716D01*
X563587Y43616D01*
X563737D01*
Y42937D01*
X563838Y42430D01*
X564126Y42000D01*
X565063Y41063D01*
X565493Y40775D01*
X566000Y40674D01*
X579000D01*
X579507Y40775D01*
X579937Y41063D01*
X581639Y42764D01*
X586380D01*
X587090Y42906D01*
X587692Y43308D01*
X588094Y43910D01*
X588236Y44620D01*
Y49380D01*
X588142Y49852D01*
X588878Y50247D01*
X590236Y48889D01*
X589908Y48096D01*
X589764Y47000D01*
X589908Y45904D01*
X590331Y44882D01*
X591005Y44004D01*
X591882Y43331D01*
X592904Y42908D01*
X594000Y42764D01*
X595096Y42908D01*
X596118Y43331D01*
X596995Y44004D01*
X597669Y44882D01*
X598092Y45904D01*
X598236Y47000D01*
X598092Y48096D01*
X597669Y49118D01*
X596995Y49995D01*
X596118Y50669D01*
X595096Y51092D01*
X594000Y51236D01*
X592904Y51092D01*
X592111Y50764D01*
X588937Y53937D01*
X588507Y54225D01*
X588000Y54325D01*
X575000D01*
X574493Y54225D01*
X574063Y53937D01*
X573000Y52874D01*
X571937Y53937D01*
X571507Y54225D01*
X571000Y54325D01*
X537549D01*
X532326Y59549D01*
Y77500D01*
X532225Y78007D01*
X531937Y78437D01*
X530929Y79445D01*
X531235Y80184D01*
X595000D01*
X595312Y80246D01*
X595577Y80423D01*
X595754Y80688D01*
X595816Y81000D01*
Y151000D01*
X595754Y151312D01*
X595577Y151577D01*
X595312Y151754D01*
X595000Y151816D01*
D02*
G37*
G36*
X104007Y60495D02*
X102088D01*
X101651Y60408D01*
X101280Y60161D01*
X101033Y59790D01*
X100946Y59353D01*
Y59325D01*
X98000D01*
X97493Y59225D01*
X97063Y58937D01*
X92063Y53937D01*
X91775Y53507D01*
X91675Y53000D01*
Y50997D01*
X90882Y50669D01*
X90004Y49995D01*
X89331Y49118D01*
X88908Y48096D01*
X88764Y47000D01*
X88908Y45904D01*
X89331Y44882D01*
X90004Y44004D01*
X90882Y43331D01*
X91904Y42908D01*
X93000Y42764D01*
X94096Y42908D01*
X95118Y43331D01*
X95995Y44004D01*
X96669Y44882D01*
X97092Y45904D01*
X97236Y47000D01*
X97092Y48096D01*
X96669Y49118D01*
X95995Y49995D01*
X95118Y50669D01*
X94326Y50997D01*
Y52451D01*
X98549Y56674D01*
X100946D01*
Y56647D01*
X101033Y56210D01*
X101280Y55839D01*
X101651Y55592D01*
X102088Y55505D01*
X104007D01*
X104444Y55592D01*
X104814Y55839D01*
X105062Y56210D01*
X105149Y56647D01*
Y59353D01*
X105062Y59790D01*
X104814Y60161D01*
X104444Y60408D01*
X104007Y60495D01*
D02*
G37*
G36*
X72061Y57500D02*
X69563D01*
Y54412D01*
X70539D01*
X71122Y54527D01*
X71615Y54857D01*
X71945Y55351D01*
X72061Y55933D01*
Y57500D01*
D02*
G37*
G36*
X148912Y60495D02*
X146993D01*
X146556Y60408D01*
X146186Y60161D01*
X145938Y59790D01*
X145851Y59353D01*
Y56647D01*
X145938Y56210D01*
X146186Y55839D01*
X146556Y55592D01*
X146627Y55578D01*
Y52047D01*
X146652Y51921D01*
X146478Y51692D01*
X145987Y51319D01*
X145380Y51440D01*
X143500D01*
Y47500D01*
X147440D01*
Y49380D01*
X147396Y49598D01*
X148134Y49992D01*
X149236Y48889D01*
X148908Y48096D01*
X148764Y47000D01*
X148908Y45904D01*
X149331Y44882D01*
X150004Y44004D01*
X150882Y43331D01*
X151904Y42908D01*
X153000Y42764D01*
X154096Y42908D01*
X155118Y43331D01*
X155996Y44004D01*
X156669Y44882D01*
X157092Y45904D01*
X157236Y47000D01*
X157092Y48096D01*
X156669Y49118D01*
X155996Y49995D01*
X155118Y50669D01*
X154096Y51092D01*
X153000Y51236D01*
X151904Y51092D01*
X151111Y50764D01*
X149278Y52596D01*
Y55578D01*
X149349Y55592D01*
X149720Y55839D01*
X149967Y56210D01*
X150054Y56647D01*
Y59353D01*
X149967Y59790D01*
X149720Y60161D01*
X149349Y60408D01*
X148912Y60495D01*
D02*
G37*
G36*
X50413Y61384D02*
X47461D01*
X46957Y61284D01*
X46529Y60998D01*
X46244Y60571D01*
X46143Y60067D01*
Y55933D01*
X46244Y55429D01*
X46529Y55001D01*
X46957Y54716D01*
X47461Y54616D01*
X50413D01*
X50918Y54716D01*
X51345Y55001D01*
X51631Y55429D01*
X51731Y55933D01*
Y56674D01*
X53946D01*
Y56647D01*
X54033Y56210D01*
X54280Y55839D01*
X54651Y55592D01*
X54722Y55578D01*
Y51584D01*
X53922Y51115D01*
X53000Y51236D01*
X51904Y51092D01*
X50882Y50669D01*
X50005Y49995D01*
X49331Y49118D01*
X48908Y48096D01*
X48764Y47000D01*
X48908Y45904D01*
X49331Y44882D01*
X50005Y44004D01*
X50882Y43331D01*
X51904Y42908D01*
X53000Y42764D01*
X54096Y42908D01*
X55118Y43331D01*
X55996Y44004D01*
X56669Y44882D01*
X57092Y45904D01*
X57236Y47000D01*
X57092Y48096D01*
X56764Y48889D01*
X56985Y49110D01*
X57272Y49540D01*
X57373Y50047D01*
Y55578D01*
X57444Y55592D01*
X57814Y55839D01*
X58062Y56210D01*
X58149Y56647D01*
Y59353D01*
X58062Y59790D01*
X57814Y60161D01*
X57444Y60408D01*
X57007Y60495D01*
X55088D01*
X54651Y60408D01*
X54280Y60161D01*
X54033Y59790D01*
X53946Y59353D01*
Y59325D01*
X51731D01*
Y60067D01*
X51631Y60571D01*
X51345Y60998D01*
X50918Y61284D01*
X50413Y61384D01*
D02*
G37*
G36*
X480500Y53258D02*
X479647D01*
X479132Y53156D01*
X478695Y52864D01*
X478403Y52427D01*
X478301Y51912D01*
Y51453D01*
X480500D01*
Y53258D01*
D02*
G37*
G36*
X174912Y60495D02*
X172993D01*
X172556Y60408D01*
X172186Y60161D01*
X171938Y59790D01*
X171851Y59353D01*
Y56647D01*
X171938Y56210D01*
X172186Y55839D01*
X172556Y55592D01*
X172993Y55505D01*
X174912D01*
X175349Y55592D01*
X175720Y55839D01*
X175967Y56210D01*
X176054Y56647D01*
Y56674D01*
X181451D01*
X185992Y52134D01*
X185598Y51396D01*
X185380Y51440D01*
X183500D01*
Y47500D01*
X187440D01*
Y49380D01*
X187396Y49598D01*
X188134Y49992D01*
X189236Y48889D01*
X188908Y48096D01*
X188764Y47000D01*
X188908Y45904D01*
X189331Y44882D01*
X190005Y44004D01*
X190882Y43331D01*
X191904Y42908D01*
X193000Y42764D01*
X194096Y42908D01*
X195118Y43331D01*
X195995Y44004D01*
X196669Y44882D01*
X197092Y45904D01*
X197236Y47000D01*
X197092Y48096D01*
X196669Y49118D01*
X195995Y49995D01*
X195118Y50669D01*
X194096Y51092D01*
X193000Y51236D01*
X191904Y51092D01*
X191111Y50764D01*
X182937Y58937D01*
X182507Y59225D01*
X182000Y59325D01*
X176054D01*
Y59353D01*
X175967Y59790D01*
X175720Y60161D01*
X175349Y60408D01*
X174912Y60495D01*
D02*
G37*
G36*
X213000Y82833D02*
X212008Y82702D01*
X211084Y82319D01*
X210290Y81710D01*
X209681Y80916D01*
X209298Y79992D01*
X209167Y79000D01*
X209298Y78008D01*
X209681Y77084D01*
X210290Y76290D01*
X211084Y75681D01*
X212008Y75298D01*
X213000Y75167D01*
X213992Y75298D01*
X214583Y75543D01*
X221674Y68451D01*
Y50997D01*
X220882Y50669D01*
X220005Y49995D01*
X219331Y49118D01*
X218908Y48096D01*
X218764Y47000D01*
X218908Y45904D01*
X219331Y44882D01*
X220005Y44004D01*
X220882Y43331D01*
X221904Y42908D01*
X223000Y42764D01*
X224096Y42908D01*
X225118Y43331D01*
X225995Y44004D01*
X226138Y44002D01*
X226878Y43840D01*
X227063Y43563D01*
X229563Y41063D01*
X229993Y40775D01*
X230500Y40674D01*
X338500D01*
X339007Y40775D01*
X339437Y41063D01*
X341464Y43090D01*
X341904Y42908D01*
X343000Y42764D01*
X344096Y42908D01*
X345118Y43331D01*
X345995Y44004D01*
X346669Y44882D01*
X347092Y45904D01*
X347236Y47000D01*
X347092Y48096D01*
X346669Y49118D01*
X345995Y49995D01*
X345118Y50669D01*
X344096Y51092D01*
X343000Y51236D01*
X341904Y51092D01*
X340882Y50669D01*
X340004Y49995D01*
X339331Y49118D01*
X338908Y48096D01*
X338764Y47000D01*
X338908Y45904D01*
X339331Y44882D01*
X339408Y44782D01*
X337951Y43325D01*
X336425D01*
X336208Y43669D01*
X336088Y44126D01*
X336669Y44882D01*
X337092Y45904D01*
X337236Y47000D01*
X337092Y48096D01*
X336669Y49118D01*
X335996Y49995D01*
X335118Y50669D01*
X334096Y51092D01*
X333000Y51236D01*
X331904Y51092D01*
X331111Y50764D01*
X323411Y58464D01*
X322980Y58751D01*
X322473Y58852D01*
X260022D01*
X259164Y59710D01*
Y60470D01*
X259286Y60617D01*
X259964Y61033D01*
X260102Y61005D01*
X260693D01*
X261120Y61090D01*
X261483Y61332D01*
X261872D01*
X262234Y61090D01*
X262661Y61005D01*
X263252D01*
X263679Y61090D01*
X264287Y61188D01*
X264715Y60902D01*
X265016Y60842D01*
Y64976D01*
Y69111D01*
X264715Y69051D01*
X264287Y68765D01*
X263679Y68862D01*
X263252Y68947D01*
X262661D01*
X262234Y68862D01*
X261872Y68620D01*
X261483D01*
X261120Y68862D01*
X260693Y68947D01*
X260102D01*
X259675Y68862D01*
X259313Y68620D01*
X258924D01*
X258561Y68862D01*
X258134Y68947D01*
X257543D01*
X257116Y68862D01*
X256559Y68683D01*
X256002Y68862D01*
X255575Y68947D01*
X254984D01*
X254557Y68862D01*
X254195Y68620D01*
X253805D01*
X253443Y68862D01*
X253016Y68947D01*
X252425D01*
X251998Y68862D01*
X251441Y68683D01*
X250884Y68862D01*
X250457Y68947D01*
X249866D01*
X249439Y68862D01*
X249077Y68620D01*
X248687D01*
X248325Y68862D01*
X247898Y68947D01*
X247307D01*
X246880Y68862D01*
X246517Y68620D01*
X246128D01*
X245766Y68862D01*
X245339Y68947D01*
X244748D01*
X244321Y68862D01*
X243713Y68765D01*
X243285Y69051D01*
X242984Y69111D01*
Y64976D01*
Y60785D01*
X243641Y60353D01*
X243718Y60234D01*
Y55592D01*
X241451Y53325D01*
X238000D01*
X237493Y53225D01*
X237063Y52937D01*
X234889Y50764D01*
X234096Y51092D01*
X233000Y51236D01*
X231904Y51092D01*
X230882Y50669D01*
X230194Y50141D01*
X229665Y50744D01*
X233427Y54505D01*
X235007D01*
X235444Y54592D01*
X235814Y54839D01*
X236062Y55210D01*
X236149Y55647D01*
Y57798D01*
X236949Y58130D01*
X237851Y57227D01*
Y55647D01*
X237938Y55210D01*
X238186Y54839D01*
X238556Y54592D01*
X238993Y54505D01*
X240912D01*
X241349Y54592D01*
X241720Y54839D01*
X241967Y55210D01*
X242054Y55647D01*
Y58353D01*
X241967Y58790D01*
X241720Y59161D01*
X241349Y59408D01*
X240912Y59495D01*
X239332D01*
X236106Y62722D01*
X236161Y63280D01*
X236408Y63651D01*
X236422Y63722D01*
X238513D01*
Y62122D01*
X238598Y61695D01*
X238840Y61332D01*
X239203Y61090D01*
X239630Y61005D01*
X240220D01*
X240648Y61090D01*
X241255Y61188D01*
X241684Y60902D01*
X241984Y60842D01*
Y64976D01*
Y69111D01*
X241684Y69051D01*
X241255Y68765D01*
X240648Y68862D01*
X240220Y68947D01*
X239630D01*
X239203Y68862D01*
X238840Y68620D01*
X238598Y68258D01*
X238513Y67831D01*
Y66373D01*
X236422D01*
X236408Y66444D01*
X236161Y66814D01*
X235790Y67062D01*
X235353Y67149D01*
X232647D01*
X232210Y67062D01*
X231839Y66814D01*
X231592Y66444D01*
X231578Y66373D01*
X230188D01*
X229834Y66834D01*
X229297Y67246D01*
X228671Y67506D01*
X228000Y67594D01*
X227329Y67506D01*
X226703Y67246D01*
X226166Y66834D01*
X225754Y66297D01*
X225495Y65671D01*
X225406Y65000D01*
X225495Y64329D01*
X225754Y63703D01*
X226166Y63166D01*
X226703Y62754D01*
X227329Y62494D01*
X228000Y62406D01*
X228671Y62494D01*
X229297Y62754D01*
X229834Y63166D01*
X230246Y63703D01*
X230254Y63722D01*
X231578D01*
X231592Y63651D01*
X231839Y63280D01*
X232210Y63033D01*
X232647Y62946D01*
X232676D01*
X232775Y62445D01*
X233063Y62015D01*
X234783Y60295D01*
X234452Y59495D01*
X233088D01*
X232651Y59408D01*
X232280Y59161D01*
X232033Y58790D01*
X231946Y58353D01*
Y56773D01*
X227063Y51890D01*
X226775Y51460D01*
X226675Y50953D01*
Y50425D01*
X226331Y50208D01*
X225874Y50088D01*
X225118Y50669D01*
X224325Y50997D01*
Y69000D01*
X224225Y69507D01*
X223937Y69937D01*
X216457Y77417D01*
X216702Y78008D01*
X216833Y79000D01*
X216702Y79992D01*
X216319Y80916D01*
X215710Y81710D01*
X214916Y82319D01*
X213992Y82702D01*
X213000Y82833D01*
D02*
G37*
G36*
X70539Y61588D02*
X69563D01*
Y58500D01*
X72061D01*
Y60067D01*
X71945Y60649D01*
X71615Y61143D01*
X71122Y61472D01*
X70539Y61588D01*
D02*
G37*
G36*
X266016Y69111D02*
Y64976D01*
Y60842D01*
X266316Y60902D01*
X266795Y61161D01*
X267274Y60902D01*
X267575Y60842D01*
Y64976D01*
Y69111D01*
X267274Y69051D01*
X266795Y68792D01*
X266316Y69051D01*
X266016Y69111D01*
D02*
G37*
G36*
X269691Y64476D02*
X268575D01*
Y60842D01*
X268876Y60902D01*
X269304Y61188D01*
X269590Y61617D01*
X269691Y62122D01*
Y64476D01*
D02*
G37*
G36*
X122000Y66594D02*
X121329Y66505D01*
X120703Y66246D01*
X120166Y65834D01*
X119754Y65297D01*
X119494Y64671D01*
X119406Y64000D01*
X119494Y63329D01*
X119754Y62703D01*
X120166Y62166D01*
X120627Y61812D01*
Y60422D01*
X120556Y60408D01*
X120186Y60161D01*
X119938Y59790D01*
X119851Y59353D01*
Y56647D01*
X119938Y56210D01*
X120186Y55839D01*
X120556Y55592D01*
X120993Y55505D01*
X122912D01*
X123349Y55592D01*
X123720Y55839D01*
X123967Y56210D01*
X124054Y56647D01*
Y59353D01*
X123967Y59790D01*
X123720Y60161D01*
X123349Y60408D01*
X123278Y60422D01*
Y61746D01*
X123297Y61754D01*
X123834Y62166D01*
X124246Y62703D01*
X124505Y63329D01*
X124594Y64000D01*
X124505Y64671D01*
X124246Y65297D01*
X123834Y65834D01*
X123297Y66246D01*
X122671Y66505D01*
X122000Y66594D01*
D02*
G37*
G36*
X109000D02*
X108329Y66505D01*
X107703Y66246D01*
X107166Y65834D01*
X106754Y65297D01*
X106494Y64671D01*
X106406Y64000D01*
X106494Y63329D01*
X106754Y62703D01*
X107166Y62166D01*
X107627Y61812D01*
Y60422D01*
X107556Y60408D01*
X107186Y60161D01*
X106938Y59790D01*
X106851Y59353D01*
Y56647D01*
X106938Y56210D01*
X107186Y55839D01*
X107556Y55592D01*
X107993Y55505D01*
X109912D01*
X110349Y55592D01*
X110720Y55839D01*
X110967Y56210D01*
X111054Y56647D01*
Y59353D01*
X110967Y59790D01*
X110720Y60161D01*
X110349Y60408D01*
X110278Y60422D01*
Y61746D01*
X110297Y61754D01*
X110834Y62166D01*
X111246Y62703D01*
X111505Y63329D01*
X111594Y64000D01*
X111505Y64671D01*
X111246Y65297D01*
X110834Y65834D01*
X110297Y66246D01*
X109671Y66505D01*
X109000Y66594D01*
D02*
G37*
G36*
X68563Y61588D02*
X67587D01*
X67004Y61472D01*
X66511Y61143D01*
X66181Y60649D01*
X66065Y60067D01*
Y58500D01*
X68563D01*
Y61588D01*
D02*
G37*
G36*
X135000Y66594D02*
X134329Y66505D01*
X133703Y66246D01*
X133166Y65834D01*
X132754Y65297D01*
X132494Y64671D01*
X132406Y64000D01*
X132494Y63329D01*
X132754Y62703D01*
X133166Y62166D01*
X133627Y61812D01*
Y60422D01*
X133556Y60408D01*
X133186Y60161D01*
X132938Y59790D01*
X132851Y59353D01*
Y56647D01*
X132938Y56210D01*
X133186Y55839D01*
X133556Y55592D01*
X133993Y55505D01*
X135912D01*
X136349Y55592D01*
X136720Y55839D01*
X136967Y56210D01*
X137054Y56647D01*
Y59353D01*
X136967Y59790D01*
X136720Y60161D01*
X136349Y60408D01*
X136278Y60422D01*
Y61746D01*
X136297Y61754D01*
X136834Y62166D01*
X137246Y62703D01*
X137505Y63329D01*
X137594Y64000D01*
X137505Y64671D01*
X137246Y65297D01*
X136834Y65834D01*
X136297Y66246D01*
X135671Y66505D01*
X135000Y66594D01*
D02*
G37*
G36*
X303400Y79500D02*
X301594D01*
Y77301D01*
X302054D01*
X302569Y77403D01*
X303006Y77695D01*
X303297Y78132D01*
X303400Y78647D01*
Y79500D01*
D02*
G37*
G36*
X300594D02*
X298789D01*
Y78647D01*
X298892Y78132D01*
X299183Y77695D01*
X299620Y77403D01*
X300135Y77301D01*
X300594D01*
Y79500D01*
D02*
G37*
G36*
X60500Y80921D02*
Y77500D01*
X63921D01*
X63851Y78032D01*
X63453Y78993D01*
X62819Y79819D01*
X61993Y80453D01*
X61032Y80851D01*
X60500Y80921D01*
D02*
G37*
G36*
X59500D02*
X58968Y80851D01*
X58007Y80453D01*
X57181Y79819D01*
X56547Y78993D01*
X56149Y78032D01*
X56079Y77500D01*
X59500D01*
Y80921D01*
D02*
G37*
G36*
X91935Y78500D02*
X89437D01*
Y75412D01*
X90413D01*
X90996Y75528D01*
X91489Y75857D01*
X91819Y76351D01*
X91935Y76933D01*
Y78500D01*
D02*
G37*
G36*
X88437D02*
X85939D01*
Y76933D01*
X86055Y76351D01*
X86385Y75857D01*
X86878Y75528D01*
X87461Y75412D01*
X88437D01*
Y78500D01*
D02*
G37*
G36*
X383353Y77353D02*
X382500D01*
Y75547D01*
X384699D01*
Y76007D01*
X384597Y76522D01*
X384305Y76959D01*
X383868Y77250D01*
X383353Y77353D01*
D02*
G37*
G36*
X381500D02*
X380647D01*
X380132Y77250D01*
X379695Y76959D01*
X379403Y76522D01*
X379301Y76007D01*
Y75547D01*
X381500D01*
Y77353D01*
D02*
G37*
G36*
X363009Y81882D02*
X361500D01*
Y80176D01*
X361738D01*
X362224Y80273D01*
X362636Y80549D01*
X362912Y80961D01*
X363009Y81447D01*
Y81882D01*
D02*
G37*
G36*
X360500D02*
X358991D01*
Y81447D01*
X359088Y80961D01*
X359364Y80549D01*
X359776Y80273D01*
X360262Y80176D01*
X360500D01*
Y81882D01*
D02*
G37*
G36*
X367500Y81929D02*
X365991D01*
Y81494D01*
X366088Y81008D01*
X366364Y80596D01*
X366776Y80320D01*
X367262Y80224D01*
X367500D01*
Y81929D01*
D02*
G37*
G36*
X325500D02*
X323991D01*
Y81494D01*
X324088Y81008D01*
X324363Y80596D01*
X324776Y80320D01*
X325262Y80224D01*
X325500D01*
Y81929D01*
D02*
G37*
G36*
X236699Y80547D02*
X234500D01*
Y78742D01*
X235353D01*
X235868Y78844D01*
X236305Y79136D01*
X236597Y79573D01*
X236699Y80088D01*
Y80547D01*
D02*
G37*
G36*
X233500D02*
X231301D01*
Y80088D01*
X231403Y79573D01*
X231695Y79136D01*
X232132Y78844D01*
X232647Y78742D01*
X233500D01*
Y80547D01*
D02*
G37*
G36*
X90413Y82588D02*
X89437D01*
Y79500D01*
X91935D01*
Y81067D01*
X91819Y81649D01*
X91489Y82143D01*
X90996Y82472D01*
X90413Y82588D01*
D02*
G37*
G36*
X88437D02*
X87461D01*
X86878Y82472D01*
X86385Y82143D01*
X86055Y81649D01*
X85939Y81067D01*
Y79500D01*
X88437D01*
Y82588D01*
D02*
G37*
G36*
X311595Y73500D02*
X309789D01*
Y72647D01*
X309892Y72132D01*
X310183Y71695D01*
X310620Y71403D01*
X311135Y71301D01*
X311595D01*
Y73500D01*
D02*
G37*
G36*
X203500Y72969D02*
Y69500D01*
X206969D01*
X206897Y70044D01*
X206494Y71017D01*
X205853Y71853D01*
X205017Y72494D01*
X204044Y72897D01*
X203500Y72969D01*
D02*
G37*
G36*
X233500Y73258D02*
X232647D01*
X232132Y73156D01*
X231695Y72864D01*
X231403Y72427D01*
X231301Y71912D01*
Y71453D01*
X233500D01*
Y73258D01*
D02*
G37*
G36*
X314400Y73500D02*
X312595D01*
Y71301D01*
X313054D01*
X313569Y71403D01*
X314006Y71695D01*
X314297Y72132D01*
X314400Y72647D01*
Y73500D01*
D02*
G37*
G36*
X233500Y70453D02*
X231301D01*
Y69993D01*
X231403Y69478D01*
X231695Y69042D01*
X232132Y68750D01*
X232647Y68647D01*
X233500D01*
Y70453D01*
D02*
G37*
G36*
X381500Y70258D02*
X380647D01*
X380132Y70156D01*
X379695Y69864D01*
X379403Y69427D01*
X379301Y68912D01*
Y68453D01*
X381500D01*
Y70258D01*
D02*
G37*
G36*
X202500Y72969D02*
X201956Y72897D01*
X200983Y72494D01*
X200147Y71853D01*
X199506Y71017D01*
X199103Y70044D01*
X199031Y69500D01*
X202500D01*
Y72969D01*
D02*
G37*
G36*
X236699Y70453D02*
X234500D01*
Y68647D01*
X235353D01*
X235868Y68750D01*
X236305Y69042D01*
X236597Y69478D01*
X236699Y69993D01*
Y70453D01*
D02*
G37*
G36*
X63921Y76500D02*
X60500D01*
Y73079D01*
X61032Y73149D01*
X61993Y73547D01*
X62819Y74181D01*
X63453Y75007D01*
X63851Y75968D01*
X63921Y76500D01*
D02*
G37*
G36*
X59500D02*
X56079D01*
X56149Y75968D01*
X56547Y75007D01*
X57181Y74181D01*
X58007Y73547D01*
X58968Y73149D01*
X59500Y73079D01*
Y76500D01*
D02*
G37*
G36*
X313054Y76699D02*
X312595D01*
Y74500D01*
X314400D01*
Y75353D01*
X314297Y75868D01*
X314006Y76305D01*
X313569Y76597D01*
X313054Y76699D01*
D02*
G37*
G36*
X311595D02*
X311135D01*
X310620Y76597D01*
X310183Y76305D01*
X309892Y75868D01*
X309789Y75353D01*
Y74500D01*
X311595D01*
Y76699D01*
D02*
G37*
G36*
X339500Y74500D02*
X337301D01*
Y74040D01*
X337403Y73525D01*
X337695Y73089D01*
X338132Y72797D01*
X338647Y72695D01*
X339500D01*
Y74500D01*
D02*
G37*
G36*
X235353Y73258D02*
X234500D01*
Y71453D01*
X236699D01*
Y71912D01*
X236597Y72427D01*
X236305Y72864D01*
X235868Y73156D01*
X235353Y73258D01*
D02*
G37*
G36*
X384699Y74547D02*
X382500D01*
Y72742D01*
X383353D01*
X383868Y72844D01*
X384305Y73136D01*
X384597Y73573D01*
X384699Y74088D01*
Y74547D01*
D02*
G37*
G36*
X381500D02*
X379301D01*
Y74088D01*
X379403Y73573D01*
X379695Y73136D01*
X380132Y72844D01*
X380647Y72742D01*
X381500D01*
Y74547D01*
D02*
G37*
G36*
X352500Y46500D02*
X348628D01*
X348713Y45851D01*
X349157Y44781D01*
X349862Y43862D01*
X350781Y43157D01*
X351851Y42713D01*
X352500Y42628D01*
Y46500D01*
D02*
G37*
G36*
X452500D02*
X448628D01*
X448713Y45851D01*
X449157Y44781D01*
X449862Y43862D01*
X450781Y43157D01*
X451851Y42713D01*
X452500Y42628D01*
Y46500D01*
D02*
G37*
G36*
X392500D02*
X388628D01*
X388713Y45851D01*
X389157Y44781D01*
X389862Y43862D01*
X390781Y43157D01*
X391851Y42713D01*
X392500Y42628D01*
Y46500D01*
D02*
G37*
G36*
X372500D02*
X368628D01*
X368713Y45851D01*
X369157Y44781D01*
X369862Y43862D01*
X370781Y43157D01*
X371851Y42713D01*
X372500Y42628D01*
Y46500D01*
D02*
G37*
G36*
X187440D02*
X183500D01*
Y42560D01*
X185380D01*
X186168Y42717D01*
X186836Y43164D01*
X187283Y43832D01*
X187440Y44620D01*
Y46500D01*
D02*
G37*
G36*
X182500D02*
X178560D01*
Y44620D01*
X178717Y43832D01*
X179164Y43164D01*
X179832Y42717D01*
X180620Y42560D01*
X182500D01*
Y46500D01*
D02*
G37*
G36*
X207440D02*
X203500D01*
Y42560D01*
X205380D01*
X206168Y42717D01*
X206836Y43164D01*
X207283Y43832D01*
X207440Y44620D01*
Y46500D01*
D02*
G37*
G36*
X202500D02*
X198560D01*
Y44620D01*
X198717Y43832D01*
X199164Y43164D01*
X199832Y42717D01*
X200620Y42560D01*
X202500D01*
Y46500D01*
D02*
G37*
G36*
X417372D02*
X413500D01*
Y42628D01*
X414149Y42713D01*
X415219Y43157D01*
X416138Y43862D01*
X416843Y44781D01*
X417287Y45851D01*
X417372Y46500D01*
D02*
G37*
G36*
X397372D02*
X393500D01*
Y42628D01*
X394149Y42713D01*
X395219Y43157D01*
X396138Y43862D01*
X396843Y44781D01*
X397287Y45851D01*
X397372Y46500D01*
D02*
G37*
G36*
X457372D02*
X453500D01*
Y42628D01*
X454149Y42713D01*
X455219Y43157D01*
X456138Y43862D01*
X456843Y44781D01*
X457287Y45851D01*
X457372Y46500D01*
D02*
G37*
G36*
X437372D02*
X433500D01*
Y42628D01*
X434149Y42713D01*
X435219Y43157D01*
X436138Y43862D01*
X436843Y44781D01*
X437287Y45851D01*
X437372Y46500D01*
D02*
G37*
G36*
X432500D02*
X428628D01*
X428713Y45851D01*
X429157Y44781D01*
X429862Y43862D01*
X430781Y43157D01*
X431851Y42713D01*
X432500Y42628D01*
Y46500D01*
D02*
G37*
G36*
X412500D02*
X408628D01*
X408713Y45851D01*
X409157Y44781D01*
X409862Y43862D01*
X410781Y43157D01*
X411851Y42713D01*
X412500Y42628D01*
Y46500D01*
D02*
G37*
G36*
X377372D02*
X373500D01*
Y42628D01*
X374149Y42713D01*
X375219Y43157D01*
X376138Y43862D01*
X376843Y44781D01*
X377287Y45851D01*
X377372Y46500D01*
D02*
G37*
G36*
X357372D02*
X353500D01*
Y42628D01*
X354149Y42713D01*
X355219Y43157D01*
X356138Y43862D01*
X356843Y44781D01*
X357287Y45851D01*
X357372Y46500D01*
D02*
G37*
G36*
X67440D02*
X63500D01*
Y42560D01*
X65380D01*
X66168Y42717D01*
X66836Y43164D01*
X67283Y43832D01*
X67440Y44620D01*
Y46500D01*
D02*
G37*
G36*
X62500D02*
X58560D01*
Y44620D01*
X58717Y43832D01*
X59164Y43164D01*
X59832Y42717D01*
X60620Y42560D01*
X62500D01*
Y46500D01*
D02*
G37*
G36*
X87440D02*
X83500D01*
Y42560D01*
X85380D01*
X86168Y42717D01*
X86836Y43164D01*
X87283Y43832D01*
X87440Y44620D01*
Y46500D01*
D02*
G37*
G36*
X82500D02*
X78560D01*
Y44620D01*
X78717Y43832D01*
X79164Y43164D01*
X79832Y42717D01*
X80620Y42560D01*
X82500D01*
Y46500D01*
D02*
G37*
G36*
X521185Y47413D02*
X517500D01*
Y41760D01*
X519362D01*
X520060Y41899D01*
X520651Y42294D01*
X521046Y42885D01*
X521185Y43583D01*
Y47413D01*
D02*
G37*
G36*
X516500D02*
X512815D01*
Y43583D01*
X512954Y42885D01*
X513349Y42294D01*
X513940Y41899D01*
X514638Y41760D01*
X516500D01*
Y47413D01*
D02*
G37*
G36*
X499350Y44382D02*
X497240D01*
Y41937D01*
X497528D01*
X498225Y42076D01*
X498816Y42471D01*
X499211Y43062D01*
X499350Y43760D01*
Y44382D01*
D02*
G37*
G36*
X496240D02*
X494130D01*
Y43760D01*
X494269Y43062D01*
X494664Y42471D01*
X495255Y42076D01*
X495953Y41937D01*
X496240D01*
Y44382D01*
D02*
G37*
G36*
X147440Y46500D02*
X143500D01*
Y42560D01*
X145380D01*
X146168Y42717D01*
X146836Y43164D01*
X147283Y43832D01*
X147440Y44620D01*
Y46500D01*
D02*
G37*
G36*
X142500D02*
X138560D01*
Y44620D01*
X138717Y43832D01*
X139164Y43164D01*
X139832Y42717D01*
X140620Y42560D01*
X142500D01*
Y46500D01*
D02*
G37*
G36*
X167440D02*
X163500D01*
Y42560D01*
X165380D01*
X166168Y42717D01*
X166836Y43164D01*
X167283Y43832D01*
X167440Y44620D01*
Y46500D01*
D02*
G37*
G36*
X162500D02*
X158560D01*
Y44620D01*
X158717Y43832D01*
X159164Y43164D01*
X159832Y42717D01*
X160620Y42560D01*
X162500D01*
Y46500D01*
D02*
G37*
G36*
X107440D02*
X103500D01*
Y42560D01*
X105380D01*
X106168Y42717D01*
X106836Y43164D01*
X107283Y43832D01*
X107440Y44620D01*
Y46500D01*
D02*
G37*
G36*
X102500D02*
X98560D01*
Y44620D01*
X98717Y43832D01*
X99164Y43164D01*
X99832Y42717D01*
X100620Y42560D01*
X102500D01*
Y46500D01*
D02*
G37*
G36*
X127440D02*
X123500D01*
Y42560D01*
X125380D01*
X126168Y42717D01*
X126836Y43164D01*
X127283Y43832D01*
X127440Y44620D01*
Y46500D01*
D02*
G37*
G36*
X122500D02*
X118560D01*
Y44620D01*
X118717Y43832D01*
X119164Y43164D01*
X119832Y42717D01*
X120620Y42560D01*
X122500D01*
Y46500D01*
D02*
G37*
G36*
X373500Y51372D02*
Y47500D01*
X377372D01*
X377287Y48149D01*
X376843Y49219D01*
X376138Y50138D01*
X375219Y50843D01*
X374149Y51287D01*
X373500Y51372D01*
D02*
G37*
G36*
X353500D02*
Y47500D01*
X357372D01*
X357287Y48149D01*
X356843Y49219D01*
X356138Y50138D01*
X355219Y50843D01*
X354149Y51287D01*
X353500Y51372D01*
D02*
G37*
G36*
X413500D02*
Y47500D01*
X417372D01*
X417287Y48149D01*
X416843Y49219D01*
X416138Y50138D01*
X415219Y50843D01*
X414149Y51287D01*
X413500Y51372D01*
D02*
G37*
G36*
X393500D02*
Y47500D01*
X397372D01*
X397287Y48149D01*
X396843Y49219D01*
X396138Y50138D01*
X395219Y50843D01*
X394149Y51287D01*
X393500Y51372D01*
D02*
G37*
G36*
X65380Y51440D02*
X63500D01*
Y47500D01*
X67440D01*
Y49380D01*
X67283Y50168D01*
X66836Y50836D01*
X66168Y51283D01*
X65380Y51440D01*
D02*
G37*
G36*
X452500Y51372D02*
X451851Y51287D01*
X450781Y50843D01*
X449862Y50138D01*
X449157Y49219D01*
X448713Y48149D01*
X448628Y47500D01*
X452500D01*
Y51372D01*
D02*
G37*
G36*
X205380Y51440D02*
X203500D01*
Y47500D01*
X207440D01*
Y49380D01*
X207283Y50168D01*
X206836Y50836D01*
X206168Y51283D01*
X205380Y51440D01*
D02*
G37*
G36*
X85380D02*
X83500D01*
Y47500D01*
X87440D01*
Y49380D01*
X87283Y50168D01*
X86836Y50836D01*
X86168Y51283D01*
X85380Y51440D01*
D02*
G37*
G36*
X483699Y50453D02*
X481500D01*
Y48647D01*
X482353D01*
X482868Y48750D01*
X483305Y49042D01*
X483597Y49478D01*
X483699Y49993D01*
Y50453D01*
D02*
G37*
G36*
X480500D02*
X478301D01*
Y49993D01*
X478403Y49478D01*
X478695Y49042D01*
X479132Y48750D01*
X479647Y48647D01*
X480500D01*
Y50453D01*
D02*
G37*
G36*
X76912Y69495D02*
X74993D01*
X74556Y69408D01*
X74186Y69161D01*
X73938Y68790D01*
X73851Y68353D01*
Y65647D01*
X73938Y65210D01*
X74186Y64839D01*
X74556Y64592D01*
X74627Y64578D01*
Y61064D01*
X74529Y60998D01*
X74243Y60571D01*
X74143Y60067D01*
Y55933D01*
X74243Y55429D01*
X74529Y55001D01*
X74957Y54716D01*
X75461Y54616D01*
X75612D01*
Y51486D01*
X74889Y50764D01*
X74096Y51092D01*
X73000Y51236D01*
X71904Y51092D01*
X70882Y50669D01*
X70004Y49995D01*
X69331Y49118D01*
X68908Y48096D01*
X68764Y47000D01*
X68908Y45904D01*
X69331Y44882D01*
X70004Y44004D01*
X70882Y43331D01*
X71904Y42908D01*
X73000Y42764D01*
X74096Y42908D01*
X75118Y43331D01*
X75995Y44004D01*
X76669Y44882D01*
X77092Y45904D01*
X77236Y47000D01*
X77092Y48096D01*
X76764Y48889D01*
X77874Y50000D01*
X78619Y49674D01*
X78560Y49380D01*
Y47500D01*
X82500D01*
Y51440D01*
X80620D01*
X79832Y51283D01*
X79164Y50836D01*
X79013Y50612D01*
X78260Y50924D01*
X78263Y50937D01*
Y54616D01*
X78413D01*
X78918Y54716D01*
X79345Y55001D01*
X79631Y55429D01*
X79731Y55933D01*
Y60067D01*
X79631Y60571D01*
X79345Y60998D01*
X78918Y61284D01*
X78413Y61384D01*
X77278D01*
Y64578D01*
X77349Y64592D01*
X77720Y64839D01*
X77967Y65210D01*
X78054Y65647D01*
Y68353D01*
X77967Y68790D01*
X77720Y69161D01*
X77349Y69408D01*
X76912Y69495D01*
D02*
G37*
G36*
X130007Y60495D02*
X128088D01*
X127651Y60408D01*
X127280Y60161D01*
X127033Y59790D01*
X126946Y59353D01*
Y56647D01*
X127033Y56210D01*
X127280Y55839D01*
X127651Y55592D01*
X127722Y55578D01*
Y50953D01*
X127722Y50950D01*
X126969Y50638D01*
X126836Y50836D01*
X126168Y51283D01*
X125380Y51440D01*
X123500D01*
Y47500D01*
X127440D01*
Y49380D01*
X127383Y49663D01*
X128063Y49993D01*
X128133Y49992D01*
X129236Y48889D01*
X128908Y48096D01*
X128764Y47000D01*
X128908Y45904D01*
X129331Y44882D01*
X130005Y44004D01*
X130882Y43331D01*
X131904Y42908D01*
X133000Y42764D01*
X134096Y42908D01*
X135118Y43331D01*
X135995Y44004D01*
X136669Y44882D01*
X137092Y45904D01*
X137236Y47000D01*
X137092Y48096D01*
X136669Y49118D01*
X135995Y49995D01*
X135118Y50669D01*
X134096Y51092D01*
X133000Y51236D01*
X131904Y51092D01*
X131111Y50764D01*
X130373Y51502D01*
Y55578D01*
X130444Y55592D01*
X130814Y55839D01*
X131062Y56210D01*
X131149Y56647D01*
Y59353D01*
X131062Y59790D01*
X130814Y60161D01*
X130444Y60408D01*
X130007Y60495D01*
D02*
G37*
G36*
X453500Y51372D02*
Y47500D01*
X457372D01*
X457287Y48149D01*
X456843Y49219D01*
X456138Y50138D01*
X455219Y50843D01*
X454149Y51287D01*
X453500Y51372D01*
D02*
G37*
G36*
X433500D02*
Y47500D01*
X437372D01*
X437287Y48149D01*
X436843Y49219D01*
X436138Y50138D01*
X435219Y50843D01*
X434149Y51287D01*
X433500Y51372D01*
D02*
G37*
G36*
X519362Y54066D02*
X517500D01*
Y48413D01*
X521185D01*
Y52244D01*
X521046Y52942D01*
X520651Y53533D01*
X520060Y53928D01*
X519362Y54066D01*
D02*
G37*
G36*
X105380Y51440D02*
X103500D01*
Y47500D01*
X107440D01*
Y49380D01*
X107283Y50168D01*
X106836Y50836D01*
X106168Y51283D01*
X105380Y51440D01*
D02*
G37*
G36*
X62500D02*
X60620D01*
X59832Y51283D01*
X59164Y50836D01*
X58717Y50168D01*
X58560Y49380D01*
Y47500D01*
X62500D01*
Y51440D01*
D02*
G37*
G36*
X490047Y47622D02*
X488472D01*
X487853Y47499D01*
X487328Y47148D01*
X486977Y46623D01*
X486894Y46207D01*
X483455D01*
X483408Y46444D01*
X483161Y46814D01*
X482790Y47062D01*
X482353Y47149D01*
X479647D01*
X479210Y47062D01*
X478839Y46814D01*
X478592Y46444D01*
X478578Y46373D01*
X476188D01*
X475834Y46834D01*
X475297Y47246D01*
X474671Y47506D01*
X474000Y47594D01*
X473329Y47506D01*
X472703Y47246D01*
X472166Y46834D01*
X471754Y46297D01*
X471494Y45671D01*
X471406Y45000D01*
X471494Y44329D01*
X471754Y43703D01*
X472166Y43166D01*
X472703Y42754D01*
X473329Y42494D01*
X474000Y42406D01*
X474671Y42494D01*
X475297Y42754D01*
X475834Y43166D01*
X476246Y43703D01*
X476254Y43722D01*
X478578D01*
X478592Y43651D01*
X478839Y43280D01*
X479210Y43033D01*
X479647Y42946D01*
X482353D01*
X482790Y43033D01*
X483161Y43280D01*
X483345Y43556D01*
X486894D01*
X486977Y43141D01*
X487328Y42615D01*
X487853Y42265D01*
X488472Y42141D01*
X490047D01*
X490667Y42265D01*
X491192Y42615D01*
X491542Y43141D01*
X491666Y43760D01*
Y46004D01*
X491542Y46623D01*
X491192Y47148D01*
X490667Y47499D01*
X490047Y47622D01*
D02*
G37*
G36*
X142500Y51440D02*
X140620D01*
X139832Y51283D01*
X139164Y50836D01*
X138717Y50168D01*
X138560Y49380D01*
Y47500D01*
X142500D01*
Y51440D01*
D02*
G37*
G36*
X122500D02*
X120620D01*
X119832Y51283D01*
X119164Y50836D01*
X118717Y50168D01*
X118560Y49380D01*
Y47500D01*
X122500D01*
Y51440D01*
D02*
G37*
G36*
X161912Y60495D02*
X159993D01*
X159556Y60408D01*
X159186Y60161D01*
X158938Y59790D01*
X158851Y59353D01*
Y56647D01*
X158938Y56210D01*
X159186Y55839D01*
X159556Y55592D01*
X159627Y55578D01*
Y54047D01*
X159728Y53540D01*
X160015Y53110D01*
X160947Y52179D01*
X160762Y51733D01*
X160565Y51429D01*
X159832Y51283D01*
X159164Y50836D01*
X158717Y50168D01*
X158560Y49380D01*
Y47500D01*
X163000D01*
X167440D01*
Y49380D01*
X167396Y49598D01*
X168133Y49992D01*
X169236Y48889D01*
X168908Y48096D01*
X168764Y47000D01*
X168908Y45904D01*
X169331Y44882D01*
X170004Y44004D01*
X170882Y43331D01*
X171904Y42908D01*
X173000Y42764D01*
X174096Y42908D01*
X175118Y43331D01*
X175996Y44004D01*
X176669Y44882D01*
X177092Y45904D01*
X177236Y47000D01*
X177092Y48096D01*
X176669Y49118D01*
X175996Y49995D01*
X175118Y50669D01*
X174096Y51092D01*
X173000Y51236D01*
X171904Y51092D01*
X171111Y50764D01*
X168937Y52937D01*
X168507Y53225D01*
X168000Y53325D01*
X163549D01*
X162278Y54596D01*
Y55578D01*
X162349Y55592D01*
X162720Y55839D01*
X162967Y56210D01*
X163054Y56647D01*
Y59353D01*
X162967Y59790D01*
X162720Y60161D01*
X162349Y60408D01*
X161912Y60495D01*
D02*
G37*
G36*
X117007D02*
X115088D01*
X114651Y60408D01*
X114280Y60161D01*
X114033Y59790D01*
X113946Y59353D01*
Y57773D01*
X112063Y55890D01*
X111775Y55460D01*
X111674Y54953D01*
Y50997D01*
X110882Y50669D01*
X110004Y49995D01*
X109331Y49118D01*
X108908Y48096D01*
X108764Y47000D01*
X108908Y45904D01*
X109331Y44882D01*
X110004Y44004D01*
X110882Y43331D01*
X111904Y42908D01*
X113000Y42764D01*
X114096Y42908D01*
X115118Y43331D01*
X115996Y44004D01*
X116669Y44882D01*
X117092Y45904D01*
X117236Y47000D01*
X117092Y48096D01*
X116669Y49118D01*
X115996Y49995D01*
X115118Y50669D01*
X114325Y50997D01*
Y54404D01*
X115427Y55505D01*
X117007D01*
X117444Y55592D01*
X117814Y55839D01*
X118062Y56210D01*
X118149Y56647D01*
Y59353D01*
X118062Y59790D01*
X117814Y60161D01*
X117444Y60408D01*
X117007Y60495D01*
D02*
G37*
G36*
X497528Y47826D02*
X497240D01*
Y45382D01*
X499350D01*
Y46004D01*
X499211Y46701D01*
X498816Y47293D01*
X498225Y47688D01*
X497528Y47826D01*
D02*
G37*
G36*
X496240D02*
X495953D01*
X495255Y47688D01*
X494664Y47293D01*
X494269Y46701D01*
X494130Y46004D01*
Y45382D01*
X496240D01*
Y47826D01*
D02*
G37*
G36*
X392500Y51372D02*
X391851Y51287D01*
X390781Y50843D01*
X389862Y50138D01*
X389157Y49219D01*
X388713Y48149D01*
X388628Y47500D01*
X392500D01*
Y51372D01*
D02*
G37*
G36*
X372500D02*
X371851Y51287D01*
X370781Y50843D01*
X369862Y50138D01*
X369157Y49219D01*
X368713Y48149D01*
X368628Y47500D01*
X372500D01*
Y51372D01*
D02*
G37*
G36*
X432500D02*
X431851Y51287D01*
X430781Y50843D01*
X429862Y50138D01*
X429157Y49219D01*
X428713Y48149D01*
X428628Y47500D01*
X432500D01*
Y51372D01*
D02*
G37*
G36*
X412500D02*
X411851Y51287D01*
X410781Y50843D01*
X409862Y50138D01*
X409157Y49219D01*
X408713Y48149D01*
X408628Y47500D01*
X412500D01*
Y51372D01*
D02*
G37*
G36*
X202500Y51440D02*
X200620D01*
X199832Y51283D01*
X199164Y50836D01*
X198717Y50168D01*
X198560Y49380D01*
Y47500D01*
X202500D01*
Y51440D01*
D02*
G37*
G36*
X182500D02*
X180620D01*
X179832Y51283D01*
X179164Y50836D01*
X178717Y50168D01*
X178560Y49380D01*
Y47500D01*
X182500D01*
Y51440D01*
D02*
G37*
G36*
X352500Y51372D02*
X351851Y51287D01*
X350781Y50843D01*
X349862Y50138D01*
X349157Y49219D01*
X348713Y48149D01*
X348628Y47500D01*
X352500D01*
Y51372D01*
D02*
G37*
G36*
X102500Y51440D02*
X100620D01*
X99832Y51283D01*
X99164Y50836D01*
X98717Y50168D01*
X98560Y49380D01*
Y47500D01*
X102500D01*
Y51440D01*
D02*
G37*
G36*
X370009Y81929D02*
X368500D01*
Y80224D01*
X368738D01*
X369224Y80320D01*
X369637Y80596D01*
X369912Y81008D01*
X370009Y81494D01*
Y81929D01*
D02*
G37*
G36*
X269547Y133699D02*
X269088D01*
X268573Y133597D01*
X268136Y133305D01*
X267844Y132868D01*
X267742Y132353D01*
Y131500D01*
X269547D01*
Y133699D01*
D02*
G37*
G36*
X271007D02*
X270547D01*
Y131500D01*
X272353D01*
Y132353D01*
X272250Y132868D01*
X271958Y133305D01*
X271522Y133597D01*
X271007Y133699D01*
D02*
G37*
G36*
X369500Y133547D02*
X367301D01*
Y133088D01*
X367403Y132573D01*
X367695Y132136D01*
X368132Y131844D01*
X368647Y131742D01*
X369500D01*
Y133547D01*
D02*
G37*
G36*
X142007Y132495D02*
X140088D01*
X139651Y132408D01*
X139280Y132161D01*
X139033Y131790D01*
X138946Y131353D01*
Y130964D01*
X129942D01*
X129695Y131333D01*
X129235Y131641D01*
X128693Y131748D01*
X125543D01*
X125001Y131641D01*
X124541Y131333D01*
X124233Y130873D01*
X124126Y130331D01*
Y129150D01*
X124233Y128607D01*
X124541Y128147D01*
X124186Y127422D01*
X124045Y127211D01*
X123922Y126591D01*
Y126500D01*
X127118D01*
X130315D01*
Y126591D01*
X130191Y127211D01*
X130050Y127422D01*
X129853Y127824D01*
X130242Y128517D01*
X138972D01*
X139033Y128210D01*
X139280Y127839D01*
X139651Y127592D01*
X140088Y127505D01*
X142007D01*
X142444Y127592D01*
X142814Y127839D01*
X143062Y128210D01*
X143149Y128647D01*
Y131353D01*
X143062Y131790D01*
X142814Y132161D01*
X142444Y132408D01*
X142007Y132495D01*
D02*
G37*
G36*
X272353Y130500D02*
X270547D01*
Y128301D01*
X271007D01*
X271522Y128403D01*
X271958Y128695D01*
X272250Y129132D01*
X272353Y129647D01*
Y130500D01*
D02*
G37*
G36*
X300500Y132453D02*
X298301D01*
Y131993D01*
X298403Y131478D01*
X298695Y131042D01*
X299132Y130750D01*
X299647Y130647D01*
X300500D01*
Y132453D01*
D02*
G37*
G36*
X303699D02*
X301500D01*
Y130647D01*
X302353D01*
X302868Y130750D01*
X303305Y131042D01*
X303597Y131478D01*
X303699Y131993D01*
Y132453D01*
D02*
G37*
G36*
X387500Y133547D02*
X385301D01*
Y133088D01*
X385403Y132573D01*
X385695Y132136D01*
X386132Y131844D01*
X386647Y131742D01*
X387500D01*
Y133547D01*
D02*
G37*
G36*
Y136353D02*
X386647D01*
X386132Y136250D01*
X385695Y135959D01*
X385403Y135522D01*
X385301Y135007D01*
Y134547D01*
X387500D01*
Y136353D01*
D02*
G37*
G36*
X389353D02*
X388500D01*
Y134547D01*
X390699D01*
Y135007D01*
X390597Y135522D01*
X390305Y135959D01*
X389868Y136250D01*
X389353Y136353D01*
D02*
G37*
G36*
X120912Y154495D02*
X118993D01*
X118556Y154408D01*
X118186Y154161D01*
X117938Y153790D01*
X117851Y153353D01*
Y150647D01*
X117938Y150210D01*
X118186Y149839D01*
X118556Y149592D01*
X118993Y149505D01*
X120912D01*
X121349Y149592D01*
X121720Y149839D01*
X121967Y150210D01*
X122054Y150647D01*
Y150674D01*
X124773D01*
X125018Y150139D01*
X125047Y149874D01*
X122227Y147054D01*
X120647D01*
X120210Y146967D01*
X119839Y146720D01*
X119592Y146349D01*
X119587Y146326D01*
X115224D01*
X114834Y146834D01*
X114297Y147246D01*
X113671Y147505D01*
X113000Y147594D01*
X112329Y147505D01*
X111703Y147246D01*
X111166Y146834D01*
X110754Y146297D01*
X110494Y145671D01*
X110406Y145000D01*
X110494Y144329D01*
X110754Y143703D01*
X111166Y143166D01*
X111703Y142754D01*
X112329Y142494D01*
X113000Y142406D01*
X113671Y142494D01*
X114297Y142754D01*
X114834Y143166D01*
X115224Y143675D01*
X119568D01*
X119592Y143556D01*
X119839Y143186D01*
X120210Y142938D01*
X120647Y142851D01*
X122227D01*
X122926Y142153D01*
X122594Y141353D01*
X122500D01*
Y139047D01*
X122000D01*
Y138547D01*
X119301D01*
Y138088D01*
X119395Y137616D01*
X119396Y137561D01*
X118947Y136816D01*
X104535Y136816D01*
X104055Y137616D01*
X104503Y138454D01*
X104922Y139835D01*
X105064Y141272D01*
X104922Y142708D01*
X104503Y144089D01*
X103823Y145362D01*
X102907Y146478D01*
X101791Y147394D01*
X100519Y148074D01*
X99137Y148493D01*
X97701Y148635D01*
X96264Y148493D01*
X94883Y148074D01*
X93610Y147394D01*
X92494Y146478D01*
X91579Y145362D01*
X90898Y144089D01*
X90479Y142708D01*
X90338Y141272D01*
X90479Y139835D01*
X90898Y138454D01*
X91346Y137616D01*
X90867Y136816D01*
X60000Y136816D01*
X59688Y136753D01*
X59423Y136577D01*
X59246Y136312D01*
X59184Y136000D01*
X59184Y125073D01*
X53728D01*
X52831Y124895D01*
X52070Y124387D01*
X44342Y116658D01*
X43833Y115897D01*
X43655Y115000D01*
Y108600D01*
X38900D01*
Y101000D01*
X53100D01*
Y108600D01*
X48345D01*
Y114029D01*
X54700Y120383D01*
X59184D01*
Y117000D01*
X59246Y116688D01*
X59423Y116423D01*
X59688Y116246D01*
X60000Y116184D01*
X102128Y116184D01*
X102821Y115571D01*
Y114594D01*
X107000D01*
X111179D01*
Y115384D01*
X111388Y115756D01*
X111872Y116184D01*
X121000D01*
X121312Y116246D01*
X121577Y116423D01*
X121754Y116688D01*
X121816Y117000D01*
X121816Y135942D01*
X121829Y136019D01*
X122297Y136662D01*
X122422Y136742D01*
X123353D01*
X123868Y136844D01*
X124305Y137136D01*
X124597Y137573D01*
X124699Y138088D01*
Y139248D01*
X125499Y139579D01*
X126015Y139063D01*
X126445Y138775D01*
X126953Y138674D01*
X127946D01*
Y138647D01*
X128033Y138210D01*
X128280Y137839D01*
X128651Y137592D01*
X129088Y137505D01*
X131007D01*
X131444Y137592D01*
X131814Y137839D01*
X132062Y138210D01*
X132149Y138647D01*
Y141353D01*
X132062Y141790D01*
X131814Y142161D01*
X131444Y142408D01*
X131007Y142495D01*
X129088D01*
X128651Y142408D01*
X128280Y142161D01*
X128080Y141861D01*
X127910Y141769D01*
X127187Y141640D01*
X124495Y144332D01*
Y145573D01*
X126596Y147675D01*
X127946D01*
Y147647D01*
X128033Y147210D01*
X128280Y146839D01*
X128651Y146592D01*
X129088Y146505D01*
X131007D01*
X131444Y146592D01*
X131814Y146839D01*
X132062Y147210D01*
X132149Y147647D01*
Y149798D01*
X132949Y150129D01*
X133851Y149227D01*
Y147647D01*
X133938Y147210D01*
X134186Y146839D01*
X134556Y146592D01*
X134993Y146505D01*
X136912D01*
X137349Y146592D01*
X137720Y146839D01*
X137967Y147210D01*
X138054Y147647D01*
Y147675D01*
X141552D01*
X141582Y147604D01*
X142025Y147026D01*
X142604Y146582D01*
X143277Y146303D01*
X144000Y146208D01*
X144723Y146303D01*
X144793Y146332D01*
X147675Y143451D01*
Y140000D01*
X147775Y139493D01*
X148063Y139063D01*
X150567Y136558D01*
X150322Y135672D01*
X150226Y135648D01*
X146668Y139207D01*
X146697Y139277D01*
X146792Y140000D01*
X146697Y140723D01*
X146418Y141396D01*
X145975Y141974D01*
X145396Y142418D01*
X144723Y142697D01*
X144000Y142792D01*
X143277Y142697D01*
X142604Y142418D01*
X142025Y141974D01*
X141582Y141396D01*
X141552Y141325D01*
X138054D01*
Y141353D01*
X137967Y141790D01*
X137720Y142161D01*
X137349Y142408D01*
X136912Y142495D01*
X134993D01*
X134556Y142408D01*
X134186Y142161D01*
X133938Y141790D01*
X133851Y141353D01*
Y138647D01*
X133938Y138210D01*
X134186Y137839D01*
X134556Y137592D01*
X134993Y137505D01*
X136912D01*
X137349Y137592D01*
X137720Y137839D01*
X137967Y138210D01*
X138054Y138647D01*
Y138674D01*
X141552D01*
X141582Y138604D01*
X142025Y138025D01*
X142604Y137582D01*
X143277Y137303D01*
X144000Y137208D01*
X144723Y137303D01*
X144793Y137332D01*
X149189Y132937D01*
X149619Y132649D01*
X150126Y132548D01*
X155094D01*
X155429Y132098D01*
X155578Y131748D01*
X155482Y131266D01*
Y131224D01*
X159465D01*
X163447D01*
Y131266D01*
X163328Y131867D01*
X162987Y132377D01*
X162956Y132535D01*
X163139Y132809D01*
X163244Y133333D01*
Y134415D01*
X163139Y134939D01*
X162843Y135382D01*
Y135515D01*
X163139Y135959D01*
X163244Y136482D01*
Y137565D01*
X163139Y138088D01*
X162843Y138532D01*
X162399Y138829D01*
X161876Y138933D01*
X157053D01*
X156530Y138829D01*
X156086Y138532D01*
X155964Y138349D01*
X152525D01*
X150326Y140549D01*
Y144000D01*
X150225Y144507D01*
X149937Y144937D01*
X146668Y148206D01*
X146697Y148277D01*
X146792Y149000D01*
X146697Y149723D01*
X146418Y150396D01*
X145975Y150975D01*
X145396Y151418D01*
X144723Y151697D01*
X144000Y151792D01*
X143277Y151697D01*
X142604Y151418D01*
X142025Y150975D01*
X141582Y150396D01*
X141552Y150326D01*
X138054D01*
Y150353D01*
X137967Y150790D01*
X137720Y151161D01*
X137349Y151408D01*
X136912Y151495D01*
X135332D01*
X133890Y152937D01*
X133460Y153225D01*
X132953Y153325D01*
X122054D01*
Y153353D01*
X121967Y153790D01*
X121720Y154161D01*
X121349Y154408D01*
X120912Y154495D01*
D02*
G37*
G36*
X50299Y148635D02*
X48863Y148493D01*
X47482Y148074D01*
X46209Y147394D01*
X45093Y146478D01*
X44177Y145362D01*
X43497Y144089D01*
X43078Y142708D01*
X42936Y141272D01*
X43078Y139835D01*
X43497Y138454D01*
X44177Y137181D01*
X45093Y136065D01*
X46209Y135150D01*
X47482Y134469D01*
X48863Y134050D01*
X50299Y133909D01*
X51736Y134050D01*
X53117Y134469D01*
X54390Y135150D01*
X55506Y136065D01*
X56421Y137181D01*
X57102Y138454D01*
X57521Y139835D01*
X57662Y141272D01*
X57521Y142708D01*
X57102Y144089D01*
X56421Y145362D01*
X55506Y146478D01*
X54390Y147394D01*
X53117Y148074D01*
X51736Y148493D01*
X50299Y148635D01*
D02*
G37*
G36*
X390699Y133547D02*
X388500D01*
Y131742D01*
X389353D01*
X389868Y131844D01*
X390305Y132136D01*
X390597Y132573D01*
X390699Y133088D01*
Y133547D01*
D02*
G37*
G36*
X300500Y135258D02*
X299647D01*
X299132Y135156D01*
X298695Y134864D01*
X298403Y134427D01*
X298301Y133912D01*
Y133453D01*
X300500D01*
Y135258D01*
D02*
G37*
G36*
X302353D02*
X301500D01*
Y133453D01*
X303699D01*
Y133912D01*
X303597Y134427D01*
X303305Y134864D01*
X302868Y135156D01*
X302353Y135258D01*
D02*
G37*
G36*
X410738Y121776D02*
X410500D01*
Y120071D01*
X412009D01*
Y120506D01*
X411912Y120992D01*
X411636Y121404D01*
X411224Y121680D01*
X410738Y121776D01*
D02*
G37*
G36*
X256078Y122760D02*
X253382D01*
Y121048D01*
X254457D01*
X255077Y121171D01*
X255603Y121523D01*
X255955Y122049D01*
X256078Y122669D01*
Y122760D01*
D02*
G37*
G36*
X369500Y126453D02*
X367301D01*
Y125993D01*
X367403Y125478D01*
X367695Y125041D01*
X368132Y124750D01*
X368647Y124647D01*
X369500D01*
Y126453D01*
D02*
G37*
G36*
X409500Y121776D02*
X409262D01*
X408776Y121680D01*
X408363Y121404D01*
X408088Y120992D01*
X407991Y120506D01*
Y120071D01*
X409500D01*
Y121776D01*
D02*
G37*
G36*
X130315Y125500D02*
X127118D01*
X123922D01*
Y125409D01*
X124045Y124789D01*
X124186Y124578D01*
X124541Y123853D01*
X124233Y123393D01*
X124126Y122850D01*
Y121669D01*
X124233Y121127D01*
X124541Y120667D01*
X125001Y120359D01*
X125543Y120252D01*
X128693D01*
X129235Y120359D01*
X129695Y120667D01*
X129769Y120776D01*
X138946D01*
Y120647D01*
X139033Y120210D01*
X139280Y119839D01*
X139651Y119592D01*
X140088Y119505D01*
X142007D01*
X142444Y119592D01*
X142814Y119839D01*
X143062Y120210D01*
X143149Y120647D01*
Y123353D01*
X143062Y123790D01*
X142814Y124161D01*
X142444Y124408D01*
X142007Y124495D01*
X140088D01*
X139651Y124408D01*
X139280Y124161D01*
X139033Y123790D01*
X138946Y123353D01*
Y123223D01*
X130099D01*
X130004Y123389D01*
X130003Y123393D01*
X129990Y123412D01*
X129713Y123890D01*
X130050Y124578D01*
X130191Y124789D01*
X130315Y125409D01*
Y125500D01*
D02*
G37*
G36*
X399500Y121776D02*
X399262D01*
X398776Y121680D01*
X398363Y121404D01*
X398088Y120992D01*
X397991Y120506D01*
Y120071D01*
X399500D01*
Y121776D01*
D02*
G37*
G36*
X400738D02*
X400500D01*
Y120071D01*
X402009D01*
Y120506D01*
X401912Y120992D01*
X401637Y121404D01*
X401224Y121680D01*
X400738Y121776D01*
D02*
G37*
G36*
X372699Y126453D02*
X370500D01*
Y124647D01*
X371353D01*
X371868Y124750D01*
X372305Y125041D01*
X372597Y125478D01*
X372699Y125993D01*
Y126453D01*
D02*
G37*
G36*
X371353Y129258D02*
X370500D01*
Y127453D01*
X372699D01*
Y127912D01*
X372597Y128427D01*
X372305Y128864D01*
X371868Y129156D01*
X371353Y129258D01*
D02*
G37*
G36*
X389353D02*
X388500D01*
Y127453D01*
X390699D01*
Y127912D01*
X390597Y128427D01*
X390305Y128864D01*
X389868Y129156D01*
X389353Y129258D01*
D02*
G37*
G36*
X269547Y130500D02*
X267742D01*
Y129647D01*
X267844Y129132D01*
X268136Y128695D01*
X268573Y128403D01*
X269088Y128301D01*
X269547D01*
Y130500D01*
D02*
G37*
G36*
X387500Y129258D02*
X386647D01*
X386132Y129156D01*
X385695Y128864D01*
X385403Y128427D01*
X385301Y127912D01*
Y127453D01*
X387500D01*
Y129258D01*
D02*
G37*
G36*
Y126453D02*
X385301D01*
Y125993D01*
X385403Y125478D01*
X385695Y125041D01*
X386132Y124750D01*
X386647Y124647D01*
X387500D01*
Y126453D01*
D02*
G37*
G36*
X390699D02*
X388500D01*
Y124647D01*
X389353D01*
X389868Y124750D01*
X390305Y125041D01*
X390597Y125478D01*
X390699Y125993D01*
Y126453D01*
D02*
G37*
G36*
X369500Y129258D02*
X368647D01*
X368132Y129156D01*
X367695Y128864D01*
X367403Y128427D01*
X367301Y127912D01*
Y127453D01*
X369500D01*
Y129258D01*
D02*
G37*
G36*
X327008Y143573D02*
X322992D01*
X322096Y143395D01*
X321337Y142888D01*
X320829Y142128D01*
X320651Y141232D01*
Y138240D01*
X320829Y137344D01*
X321337Y136585D01*
X322096Y136077D01*
X322992Y135899D01*
X327008D01*
X327904Y136077D01*
X328663Y136585D01*
X329171Y137344D01*
X329349Y138240D01*
Y141232D01*
X329171Y142128D01*
X328663Y142888D01*
X327904Y143395D01*
X327008Y143573D01*
D02*
G37*
G36*
X235380Y154236D02*
X230620D01*
X229910Y154094D01*
X229308Y153692D01*
X228906Y153090D01*
X228764Y152380D01*
Y147620D01*
X228906Y146910D01*
X229308Y146308D01*
X229910Y145906D01*
X230620Y145764D01*
X235380D01*
X236090Y145906D01*
X236692Y146308D01*
X237094Y146910D01*
X237236Y147620D01*
Y152380D01*
X237094Y153090D01*
X236692Y153692D01*
X236090Y154094D01*
X235380Y154236D01*
D02*
G37*
G36*
X297380D02*
X292620D01*
X291910Y154094D01*
X291308Y153692D01*
X290906Y153090D01*
X290764Y152380D01*
Y147620D01*
X290906Y146910D01*
X291308Y146308D01*
X291910Y145906D01*
X292620Y145764D01*
X297380D01*
X298090Y145906D01*
X298692Y146308D01*
X299094Y146910D01*
X299236Y147620D01*
Y152380D01*
X299094Y153090D01*
X298692Y153692D01*
X298090Y154094D01*
X297380Y154236D01*
D02*
G37*
G36*
X285353Y149353D02*
X284500D01*
Y147547D01*
X286699D01*
Y148007D01*
X286597Y148522D01*
X286305Y148959D01*
X285868Y149250D01*
X285353Y149353D01*
D02*
G37*
G36*
X380000Y154236D02*
X378904Y154092D01*
X377882Y153669D01*
X377005Y152996D01*
X376331Y152118D01*
X375908Y151096D01*
X375764Y150000D01*
X375908Y148904D01*
X376331Y147882D01*
X377005Y147004D01*
X377882Y146331D01*
X378904Y145908D01*
X380000Y145764D01*
X381096Y145908D01*
X382118Y146331D01*
X382996Y147004D01*
X383669Y147882D01*
X384092Y148904D01*
X384236Y150000D01*
X384092Y151096D01*
X383669Y152118D01*
X382996Y152996D01*
X382118Y153669D01*
X381096Y154092D01*
X380000Y154236D01*
D02*
G37*
G36*
X305000D02*
X303904Y154092D01*
X302882Y153669D01*
X302005Y152996D01*
X301331Y152118D01*
X300908Y151096D01*
X300764Y150000D01*
X300908Y148904D01*
X301331Y147882D01*
X302005Y147004D01*
X302882Y146331D01*
X303904Y145908D01*
X305000Y145764D01*
X306096Y145908D01*
X307118Y146331D01*
X307996Y147004D01*
X308669Y147882D01*
X309092Y148904D01*
X309236Y150000D01*
X309092Y151096D01*
X308669Y152118D01*
X307996Y152996D01*
X307118Y153669D01*
X306096Y154092D01*
X305000Y154236D01*
D02*
G37*
G36*
X315000D02*
X313904Y154092D01*
X312882Y153669D01*
X312004Y152996D01*
X311331Y152118D01*
X310908Y151096D01*
X310764Y150000D01*
X310908Y148904D01*
X311331Y147882D01*
X312004Y147004D01*
X312882Y146331D01*
X313904Y145908D01*
X315000Y145764D01*
X316096Y145908D01*
X317118Y146331D01*
X317996Y147004D01*
X318669Y147882D01*
X319092Y148904D01*
X319236Y150000D01*
X319092Y151096D01*
X318669Y152118D01*
X317996Y152996D01*
X317118Y153669D01*
X316096Y154092D01*
X315000Y154236D01*
D02*
G37*
G36*
X325000D02*
X323904Y154092D01*
X322882Y153669D01*
X322005Y152996D01*
X321331Y152118D01*
X320908Y151096D01*
X320764Y150000D01*
X320908Y148904D01*
X321236Y148111D01*
X314180Y141054D01*
X311647D01*
X311210Y140967D01*
X310839Y140720D01*
X310592Y140349D01*
X310505Y139912D01*
Y137993D01*
X310592Y137556D01*
X310839Y137186D01*
X311210Y136938D01*
X311647Y136851D01*
X314353D01*
X314790Y136938D01*
X315161Y137186D01*
X315408Y137556D01*
X315495Y137993D01*
Y138621D01*
X323111Y146236D01*
X323904Y145908D01*
X325000Y145764D01*
X326096Y145908D01*
X327118Y146331D01*
X327995Y147004D01*
X328669Y147882D01*
X329092Y148904D01*
X329236Y150000D01*
X329092Y151096D01*
X328669Y152118D01*
X327995Y152996D01*
X327118Y153669D01*
X326096Y154092D01*
X325000Y154236D01*
D02*
G37*
G36*
X335000D02*
X333904Y154092D01*
X332882Y153669D01*
X332004Y152996D01*
X331331Y152118D01*
X330908Y151096D01*
X330764Y150000D01*
X330908Y148904D01*
X331331Y147882D01*
X332004Y147004D01*
X332882Y146331D01*
X333675Y146003D01*
Y143573D01*
X332992D01*
X332096Y143395D01*
X331337Y142888D01*
X330829Y142128D01*
X330651Y141232D01*
Y138240D01*
X330829Y137344D01*
X331337Y136585D01*
X332096Y136077D01*
X332992Y135899D01*
X337008D01*
X337904Y136077D01*
X338663Y136585D01*
X339171Y137344D01*
X339349Y138240D01*
Y141232D01*
X339171Y142128D01*
X338663Y142888D01*
X337904Y143395D01*
X337008Y143573D01*
X336326D01*
Y146003D01*
X337118Y146331D01*
X337996Y147004D01*
X338669Y147882D01*
X338997Y148674D01*
X342770D01*
X342882Y148508D01*
X343228Y148276D01*
X343636Y148195D01*
X345506D01*
X345914Y148276D01*
X346260Y148508D01*
X346491Y148854D01*
X346572Y149262D01*
Y150738D01*
X346491Y151146D01*
X346260Y151492D01*
X345914Y151724D01*
X345506Y151805D01*
X343636D01*
X343228Y151724D01*
X342882Y151492D01*
X342770Y151326D01*
X338997D01*
X338669Y152118D01*
X337996Y152996D01*
X337118Y153669D01*
X336096Y154092D01*
X335000Y154236D01*
D02*
G37*
G36*
X410500Y154372D02*
Y150500D01*
X414372D01*
X414287Y151149D01*
X413843Y152219D01*
X413138Y153138D01*
X412219Y153843D01*
X411149Y154287D01*
X410500Y154372D01*
D02*
G37*
G36*
X174000Y155594D02*
X173329Y155506D01*
X172703Y155246D01*
X172166Y154834D01*
X171754Y154297D01*
X171494Y153671D01*
X171406Y153000D01*
X171490Y152364D01*
X170338Y151213D01*
X170051Y150783D01*
X170038Y150716D01*
X169200Y150606D01*
X169063Y150811D01*
X167510Y152364D01*
X167594Y153000D01*
X167506Y153671D01*
X167246Y154297D01*
X166834Y154834D01*
X166297Y155246D01*
X165671Y155506D01*
X165000Y155594D01*
X164329Y155506D01*
X163703Y155246D01*
X163166Y154834D01*
X162754Y154297D01*
X162495Y153671D01*
X162450Y153332D01*
X162301Y153212D01*
X161670Y152986D01*
X161637Y152985D01*
X161297Y153246D01*
X160671Y153506D01*
X160000Y153594D01*
X159329Y153506D01*
X158703Y153246D01*
X158166Y152834D01*
X157754Y152297D01*
X157494Y151671D01*
X157406Y151000D01*
X157494Y150329D01*
X157754Y149703D01*
X158166Y149166D01*
X158703Y148754D01*
X159329Y148495D01*
X160000Y148406D01*
X160671Y148495D01*
X161297Y148754D01*
X161834Y149166D01*
X161952Y149174D01*
X163651Y147475D01*
Y146036D01*
X163468Y145914D01*
X163172Y145470D01*
X163067Y144947D01*
Y140124D01*
X163172Y139601D01*
X163468Y139157D01*
X163912Y138860D01*
X164435Y138756D01*
X165518D01*
X166041Y138860D01*
X166485Y139157D01*
X166618D01*
X167061Y138860D01*
X167585Y138756D01*
X168667D01*
X169191Y138860D01*
X169634Y139157D01*
X169767D01*
X170211Y138860D01*
X170734Y138756D01*
X171817D01*
X172340Y138860D01*
X172784Y139157D01*
X172917D01*
X173361Y138860D01*
X173884Y138756D01*
X174967D01*
X175490Y138860D01*
X175934Y139157D01*
X176066D01*
X176510Y138860D01*
X177033Y138756D01*
X178116D01*
X178639Y138860D01*
X179083Y139157D01*
X179216D01*
X179660Y138860D01*
X180183Y138756D01*
X181266D01*
X181789Y138860D01*
X182233Y139157D01*
X182366D01*
X182809Y138860D01*
X183333Y138756D01*
X184415D01*
X184939Y138860D01*
X185382Y139157D01*
X185515D01*
X185959Y138860D01*
X186482Y138756D01*
X187565D01*
X188088Y138860D01*
X188532Y139157D01*
X188829Y139601D01*
X188933Y140124D01*
Y141210D01*
X196544D01*
X196754Y140703D01*
X197166Y140166D01*
X197703Y139754D01*
X198329Y139495D01*
X199000Y139406D01*
X199671Y139495D01*
X200297Y139754D01*
X200834Y140166D01*
X201246Y140703D01*
X201505Y141329D01*
X201594Y142000D01*
X201505Y142671D01*
X201246Y143297D01*
X200834Y143834D01*
X200297Y144246D01*
X199671Y144506D01*
X199000Y144594D01*
X198329Y144506D01*
X197703Y144246D01*
X197201Y143861D01*
X188933D01*
Y144947D01*
X188829Y145470D01*
X188558Y145875D01*
X188604Y146096D01*
X188834Y146675D01*
X203451D01*
X204675Y145451D01*
Y144224D01*
X204166Y143834D01*
X203754Y143297D01*
X203495Y142671D01*
X203406Y142000D01*
X203495Y141329D01*
X203754Y140703D01*
X204166Y140166D01*
X204703Y139754D01*
X205329Y139495D01*
X206000Y139406D01*
X206671Y139495D01*
X207297Y139754D01*
X207834Y140166D01*
X208246Y140703D01*
X208506Y141329D01*
X208594Y142000D01*
X208506Y142671D01*
X208246Y143297D01*
X207834Y143834D01*
X207326Y144224D01*
Y146000D01*
X207225Y146507D01*
X206937Y146937D01*
X205939Y147935D01*
X206245Y148674D01*
X208451D01*
X211674Y145451D01*
Y144224D01*
X211166Y143834D01*
X210754Y143297D01*
X210494Y142671D01*
X210406Y142000D01*
X210494Y141329D01*
X210754Y140703D01*
X211166Y140166D01*
X211703Y139754D01*
X212329Y139495D01*
X213000Y139406D01*
X213671Y139495D01*
X214297Y139754D01*
X214834Y140166D01*
X215246Y140703D01*
X215506Y141329D01*
X215594Y142000D01*
X215506Y142671D01*
X215246Y143297D01*
X214834Y143834D01*
X214325Y144224D01*
Y146000D01*
X214225Y146507D01*
X213937Y146937D01*
X210939Y149935D01*
X211245Y150674D01*
X213451D01*
X218674Y145451D01*
Y144224D01*
X218166Y143834D01*
X217754Y143297D01*
X217495Y142671D01*
X217406Y142000D01*
X217495Y141329D01*
X217754Y140703D01*
X218166Y140166D01*
X218703Y139754D01*
X219329Y139495D01*
X220000Y139406D01*
X220671Y139495D01*
X221297Y139754D01*
X221834Y140166D01*
X222246Y140703D01*
X222505Y141329D01*
X222594Y142000D01*
X222505Y142671D01*
X222246Y143297D01*
X221834Y143834D01*
X221598Y144016D01*
X221626Y144368D01*
X222454Y144672D01*
X227976Y139149D01*
X227645Y138349D01*
X196036D01*
X195914Y138532D01*
X195470Y138829D01*
X194947Y138933D01*
X190124D01*
X189601Y138829D01*
X189157Y138532D01*
X188860Y138088D01*
X188756Y137565D01*
Y136482D01*
X188860Y135959D01*
X189157Y135515D01*
Y135382D01*
X188860Y134939D01*
X188756Y134415D01*
Y133333D01*
X188860Y132809D01*
X189157Y132366D01*
Y132233D01*
X188860Y131789D01*
X188756Y131266D01*
Y130183D01*
X188860Y129660D01*
X189157Y129216D01*
Y129083D01*
X188860Y128639D01*
X188756Y128116D01*
Y127033D01*
X188860Y126510D01*
X189123Y126000D01*
X188860Y125490D01*
X188756Y124967D01*
Y123884D01*
X188860Y123361D01*
X189157Y122917D01*
Y122784D01*
X188860Y122340D01*
X188756Y121817D01*
Y120734D01*
X188860Y120211D01*
X189157Y119767D01*
Y119634D01*
X188860Y119191D01*
X188756Y118667D01*
Y117585D01*
X188860Y117061D01*
X189157Y116618D01*
Y116485D01*
X188860Y116041D01*
X188756Y115518D01*
Y114435D01*
X188860Y113912D01*
X189157Y113468D01*
X189601Y113172D01*
X190124Y113067D01*
X194947D01*
X195470Y113172D01*
X195914Y113468D01*
X196036Y113651D01*
X198475D01*
X202946Y109180D01*
Y107647D01*
X203033Y107210D01*
X203280Y106839D01*
X203651Y106592D01*
X204088Y106505D01*
X206007D01*
X206444Y106592D01*
X206814Y106839D01*
X207062Y107210D01*
X207149Y107647D01*
Y110353D01*
X207062Y110790D01*
X206814Y111161D01*
X206444Y111408D01*
X206007Y111495D01*
X204379D01*
X199961Y115914D01*
X199831Y116000D01*
X200074Y116800D01*
X209325D01*
X215061Y111065D01*
X214755Y110326D01*
X213054D01*
Y110353D01*
X212967Y110790D01*
X212720Y111161D01*
X212349Y111408D01*
X211912Y111495D01*
X209993D01*
X209556Y111408D01*
X209186Y111161D01*
X208938Y110790D01*
X208851Y110353D01*
Y107647D01*
X208938Y107210D01*
X209186Y106839D01*
X209556Y106592D01*
X209993Y106505D01*
X211912D01*
X212349Y106592D01*
X212720Y106839D01*
X212967Y107210D01*
X213054Y107647D01*
Y107675D01*
X217726D01*
X217971Y107139D01*
X218000Y106875D01*
X212451Y101326D01*
X191549D01*
X188349Y104525D01*
Y105964D01*
X188532Y106086D01*
X188829Y106530D01*
X188933Y107053D01*
Y111876D01*
X188829Y112399D01*
X188532Y112843D01*
X188088Y113139D01*
X187565Y113244D01*
X186482D01*
X185959Y113139D01*
X185515Y112843D01*
X185382D01*
X184939Y113139D01*
X184415Y113244D01*
X183333D01*
X182809Y113139D01*
X182366Y112843D01*
X182233D01*
X181789Y113139D01*
X181266Y113244D01*
X180183D01*
X179660Y113139D01*
X179216Y112843D01*
X179083D01*
X178639Y113139D01*
X178116Y113244D01*
X177033D01*
X176510Y113139D01*
X176066Y112843D01*
X175934D01*
X175490Y113139D01*
X174967Y113244D01*
X173884D01*
X173361Y113139D01*
X172917Y112843D01*
X172784D01*
X172340Y113139D01*
X171817Y113244D01*
X170734D01*
X170211Y113139D01*
X169767Y112843D01*
X169634D01*
X169191Y113139D01*
X168667Y113244D01*
X167585D01*
X167061Y113139D01*
X166618Y112843D01*
X166485D01*
X166041Y113139D01*
X165518Y113244D01*
X164435D01*
X163912Y113139D01*
X163468Y112843D01*
X163172Y112399D01*
X163067Y111876D01*
Y107053D01*
X163172Y106530D01*
X163468Y106086D01*
X163388Y105263D01*
X160451Y102325D01*
X149047D01*
X148540Y102225D01*
X148110Y101937D01*
X146668Y100495D01*
X145088D01*
X144651Y100408D01*
X144280Y100161D01*
X144033Y99790D01*
X143946Y99353D01*
Y99326D01*
X141054D01*
Y99353D01*
X140967Y99790D01*
X140720Y100161D01*
X140349Y100408D01*
X139912Y100495D01*
X137993D01*
X137556Y100408D01*
X137186Y100161D01*
X136938Y99790D01*
X136851Y99353D01*
Y96647D01*
X136938Y96210D01*
X137186Y95839D01*
X137556Y95592D01*
X137993Y95505D01*
X139912D01*
X140349Y95592D01*
X140720Y95839D01*
X140967Y96210D01*
X141054Y96647D01*
Y96675D01*
X143946D01*
Y96647D01*
X144033Y96210D01*
X144280Y95839D01*
X144651Y95592D01*
X144722Y95578D01*
Y94953D01*
X144823Y94446D01*
X145110Y94016D01*
X146675Y92451D01*
Y89997D01*
X145882Y89669D01*
X145004Y88995D01*
X144331Y88118D01*
X143908Y87096D01*
X143764Y86000D01*
X143908Y84904D01*
X144331Y83882D01*
X145004Y83004D01*
X145882Y82331D01*
X146904Y81908D01*
X148000Y81764D01*
X149096Y81908D01*
X150118Y82331D01*
X150996Y83004D01*
X151669Y83882D01*
X152092Y84904D01*
X152236Y86000D01*
X152092Y87096D01*
X151669Y88118D01*
X150996Y88995D01*
X150118Y89669D01*
X149326Y89997D01*
Y93000D01*
X149225Y93507D01*
X148937Y93937D01*
X147924Y94950D01*
X147814Y95839D01*
X148062Y96210D01*
X148149Y96647D01*
Y98227D01*
X148847Y98926D01*
X149647Y98594D01*
Y98500D01*
X151953D01*
X154258D01*
Y99353D01*
X154522Y99674D01*
X161000D01*
X161507Y99775D01*
X161937Y100063D01*
X165914Y104039D01*
X166000Y104169D01*
X166800Y103927D01*
Y90049D01*
X165882Y89669D01*
X165005Y88995D01*
X164331Y88118D01*
X163908Y87096D01*
X163764Y86000D01*
X163908Y84904D01*
X164331Y83882D01*
X165005Y83004D01*
X165882Y82331D01*
X166904Y81908D01*
X168000Y81764D01*
X169096Y81908D01*
X170118Y82331D01*
X170995Y83004D01*
X171669Y83882D01*
X172092Y84904D01*
X172236Y86000D01*
X172092Y87096D01*
X171669Y88118D01*
X170995Y88995D01*
X170118Y89669D01*
X169451Y89945D01*
Y98674D01*
X170252Y98917D01*
X170338Y98787D01*
X180063Y89063D01*
X180247Y88940D01*
X180313Y88829D01*
X180413Y88186D01*
X180386Y87981D01*
X173240Y80835D01*
X158609D01*
X158556Y81635D01*
X159149Y81713D01*
X160219Y82157D01*
X161138Y82862D01*
X161843Y83781D01*
X162287Y84851D01*
X162372Y85500D01*
X158000D01*
X153628D01*
X153713Y84851D01*
X154157Y83781D01*
X154862Y82862D01*
X155781Y82157D01*
X156851Y81713D01*
X157444Y81635D01*
X157391Y80835D01*
X145760D01*
X142236Y84360D01*
Y88380D01*
X142094Y89090D01*
X141692Y89692D01*
X141090Y90094D01*
X140380Y90236D01*
X135639D01*
X134373Y91502D01*
Y95578D01*
X134444Y95592D01*
X134814Y95839D01*
X135062Y96210D01*
X135149Y96647D01*
Y99353D01*
X135062Y99790D01*
X134814Y100161D01*
X134444Y100408D01*
X134373Y100422D01*
Y103498D01*
X135549Y104674D01*
X138946D01*
Y104647D01*
X139033Y104210D01*
X139280Y103839D01*
X139651Y103592D01*
X140088Y103505D01*
X142007D01*
X142444Y103592D01*
X142814Y103839D01*
X143062Y104210D01*
X143149Y104647D01*
Y105867D01*
X143847Y106565D01*
X144647Y106234D01*
Y104647D01*
X144750Y104132D01*
X145042Y103695D01*
X145478Y103403D01*
X145993Y103301D01*
X146453D01*
Y106000D01*
Y108699D01*
X146346D01*
X145912Y108843D01*
X145580Y109433D01*
Y110393D01*
X146586Y111398D01*
X146953Y111325D01*
X147557Y111445D01*
X147646Y111505D01*
X147912D01*
X148349Y111592D01*
X148720Y111839D01*
X148967Y112210D01*
X149009Y112420D01*
X151000D01*
X151605Y112540D01*
X152118Y112882D01*
X154902Y115667D01*
X155203Y115610D01*
X155685Y115319D01*
Y114435D01*
X155790Y113912D01*
X156086Y113468D01*
X156530Y113172D01*
X157053Y113067D01*
X158139D01*
Y112014D01*
X156451Y110326D01*
X155224D01*
X154834Y110834D01*
X154297Y111246D01*
X153671Y111505D01*
X153000Y111594D01*
X152329Y111505D01*
X151703Y111246D01*
X151166Y110834D01*
X150754Y110297D01*
X150495Y109671D01*
X150406Y109000D01*
X150495Y108329D01*
X150754Y107703D01*
X151166Y107166D01*
X151703Y106754D01*
X152329Y106494D01*
X153000Y106406D01*
X153671Y106494D01*
X154297Y106754D01*
X154834Y107166D01*
X155224Y107675D01*
X157000D01*
X157507Y107775D01*
X157937Y108063D01*
X160402Y110527D01*
X160689Y110957D01*
X160790Y111465D01*
Y113067D01*
X161876D01*
X162399Y113172D01*
X162843Y113468D01*
X163139Y113912D01*
X163244Y114435D01*
Y115518D01*
X163139Y116041D01*
X162843Y116485D01*
Y116618D01*
X163139Y117061D01*
X163244Y117585D01*
Y118667D01*
X163139Y119191D01*
X162843Y119634D01*
Y119767D01*
X163139Y120211D01*
X163244Y120734D01*
Y121817D01*
X163139Y122340D01*
X162843Y122784D01*
Y122917D01*
X163139Y123361D01*
X163244Y123884D01*
Y124967D01*
X163139Y125490D01*
X162843Y125934D01*
Y126066D01*
X163139Y126510D01*
X163244Y127033D01*
Y128116D01*
X163139Y128639D01*
X162956Y128914D01*
X162987Y129072D01*
X163328Y129582D01*
X163447Y130183D01*
Y130224D01*
X159465D01*
X155482D01*
Y130183D01*
X155598Y129598D01*
X155601Y129581D01*
X155163Y128798D01*
X153932D01*
X151865Y130865D01*
X151468Y131130D01*
X151000Y131223D01*
X149054D01*
Y131353D01*
X148967Y131790D01*
X148720Y132161D01*
X148349Y132408D01*
X147912Y132495D01*
X145993D01*
X145556Y132408D01*
X145186Y132161D01*
X144938Y131790D01*
X144851Y131353D01*
Y128647D01*
X144938Y128210D01*
X145186Y127839D01*
X145556Y127592D01*
X145993Y127505D01*
X147912D01*
X148349Y127592D01*
X148720Y127839D01*
X148967Y128210D01*
X149054Y128647D01*
Y128777D01*
X150493D01*
X152560Y126710D01*
X152957Y126444D01*
X153141Y126408D01*
Y125592D01*
X152957Y125556D01*
X152560Y125290D01*
X150493Y123223D01*
X149054D01*
Y123353D01*
X148967Y123790D01*
X148720Y124161D01*
X148349Y124408D01*
X147912Y124495D01*
X145993D01*
X145556Y124408D01*
X145186Y124161D01*
X144938Y123790D01*
X144851Y123353D01*
Y120647D01*
X144938Y120210D01*
X145186Y119839D01*
X145556Y119592D01*
X145993Y119505D01*
X147912D01*
X148349Y119592D01*
X148720Y119839D01*
X148967Y120210D01*
X149054Y120647D01*
Y120776D01*
X151000D01*
X151468Y120870D01*
X151865Y121135D01*
X153932Y123202D01*
X155403D01*
X155831Y122402D01*
X155790Y122340D01*
X155685Y121817D01*
Y120734D01*
X155731Y120506D01*
X155310Y119824D01*
X155165Y119706D01*
X155126D01*
X154521Y119586D01*
X154008Y119244D01*
X150345Y115580D01*
X149009D01*
X148967Y115790D01*
X148720Y116161D01*
X148349Y116408D01*
X147912Y116495D01*
X145993D01*
X145556Y116408D01*
X145186Y116161D01*
X144938Y115790D01*
X144851Y115353D01*
Y114134D01*
X144153Y113435D01*
X143353Y113766D01*
Y115353D01*
X143250Y115868D01*
X142958Y116305D01*
X142522Y116597D01*
X142007Y116699D01*
X141547D01*
Y114000D01*
Y111301D01*
X141654D01*
X142088Y111157D01*
X142420Y110567D01*
Y109607D01*
X141307Y108495D01*
X140088D01*
X139651Y108408D01*
X139280Y108161D01*
X139033Y107790D01*
X138946Y107353D01*
Y107325D01*
X135000D01*
X134493Y107225D01*
X134063Y106937D01*
X132110Y104984D01*
X131823Y104554D01*
X131722Y104047D01*
Y100422D01*
X131651Y100408D01*
X131280Y100161D01*
X131033Y99790D01*
X130946Y99353D01*
Y96647D01*
X131033Y96210D01*
X131280Y95839D01*
X131651Y95592D01*
X131722Y95578D01*
Y90953D01*
X131823Y90446D01*
X132110Y90016D01*
X133490Y88635D01*
X133159Y87835D01*
X131076D01*
X130384Y88461D01*
Y91413D01*
X130284Y91918D01*
X129999Y92345D01*
X129571Y92630D01*
X129067Y92731D01*
X128325D01*
Y104451D01*
X130364Y106490D01*
X131000Y106406D01*
X131671Y106494D01*
X132297Y106754D01*
X132834Y107166D01*
X133246Y107703D01*
X133505Y108329D01*
X133594Y109000D01*
X133505Y109671D01*
X133246Y110297D01*
X132834Y110834D01*
X132297Y111246D01*
X131671Y111505D01*
X131000Y111594D01*
X130329Y111505D01*
X129703Y111246D01*
X129166Y110834D01*
X128754Y110297D01*
X128495Y109671D01*
X128406Y109000D01*
X128490Y108364D01*
X126063Y105937D01*
X125775Y105507D01*
X125674Y105000D01*
Y92731D01*
X124933D01*
X124429Y92630D01*
X124002Y92345D01*
X123716Y91918D01*
X123616Y91413D01*
Y88461D01*
X122924Y87835D01*
X120302D01*
X120278Y87893D01*
X119676Y88677D01*
X118893Y89278D01*
X118835Y89302D01*
Y96269D01*
X119067D01*
X119571Y96369D01*
X119999Y96655D01*
X120284Y97082D01*
X120384Y97587D01*
Y100539D01*
X120284Y101043D01*
X119999Y101471D01*
X119571Y101757D01*
X119067Y101857D01*
X114933D01*
X114429Y101757D01*
X114002Y101471D01*
X113716Y101043D01*
X113674Y100835D01*
X108486D01*
Y104340D01*
X108342Y105065D01*
X107931Y105679D01*
X107317Y106090D01*
X106591Y106234D01*
X100243D01*
X99518Y106090D01*
X98904Y105679D01*
X98493Y105065D01*
X98349Y104340D01*
Y100835D01*
X85365D01*
X85131Y101186D01*
X84557Y101569D01*
X83880Y101704D01*
X77285D01*
X76609Y101569D01*
X76035Y101186D01*
X75251Y101357D01*
X75203Y101382D01*
X74639Y101759D01*
X73937Y101898D01*
X73313D01*
X73284Y102043D01*
X72998Y102471D01*
X72571Y102757D01*
X72067Y102857D01*
X69802D01*
X68519Y104139D01*
X68850Y104939D01*
X69500D01*
Y107437D01*
X66412D01*
Y107226D01*
X66121Y106987D01*
X65656Y106723D01*
X65612Y106726D01*
X65063Y106835D01*
X61833D01*
X61297Y107246D01*
X60671Y107506D01*
X60000Y107594D01*
X59329Y107506D01*
X58703Y107246D01*
X58166Y106834D01*
X57754Y106297D01*
X57494Y105671D01*
X57406Y105000D01*
X57494Y104329D01*
X57754Y103703D01*
X58166Y103166D01*
X58703Y102754D01*
X59329Y102495D01*
X60000Y102406D01*
X60671Y102495D01*
X61297Y102754D01*
X61833Y103165D01*
X64303D01*
X66616Y100852D01*
Y98587D01*
X66716Y98082D01*
X67001Y97655D01*
X67429Y97369D01*
X67933Y97269D01*
X72067D01*
X72571Y97369D01*
X72998Y97655D01*
X73702Y97702D01*
X74298Y97304D01*
X75000Y97165D01*
X75800D01*
X76035Y96814D01*
X76609Y96431D01*
X77285Y96296D01*
X83880D01*
X84557Y96431D01*
X85131Y96814D01*
X85365Y97165D01*
X98349D01*
Y93660D01*
X98493Y92936D01*
X98904Y92321D01*
X99518Y91910D01*
X100243Y91766D01*
X106591D01*
X107317Y91910D01*
X107931Y92321D01*
X108342Y92936D01*
X108486Y93660D01*
Y97165D01*
X113699D01*
X113716Y97082D01*
X114002Y96655D01*
X114429Y96369D01*
X114933Y96269D01*
X115165D01*
Y89302D01*
X115107Y89278D01*
X114323Y88677D01*
X113722Y87893D01*
X113344Y86980D01*
X113215Y86000D01*
X113344Y85020D01*
X113722Y84107D01*
X114323Y83324D01*
X115107Y82722D01*
X116020Y82344D01*
X117000Y82215D01*
X117980Y82344D01*
X118893Y82722D01*
X119676Y83324D01*
X120278Y84107D01*
X120302Y84165D01*
X122924D01*
X123616Y83539D01*
Y80587D01*
X123716Y80082D01*
X124002Y79655D01*
X124429Y79369D01*
X124933Y79269D01*
X125674D01*
Y75513D01*
X125107Y75278D01*
X124323Y74677D01*
X123722Y73893D01*
X123698Y73835D01*
X83760D01*
X82898Y74697D01*
Y75687D01*
X83043Y75716D01*
X83471Y76002D01*
X83757Y76429D01*
X83857Y76933D01*
Y81067D01*
X83757Y81571D01*
X83471Y81998D01*
X83043Y82284D01*
X82898Y82313D01*
Y87241D01*
X83880D01*
X84557Y87375D01*
X85131Y87759D01*
X85514Y88333D01*
X85649Y89010D01*
Y90880D01*
X85514Y91557D01*
X85131Y92131D01*
X84557Y92514D01*
X83880Y92649D01*
X77285D01*
X76609Y92514D01*
X76035Y92131D01*
X75879Y91898D01*
X63313D01*
X63284Y92044D01*
X62998Y92471D01*
X62571Y92756D01*
X62067Y92857D01*
X57933D01*
X57429Y92756D01*
X57002Y92471D01*
X56716Y92044D01*
X56687Y91898D01*
X53100D01*
Y95000D01*
X38900D01*
Y87400D01*
X53100D01*
Y88228D01*
X56687D01*
X56716Y88082D01*
X57002Y87655D01*
X57429Y87370D01*
X57933Y87269D01*
X62067D01*
X62571Y87370D01*
X62998Y87655D01*
X63284Y88082D01*
X63313Y88228D01*
X75721D01*
X76035Y87759D01*
X76609Y87375D01*
X77285Y87241D01*
X79228D01*
Y82313D01*
X79082Y82284D01*
X78655Y81998D01*
X78369Y81571D01*
X78269Y81067D01*
Y76933D01*
X78369Y76429D01*
X78655Y76002D01*
X79082Y75716D01*
X79228Y75687D01*
Y73937D01*
X79367Y73235D01*
X79765Y72639D01*
X81702Y70702D01*
X82298Y70304D01*
X83000Y70165D01*
X123698D01*
X123722Y70107D01*
X124323Y69323D01*
X125107Y68722D01*
X126020Y68344D01*
X127000Y68215D01*
X127980Y68344D01*
X128893Y68722D01*
X129676Y69323D01*
X130278Y70107D01*
X130302Y70165D01*
X173240D01*
X185655Y57749D01*
X186250Y57352D01*
X186953Y57212D01*
X189941D01*
X190210Y57033D01*
X190647Y56946D01*
X193353D01*
X193790Y57033D01*
X194059Y57212D01*
X209212D01*
X209333Y56603D01*
X209842Y55842D01*
X210603Y55334D01*
X211165Y55222D01*
Y50786D01*
X210882Y50669D01*
X210004Y49995D01*
X209331Y49118D01*
X208908Y48096D01*
X208764Y47000D01*
X208908Y45904D01*
X209331Y44882D01*
X210004Y44004D01*
X210882Y43331D01*
X211904Y42908D01*
X213000Y42764D01*
X214096Y42908D01*
X215118Y43331D01*
X215996Y44004D01*
X216669Y44882D01*
X217092Y45904D01*
X217236Y47000D01*
X217092Y48096D01*
X216669Y49118D01*
X215996Y49995D01*
X215118Y50669D01*
X214835Y50786D01*
Y55222D01*
X215397Y55334D01*
X216158Y55842D01*
X216667Y56603D01*
X216845Y57500D01*
Y60500D01*
X216667Y61397D01*
X216158Y62158D01*
X215397Y62666D01*
X214500Y62845D01*
X211500D01*
X210603Y62666D01*
X209842Y62158D01*
X209333Y61397D01*
X209231Y60883D01*
X194059D01*
X193790Y61062D01*
X193353Y61149D01*
X190647D01*
X190210Y61062D01*
X189941Y60883D01*
X187713D01*
X175298Y73298D01*
X174702Y73696D01*
X174000Y73835D01*
X130302D01*
X130278Y73893D01*
X129676Y74677D01*
X128893Y75278D01*
X128325Y75513D01*
Y79269D01*
X129067D01*
X129571Y79369D01*
X129999Y79655D01*
X130284Y80082D01*
X130384Y80587D01*
Y83539D01*
X131076Y84165D01*
X133764D01*
Y83620D01*
X133906Y82910D01*
X134308Y82308D01*
X134910Y81906D01*
X135620Y81764D01*
X139640D01*
X143702Y77702D01*
X144298Y77304D01*
X145000Y77165D01*
X174000D01*
X174702Y77304D01*
X175298Y77702D01*
X182713Y85118D01*
X222229D01*
X222703Y84754D01*
X223329Y84495D01*
X224000Y84406D01*
X224671Y84495D01*
X225297Y84754D01*
X225834Y85166D01*
X226188Y85627D01*
X231578D01*
X231592Y85556D01*
X231839Y85186D01*
X232210Y84938D01*
X232647Y84851D01*
X235353D01*
X235790Y84938D01*
X236161Y85186D01*
X236408Y85556D01*
X236422Y85627D01*
X238513D01*
Y84169D01*
X238598Y83742D01*
X238840Y83380D01*
X239203Y83138D01*
X239630Y83053D01*
X240220D01*
X240648Y83138D01*
X241205Y83317D01*
X241762Y83138D01*
X242189Y83053D01*
X242779D01*
X243207Y83138D01*
X243814Y83236D01*
X244243Y82949D01*
X244543Y82889D01*
Y87024D01*
Y91158D01*
X244243Y91098D01*
X243814Y90812D01*
X243207Y90910D01*
X242779Y90995D01*
X242189D01*
X241762Y90910D01*
X241205Y90730D01*
X240648Y90910D01*
X240220Y90995D01*
X239630D01*
X239203Y90910D01*
X238840Y90668D01*
X238598Y90305D01*
X238513Y89878D01*
Y88278D01*
X236422D01*
X236408Y88349D01*
X236161Y88720D01*
X235790Y88967D01*
X235353Y89054D01*
X232647D01*
X232210Y88967D01*
X231839Y88720D01*
X231592Y88349D01*
X231578Y88278D01*
X226254D01*
X226246Y88297D01*
X225834Y88834D01*
X225297Y89246D01*
X224671Y89505D01*
X224000Y89594D01*
X223329Y89505D01*
X222703Y89246D01*
X222166Y88834D01*
X222130Y88788D01*
X219794D01*
X219462Y89588D01*
X224549Y94674D01*
X244451D01*
X246277Y92849D01*
Y91765D01*
X246200Y91647D01*
X245543Y91215D01*
Y87024D01*
Y82889D01*
X245844Y82949D01*
X246272Y83236D01*
X246880Y83138D01*
X247307Y83053D01*
X247898D01*
X248325Y83138D01*
X248882Y83317D01*
X249439Y83138D01*
X249866Y83053D01*
X250457D01*
X250884Y83138D01*
X251441Y83317D01*
X251998Y83138D01*
X252425Y83053D01*
X253016D01*
X253443Y83138D01*
X254000Y83317D01*
X254557Y83138D01*
X254984Y83053D01*
X255575D01*
X256002Y83138D01*
X256559Y83317D01*
X257116Y83138D01*
X257543Y83053D01*
X258134D01*
X258561Y83138D01*
X259118Y83317D01*
X259675Y83138D01*
X260102Y83053D01*
X260693D01*
X261120Y83138D01*
X261728Y83236D01*
X262156Y82949D01*
X262457Y82889D01*
Y87024D01*
Y91215D01*
X261800Y91647D01*
X261723Y91765D01*
Y95602D01*
X261622Y96110D01*
X261335Y96540D01*
X251000Y106875D01*
X251029Y107139D01*
X251274Y107675D01*
X256451D01*
X300490Y63636D01*
X300406Y63000D01*
X300495Y62329D01*
X300754Y61703D01*
X301166Y61166D01*
X301703Y60754D01*
X302329Y60495D01*
X303000Y60406D01*
X303671Y60495D01*
X304297Y60754D01*
X304834Y61166D01*
X305246Y61703D01*
X305505Y62329D01*
X305594Y63000D01*
X305505Y63671D01*
X305246Y64297D01*
X304834Y64834D01*
X304297Y65246D01*
X303671Y65505D01*
X303000Y65594D01*
X302364Y65510D01*
X283939Y83935D01*
X284245Y84675D01*
X300451D01*
X301626Y83499D01*
X301295Y82699D01*
X300135D01*
X299620Y82597D01*
X299183Y82305D01*
X298892Y81868D01*
X298789Y81353D01*
Y80500D01*
X303400D01*
Y80594D01*
X304200Y80926D01*
X304899Y80227D01*
Y78647D01*
X304985Y78210D01*
X305233Y77839D01*
X305603Y77592D01*
X306040Y77505D01*
X307960D01*
X308397Y77592D01*
X308767Y77839D01*
X309015Y78210D01*
X309102Y78647D01*
Y78675D01*
X309993D01*
Y78647D01*
X310080Y78210D01*
X310327Y77839D01*
X310698Y77592D01*
X311135Y77505D01*
X313054D01*
X313491Y77592D01*
X313861Y77839D01*
X314109Y78210D01*
X314196Y78647D01*
Y81353D01*
X314109Y81790D01*
X313861Y82161D01*
X313491Y82408D01*
X313054Y82495D01*
X311135D01*
X310698Y82408D01*
X310327Y82161D01*
X310080Y81790D01*
X309993Y81353D01*
Y81326D01*
X309102D01*
Y81353D01*
X309015Y81790D01*
X308767Y82161D01*
X308397Y82408D01*
X307960Y82495D01*
X306379D01*
X301937Y86937D01*
X301507Y87225D01*
X301000Y87326D01*
X283549D01*
X281119Y89755D01*
X281140Y89830D01*
X281539Y90467D01*
X282000Y90406D01*
X282671Y90495D01*
X283297Y90754D01*
X283833Y91165D01*
X311167D01*
X311703Y90754D01*
X312329Y90495D01*
X313000Y90406D01*
X313671Y90495D01*
X314297Y90754D01*
X314833Y91165D01*
X329240D01*
X331406Y88998D01*
X331490Y88364D01*
X329063Y85937D01*
X328775Y85507D01*
X328675Y85000D01*
Y84378D01*
X327933Y83899D01*
X327874Y83906D01*
X327637Y84263D01*
X327224Y84538D01*
X326738Y84635D01*
X326500D01*
Y82429D01*
Y80224D01*
X326738D01*
X327224Y80320D01*
X327637Y80596D01*
X327887Y80970D01*
X328215Y81005D01*
X328675Y81000D01*
X328775Y80493D01*
X329063Y80063D01*
X332063Y77063D01*
X332493Y76775D01*
X333000Y76674D01*
X336648D01*
X337301Y75960D01*
Y75500D01*
X340000D01*
Y75000D01*
X340500D01*
Y72695D01*
X341353D01*
X341868Y72797D01*
X342305Y73089D01*
X342597Y73525D01*
X342699Y74040D01*
Y74339D01*
X343499Y74767D01*
X343505Y74763D01*
Y74040D01*
X343592Y73603D01*
X343839Y73233D01*
X344210Y72986D01*
X344647Y72899D01*
X344674D01*
Y70007D01*
X344647D01*
X344210Y69920D01*
X343839Y69673D01*
X343592Y69302D01*
X343505Y68865D01*
Y68143D01*
X343499Y68139D01*
X342699Y68566D01*
Y68865D01*
X342597Y69380D01*
X342305Y69817D01*
X341868Y70108D01*
X341353Y70211D01*
X340500D01*
Y67905D01*
X340000D01*
Y67405D01*
X337301D01*
Y66946D01*
X336609Y66325D01*
X329143D01*
X328495Y66993D01*
Y68912D01*
X328408Y69349D01*
X328161Y69720D01*
X327790Y69967D01*
X327353Y70054D01*
X327326D01*
Y71770D01*
X327492Y71882D01*
X327724Y72228D01*
X327805Y72636D01*
Y74506D01*
X327724Y74914D01*
X327492Y75260D01*
X327146Y75491D01*
X326738Y75573D01*
X325262D01*
X324854Y75491D01*
X324508Y75260D01*
X324276Y74914D01*
X324273Y74896D01*
X323571D01*
X323064Y74795D01*
X322634Y74508D01*
X320901Y72776D01*
X320101Y73107D01*
Y75353D01*
X320015Y75790D01*
X319767Y76161D01*
X319397Y76408D01*
X319325Y76422D01*
Y77578D01*
X319397Y77592D01*
X319767Y77839D01*
X320015Y78210D01*
X320101Y78647D01*
Y81353D01*
X320015Y81790D01*
X319767Y82161D01*
X319397Y82408D01*
X318960Y82495D01*
X317040D01*
X316603Y82408D01*
X316233Y82161D01*
X315985Y81790D01*
X315898Y81353D01*
Y78647D01*
X315985Y78210D01*
X316233Y77839D01*
X316603Y77592D01*
X316674Y77578D01*
Y76422D01*
X316603Y76408D01*
X316233Y76161D01*
X315985Y75790D01*
X315898Y75353D01*
Y72647D01*
X315985Y72210D01*
X316233Y71839D01*
X316603Y71592D01*
X316674Y71578D01*
Y70422D01*
X316603Y70408D01*
X316233Y70161D01*
X315985Y69790D01*
X315898Y69353D01*
Y67202D01*
X315099Y66870D01*
X314196Y67773D01*
Y69353D01*
X314109Y69790D01*
X313861Y70161D01*
X313491Y70408D01*
X313054Y70495D01*
X311135D01*
X310698Y70408D01*
X310327Y70161D01*
X310080Y69790D01*
X309993Y69353D01*
Y66647D01*
X310080Y66210D01*
X310327Y65839D01*
X310698Y65592D01*
X311135Y65505D01*
X312715D01*
X314157Y64063D01*
X314587Y63775D01*
X315094Y63674D01*
X322857D01*
X323505Y63007D01*
Y61088D01*
X323592Y60651D01*
X323839Y60280D01*
X324210Y60033D01*
X324647Y59946D01*
X326227D01*
X333110Y53063D01*
X333540Y52775D01*
X334047Y52675D01*
X355451D01*
X358764Y49361D01*
Y44620D01*
X358906Y43910D01*
X359308Y43308D01*
X359910Y42906D01*
X360620Y42764D01*
X365380D01*
X366090Y42906D01*
X366692Y43308D01*
X367094Y43910D01*
X367236Y44620D01*
Y49380D01*
X367094Y50090D01*
X366692Y50692D01*
X366090Y51094D01*
X365380Y51236D01*
X360639D01*
X356937Y54937D01*
X356507Y55225D01*
X356000Y55326D01*
X334596D01*
X333215Y56707D01*
X333593Y57460D01*
X334000Y57406D01*
X334671Y57494D01*
X335297Y57754D01*
X335834Y58166D01*
X336224Y58675D01*
X338000D01*
X338507Y58775D01*
X338937Y59063D01*
X339773Y59899D01*
X341353D01*
X341790Y59985D01*
X342161Y60233D01*
X342408Y60603D01*
X342422Y60675D01*
X343578D01*
X343592Y60603D01*
X343839Y60233D01*
X344210Y59985D01*
X344647Y59899D01*
X347353D01*
X347790Y59985D01*
X348161Y60233D01*
X348408Y60603D01*
X348422Y60675D01*
X349578D01*
X349592Y60603D01*
X349839Y60233D01*
X350210Y59985D01*
X350647Y59899D01*
X353353D01*
X353790Y59985D01*
X354161Y60233D01*
X354408Y60603D01*
X354495Y61040D01*
Y62960D01*
X355112Y63674D01*
X357889D01*
X358505Y62960D01*
Y61040D01*
X358592Y60603D01*
X358839Y60233D01*
X359210Y59986D01*
X359647Y59899D01*
X361227D01*
X368063Y53063D01*
X368493Y52775D01*
X369000Y52675D01*
X375451D01*
X378764Y49361D01*
Y44620D01*
X378906Y43910D01*
X379308Y43308D01*
X379910Y42906D01*
X380620Y42764D01*
X385380D01*
X386090Y42906D01*
X386692Y43308D01*
X387094Y43910D01*
X387236Y44620D01*
Y49380D01*
X387094Y50090D01*
X386692Y50692D01*
X386090Y51094D01*
X385380Y51236D01*
X380639D01*
X377939Y53935D01*
X378245Y54675D01*
X393451D01*
X398764Y49361D01*
Y44620D01*
X398906Y43910D01*
X399308Y43308D01*
X399910Y42906D01*
X400620Y42764D01*
X405380D01*
X406090Y42906D01*
X406692Y43308D01*
X407094Y43910D01*
X407236Y44620D01*
Y49380D01*
X407094Y50090D01*
X406692Y50692D01*
X406090Y51094D01*
X405380Y51236D01*
X400639D01*
X394937Y56937D01*
X394507Y57225D01*
X394000Y57326D01*
X378053D01*
X377808Y58047D01*
X378283Y58675D01*
X379953D01*
X380460Y58775D01*
X380890Y59063D01*
X381773Y59946D01*
X383353D01*
X383790Y60033D01*
X384161Y60280D01*
X384408Y60651D01*
X384422Y60722D01*
X385578D01*
X385592Y60651D01*
X385839Y60280D01*
X386210Y60033D01*
X386647Y59946D01*
X389353D01*
X389790Y60033D01*
X390161Y60280D01*
X390408Y60651D01*
X390422Y60722D01*
X391578D01*
X391592Y60651D01*
X391839Y60280D01*
X392210Y60033D01*
X392647Y59946D01*
X395353D01*
X395790Y60033D01*
X396161Y60280D01*
X396408Y60651D01*
X396495Y61088D01*
Y63007D01*
X396408Y63444D01*
X396161Y63814D01*
X395790Y64062D01*
X395353Y64149D01*
X392647D01*
X392210Y64062D01*
X391839Y63814D01*
X391592Y63444D01*
X391578Y63373D01*
X390422D01*
X390408Y63444D01*
X390161Y63814D01*
X389790Y64062D01*
X389353Y64149D01*
X387202D01*
X386871Y64949D01*
X387773Y65851D01*
X389353D01*
X389790Y65938D01*
X390161Y66186D01*
X390408Y66556D01*
X390495Y66993D01*
Y68912D01*
X390408Y69349D01*
X390161Y69720D01*
X389790Y69967D01*
X389353Y70054D01*
X389325D01*
Y72899D01*
X389353D01*
X389790Y72986D01*
X390161Y73233D01*
X390408Y73603D01*
X390495Y74040D01*
Y75960D01*
X390408Y76397D01*
X390161Y76767D01*
X389790Y77014D01*
X389353Y77101D01*
X386647D01*
X386210Y77014D01*
X385839Y76767D01*
X385592Y76397D01*
X385505Y75960D01*
Y74040D01*
X385592Y73603D01*
X385839Y73233D01*
X386210Y72986D01*
X386647Y72899D01*
X386674D01*
Y70054D01*
X386647D01*
X386210Y69967D01*
X385839Y69720D01*
X385592Y69349D01*
X385505Y68912D01*
Y68190D01*
X385499Y68186D01*
X384699Y68614D01*
Y68912D01*
X384597Y69427D01*
X384305Y69864D01*
X383868Y70156D01*
X383353Y70258D01*
X382500D01*
Y67953D01*
X382000D01*
Y67453D01*
X379301D01*
Y66993D01*
X378618Y66325D01*
X371143D01*
X370495Y66993D01*
Y68912D01*
X370408Y69349D01*
X370161Y69720D01*
X369790Y69967D01*
X369353Y70054D01*
X369325D01*
Y71770D01*
X369492Y71882D01*
X369724Y72228D01*
X369805Y72636D01*
Y74506D01*
X369724Y74914D01*
X369492Y75260D01*
X369146Y75491D01*
X368738Y75573D01*
X367826D01*
X364508Y78890D01*
X364078Y79177D01*
X363571Y79278D01*
X355143D01*
X354631Y79748D01*
X354517Y79914D01*
X354495Y80003D01*
Y81865D01*
X354408Y82302D01*
X354161Y82673D01*
X353790Y82920D01*
X353353Y83007D01*
X350647D01*
X350210Y82920D01*
X349839Y82673D01*
X349592Y82302D01*
X349578Y82231D01*
X348422D01*
X348408Y82302D01*
X348161Y82673D01*
X347790Y82920D01*
X347353Y83007D01*
X344647D01*
X344210Y82920D01*
X343839Y82673D01*
X343592Y82302D01*
X343578Y82231D01*
X342422D01*
X342408Y82302D01*
X342161Y82673D01*
X341790Y82920D01*
X341353Y83007D01*
X339773D01*
X339127Y83653D01*
X338937Y83937D01*
X338507Y84225D01*
X338000Y84325D01*
X336224D01*
X335834Y84834D01*
X335297Y85246D01*
X334671Y85505D01*
X334326Y85551D01*
X333927Y86231D01*
X333910Y86383D01*
X333930Y86415D01*
X334000Y86406D01*
X334671Y86494D01*
X335297Y86754D01*
X335834Y87166D01*
X336029Y87420D01*
X343000D01*
X343605Y87540D01*
X344117Y87883D01*
X346070Y89835D01*
X346413Y90348D01*
X346533Y90953D01*
Y91715D01*
X346720Y91839D01*
X346967Y92210D01*
X347054Y92647D01*
Y95353D01*
X346967Y95790D01*
X346720Y96161D01*
X346533Y96285D01*
Y100427D01*
X347008D01*
X347904Y100605D01*
X348663Y101112D01*
X349171Y101872D01*
X349349Y102768D01*
Y102938D01*
X351264D01*
X351771Y103039D01*
X352201Y103326D01*
X358937Y110063D01*
X359225Y110493D01*
X359326Y111000D01*
Y129451D01*
X365549Y135675D01*
X366618D01*
X367301Y135007D01*
Y134547D01*
X370000D01*
Y134047D01*
X370500D01*
Y131742D01*
X371353D01*
X371868Y131844D01*
X372305Y132136D01*
X372597Y132573D01*
X372699Y133088D01*
Y133386D01*
X373499Y133814D01*
X373505Y133810D01*
Y133088D01*
X373592Y132651D01*
X373839Y132280D01*
X374210Y132033D01*
X374647Y131946D01*
X374675D01*
Y129054D01*
X374647D01*
X374210Y128967D01*
X373839Y128720D01*
X373592Y128349D01*
X373505Y127912D01*
Y125993D01*
X373592Y125556D01*
X373839Y125186D01*
X374210Y124938D01*
X374647Y124851D01*
X376798D01*
X377130Y124051D01*
X376227Y123149D01*
X374647D01*
X374210Y123062D01*
X373839Y122814D01*
X373592Y122444D01*
X373578Y122373D01*
X372422D01*
X372408Y122444D01*
X372161Y122814D01*
X371790Y123062D01*
X371353Y123149D01*
X368647D01*
X368210Y123062D01*
X367839Y122814D01*
X367592Y122444D01*
X367578Y122373D01*
X366188D01*
X365834Y122834D01*
X365297Y123246D01*
X364671Y123505D01*
X364000Y123594D01*
X363329Y123505D01*
X362703Y123246D01*
X362166Y122834D01*
X361754Y122297D01*
X361494Y121671D01*
X361406Y121000D01*
X361494Y120329D01*
X361754Y119703D01*
X362166Y119166D01*
X362703Y118754D01*
X363329Y118494D01*
X364000Y118406D01*
X364671Y118494D01*
X365297Y118754D01*
X365834Y119166D01*
X366246Y119703D01*
X366254Y119722D01*
X367578D01*
X367592Y119651D01*
X367839Y119280D01*
X368210Y119033D01*
X368647Y118946D01*
X371353D01*
X371790Y119033D01*
X372161Y119280D01*
X372408Y119651D01*
X372422Y119722D01*
X373578D01*
X373592Y119651D01*
X373839Y119280D01*
X374210Y119033D01*
X374647Y118946D01*
X377353D01*
X377790Y119033D01*
X378161Y119280D01*
X378408Y119651D01*
X378495Y120088D01*
Y121098D01*
X378705Y121239D01*
X379505Y120811D01*
Y120088D01*
X379592Y119651D01*
X379839Y119280D01*
X380210Y119033D01*
X380647Y118946D01*
X383353D01*
X383790Y119033D01*
X384161Y119280D01*
X384408Y119651D01*
X384422Y119722D01*
X385578D01*
X385592Y119651D01*
X385839Y119280D01*
X386210Y119033D01*
X386647Y118946D01*
X389353D01*
X389790Y119033D01*
X390161Y119280D01*
X390408Y119651D01*
X390422Y119722D01*
X391047D01*
X391554Y119823D01*
X391985Y120110D01*
X394549Y122675D01*
X405571D01*
X406078Y122775D01*
X406508Y123063D01*
X409873Y126427D01*
X410738D01*
X411146Y126509D01*
X411492Y126740D01*
X411724Y127086D01*
X411805Y127494D01*
Y129364D01*
X411724Y129772D01*
X411492Y130118D01*
X411326Y130230D01*
Y131946D01*
X411353D01*
X411790Y132033D01*
X412161Y132280D01*
X412408Y132651D01*
X412495Y133088D01*
Y135007D01*
X412408Y135444D01*
X412161Y135814D01*
X411790Y136062D01*
X411353Y136149D01*
X408647D01*
X408210Y136062D01*
X407839Y135814D01*
X407592Y135444D01*
X407505Y135007D01*
Y133088D01*
X407592Y132651D01*
X407839Y132280D01*
X408210Y132033D01*
X408647Y131946D01*
X408674D01*
Y130230D01*
X408508Y130118D01*
X408277Y129772D01*
X408195Y129364D01*
Y128499D01*
X405022Y125326D01*
X394000D01*
X393493Y125225D01*
X393063Y124937D01*
X391050Y122924D01*
X390161Y122814D01*
X389790Y123062D01*
X389353Y123149D01*
X386647D01*
X386210Y123062D01*
X385839Y122814D01*
X385592Y122444D01*
X385578Y122373D01*
X384422D01*
X384408Y122444D01*
X384161Y122814D01*
X383790Y123062D01*
X383353Y123149D01*
X381107D01*
X380776Y123949D01*
X381679Y124851D01*
X383353D01*
X383790Y124938D01*
X384161Y125186D01*
X384408Y125556D01*
X384495Y125993D01*
Y127912D01*
X384408Y128349D01*
X384161Y128720D01*
X383790Y128967D01*
X383353Y129054D01*
X380647D01*
X380210Y128967D01*
X379839Y128720D01*
X379592Y128349D01*
X379505Y127912D01*
Y126996D01*
X379295Y126856D01*
X378495Y127284D01*
Y127912D01*
X378408Y128349D01*
X378161Y128720D01*
X377790Y128967D01*
X377353Y129054D01*
X377326D01*
Y131946D01*
X377353D01*
X377790Y132033D01*
X378161Y132280D01*
X378408Y132651D01*
X378495Y133088D01*
Y133811D01*
X379295Y134239D01*
X379505Y134098D01*
Y133088D01*
X379592Y132651D01*
X379839Y132280D01*
X380210Y132033D01*
X380647Y131946D01*
X383353D01*
X383790Y132033D01*
X384161Y132280D01*
X384408Y132651D01*
X384495Y133088D01*
Y135007D01*
X384408Y135444D01*
X384161Y135814D01*
X383790Y136062D01*
X383353Y136149D01*
X381773D01*
X380871Y137051D01*
X381202Y137851D01*
X383353D01*
X383790Y137938D01*
X384161Y138186D01*
X384408Y138556D01*
X384422Y138627D01*
X385578D01*
X385592Y138556D01*
X385839Y138186D01*
X386210Y137938D01*
X386647Y137851D01*
X389353D01*
X389790Y137938D01*
X390161Y138186D01*
X390408Y138556D01*
X390432Y138674D01*
X391451D01*
X392674Y137451D01*
Y131000D01*
X392775Y130493D01*
X393063Y130063D01*
X395634Y127492D01*
X396064Y127205D01*
X396571Y127104D01*
X398273D01*
X398276Y127086D01*
X398508Y126740D01*
X398854Y126509D01*
X399262Y126427D01*
X400738D01*
X401146Y126509D01*
X401492Y126740D01*
X401723Y127086D01*
X401805Y127494D01*
Y129364D01*
X401723Y129772D01*
X401492Y130118D01*
X401326Y130230D01*
Y131946D01*
X401353D01*
X401790Y132033D01*
X402161Y132280D01*
X402408Y132651D01*
X402495Y133088D01*
Y135007D01*
X402408Y135444D01*
X402161Y135814D01*
X401790Y136062D01*
X401353Y136149D01*
X398647D01*
X398210Y136062D01*
X397839Y135814D01*
X397592Y135444D01*
X397505Y135007D01*
Y133088D01*
X397592Y132651D01*
X397839Y132280D01*
X398210Y132033D01*
X398647Y131946D01*
X398675D01*
Y130230D01*
X398508Y130118D01*
X398276Y129772D01*
X398273Y129755D01*
X397120D01*
X395325Y131549D01*
Y138000D01*
X395225Y138507D01*
X394937Y138937D01*
X392937Y140937D01*
X392507Y141225D01*
X392000Y141325D01*
X390413D01*
X390408Y141349D01*
X390161Y141720D01*
X389790Y141967D01*
X389353Y142054D01*
X386647D01*
X386210Y141967D01*
X385839Y141720D01*
X385592Y141349D01*
X385578Y141278D01*
X384422D01*
X384408Y141349D01*
X384161Y141720D01*
X383790Y141967D01*
X383353Y142054D01*
X380647D01*
X380210Y141967D01*
X379839Y141720D01*
X379592Y141349D01*
X379505Y140912D01*
Y140284D01*
X378705Y139856D01*
X378495Y139996D01*
Y140912D01*
X378408Y141349D01*
X378161Y141720D01*
X377790Y141967D01*
X377353Y142054D01*
X374647D01*
X374210Y141967D01*
X373839Y141720D01*
X373592Y141349D01*
X373578Y141278D01*
X372422D01*
X372408Y141349D01*
X372161Y141720D01*
X371790Y141967D01*
X371353Y142054D01*
X368647D01*
X368210Y141967D01*
X367839Y141720D01*
X367592Y141349D01*
X367578Y141278D01*
X364284D01*
X363953Y142078D01*
X367639Y145764D01*
X372380D01*
X373090Y145906D01*
X373692Y146308D01*
X374094Y146910D01*
X374236Y147620D01*
Y152380D01*
X374094Y153090D01*
X373692Y153692D01*
X373090Y154094D01*
X372380Y154236D01*
X367620D01*
X366910Y154094D01*
X366308Y153692D01*
X365906Y153090D01*
X365764Y152380D01*
Y147639D01*
X348451Y130325D01*
X315062D01*
X315006Y130471D01*
X314929Y131125D01*
X315161Y131280D01*
X315408Y131651D01*
X315422Y131722D01*
X338311D01*
X338818Y131823D01*
X339248Y132110D01*
X343037Y135899D01*
X347008D01*
X347904Y136077D01*
X348663Y136585D01*
X349171Y137344D01*
X349349Y138240D01*
Y141232D01*
X349187Y142048D01*
X354366Y147228D01*
X354654Y147658D01*
X354755Y148165D01*
Y148273D01*
X354772Y148276D01*
X355118Y148508D01*
X355349Y148854D01*
X355431Y149262D01*
Y150738D01*
X355349Y151146D01*
X355118Y151492D01*
X354772Y151724D01*
X354364Y151805D01*
X352494D01*
X352086Y151724D01*
X351740Y151492D01*
X351509Y151146D01*
X351428Y150738D01*
Y149262D01*
X351509Y148854D01*
X351740Y148508D01*
X351754Y148365D01*
X346963Y143573D01*
X342992D01*
X342096Y143395D01*
X341337Y142888D01*
X340829Y142128D01*
X340651Y141232D01*
Y138240D01*
X340813Y137424D01*
X337762Y134373D01*
X315422D01*
X315408Y134444D01*
X315161Y134814D01*
X314790Y135062D01*
X314353Y135149D01*
X311647D01*
X311210Y135062D01*
X310839Y134814D01*
X310592Y134444D01*
X310505Y134007D01*
Y132088D01*
X310592Y131651D01*
X310839Y131280D01*
X310988Y131181D01*
X310919Y130402D01*
X310197Y130360D01*
X309834Y130834D01*
X309297Y131246D01*
X308671Y131506D01*
X308000Y131594D01*
X307326Y132312D01*
Y137000D01*
X307225Y137507D01*
X306937Y137937D01*
X303937Y140937D01*
X303507Y141225D01*
X303000Y141325D01*
X300054D01*
Y141353D01*
X299967Y141790D01*
X299720Y142161D01*
X299349Y142408D01*
X298912Y142495D01*
X296993D01*
X296556Y142408D01*
X296186Y142161D01*
X295938Y141790D01*
X295851Y141353D01*
Y138647D01*
X295938Y138210D01*
X296186Y137839D01*
X296556Y137592D01*
X296993Y137505D01*
X298912D01*
X299349Y137592D01*
X299720Y137839D01*
X299967Y138210D01*
X300054Y138647D01*
Y138674D01*
X302451D01*
X304675Y136451D01*
Y131000D01*
X304775Y130493D01*
X305063Y130063D01*
X305355Y129771D01*
X305310Y128910D01*
X304688Y128325D01*
X303432D01*
X303408Y128444D01*
X303161Y128814D01*
X302790Y129062D01*
X302353Y129149D01*
X299647D01*
X299210Y129062D01*
X298839Y128814D01*
X298592Y128444D01*
X298568Y128325D01*
X295858D01*
X295351Y128225D01*
X294921Y127937D01*
X292593Y125609D01*
X292528Y125622D01*
X290953D01*
X290333Y125499D01*
X289808Y125148D01*
X289458Y124623D01*
X289334Y124004D01*
Y122351D01*
X287667Y120684D01*
X287216Y120739D01*
X287140Y120784D01*
X286623Y121545D01*
X286666Y121760D01*
Y123413D01*
X292985Y129732D01*
X293272Y130162D01*
X293373Y130669D01*
Y137578D01*
X293444Y137592D01*
X293814Y137839D01*
X294062Y138210D01*
X294149Y138647D01*
Y141353D01*
X294062Y141790D01*
X293814Y142161D01*
X293444Y142408D01*
X293007Y142495D01*
X291088D01*
X290651Y142408D01*
X290280Y142161D01*
X290033Y141790D01*
X289946Y141353D01*
Y138647D01*
X290033Y138210D01*
X290280Y137839D01*
X290651Y137592D01*
X290722Y137578D01*
Y135642D01*
X289932Y135385D01*
X289407Y135735D01*
X288787Y135859D01*
X287213D01*
X286593Y135735D01*
X286068Y135385D01*
X285717Y134860D01*
X285635Y134444D01*
X283002D01*
X277572Y139873D01*
Y140738D01*
X277491Y141146D01*
X277260Y141492D01*
X276914Y141724D01*
X276506Y141805D01*
X274636D01*
X274228Y141724D01*
X273882Y141492D01*
X273770Y141325D01*
X271054D01*
Y141353D01*
X270967Y141790D01*
X270720Y142161D01*
X270349Y142408D01*
X269912Y142495D01*
X267993D01*
X267556Y142408D01*
X267186Y142161D01*
X266938Y141790D01*
X266851Y141353D01*
Y138647D01*
X266938Y138210D01*
X267186Y137839D01*
X267556Y137592D01*
X267993Y137505D01*
X269912D01*
X270349Y137592D01*
X270720Y137839D01*
X270967Y138210D01*
X271054Y138647D01*
Y138674D01*
X273770D01*
X273882Y138508D01*
X274228Y138276D01*
X274636Y138195D01*
X275501D01*
X281516Y132181D01*
X281945Y131894D01*
X282453Y131793D01*
X285635D01*
X285717Y131377D01*
X286068Y130852D01*
X286593Y130501D01*
X287213Y130378D01*
X288750D01*
X288827Y130293D01*
X289134Y129631D01*
X285113Y125609D01*
X285047Y125622D01*
X283472D01*
X282853Y125499D01*
X282328Y125148D01*
X281977Y124623D01*
X281918Y124326D01*
X278054D01*
Y124353D01*
X277967Y124790D01*
X277720Y125161D01*
X277349Y125408D01*
X277278Y125422D01*
Y128578D01*
X277349Y128592D01*
X277720Y128839D01*
X277967Y129210D01*
X278054Y129647D01*
Y132353D01*
X277967Y132790D01*
X277720Y133161D01*
X277349Y133408D01*
X276912Y133495D01*
X274993D01*
X274556Y133408D01*
X274186Y133161D01*
X273938Y132790D01*
X273851Y132353D01*
Y129647D01*
X273938Y129210D01*
X274186Y128839D01*
X274556Y128592D01*
X274627Y128578D01*
Y125422D01*
X274556Y125408D01*
X274186Y125161D01*
X273938Y124790D01*
X273851Y124353D01*
Y121647D01*
X273938Y121210D01*
X273994Y121125D01*
X273624Y120326D01*
X272376D01*
X272006Y121125D01*
X272062Y121210D01*
X272149Y121647D01*
Y124353D01*
X272062Y124790D01*
X271814Y125161D01*
X271444Y125408D01*
X271007Y125495D01*
X269088D01*
X268651Y125408D01*
X268280Y125161D01*
X268033Y124790D01*
X267992Y124585D01*
X265874D01*
X265695Y124853D01*
X265235Y125160D01*
X264693Y125268D01*
X261543D01*
X261387Y125237D01*
X260647Y125754D01*
X260613Y126360D01*
X262984Y128732D01*
X264693D01*
X265235Y128840D01*
X265695Y129147D01*
X266003Y129607D01*
X266111Y130150D01*
Y131331D01*
X266003Y131873D01*
X265695Y132333D01*
X265235Y132641D01*
X264693Y132748D01*
X261543D01*
X261001Y132641D01*
X260541Y132333D01*
X260233Y131873D01*
X260125Y131331D01*
Y130150D01*
X260213Y129710D01*
X258063Y127559D01*
X257775Y127129D01*
X257675Y126622D01*
Y122000D01*
X257775Y121493D01*
X258063Y121063D01*
X260061Y119065D01*
X259755Y118325D01*
X252549D01*
X250403Y120472D01*
X250872Y121134D01*
X251307Y121048D01*
X252382D01*
Y123260D01*
X252882D01*
Y123760D01*
X256078D01*
Y123850D01*
X255955Y124471D01*
X255814Y124682D01*
X255459Y125407D01*
X255767Y125867D01*
X255874Y126409D01*
Y127591D01*
X255767Y128133D01*
X255648Y128311D01*
X255522Y128870D01*
X255648Y129429D01*
X255767Y129607D01*
X255874Y130150D01*
Y131331D01*
X255767Y131873D01*
X255459Y132333D01*
X254999Y132641D01*
X254457Y132748D01*
X251307D01*
X250764Y132641D01*
X250305Y132333D01*
X249997Y131873D01*
X249889Y131331D01*
Y130150D01*
X249997Y129607D01*
X250116Y129429D01*
X250194Y129084D01*
X249719Y128325D01*
X248549D01*
X247510Y129364D01*
X247594Y130000D01*
X247505Y130671D01*
X247246Y131297D01*
X246834Y131834D01*
X246297Y132246D01*
X245671Y132506D01*
X245000Y132594D01*
X244329Y132506D01*
X243703Y132246D01*
X243166Y131834D01*
X242754Y131297D01*
X242495Y130671D01*
X242406Y130000D01*
X242467Y129539D01*
X241830Y129140D01*
X241755Y129119D01*
X215937Y154937D01*
X215507Y155225D01*
X215000Y155325D01*
X181000D01*
X180493Y155225D01*
X180063Y154937D01*
X177245Y152119D01*
X177170Y152140D01*
X176533Y152539D01*
X176594Y153000D01*
X176505Y153671D01*
X176246Y154297D01*
X175834Y154834D01*
X175297Y155246D01*
X174671Y155506D01*
X174000Y155594D01*
D02*
G37*
G36*
X285353Y155054D02*
X282647D01*
X282210Y154967D01*
X281839Y154720D01*
X281592Y154349D01*
X281505Y153912D01*
Y152332D01*
X280498Y151326D01*
X276997D01*
X276669Y152118D01*
X275995Y152996D01*
X275118Y153669D01*
X274096Y154092D01*
X273000Y154236D01*
X271904Y154092D01*
X270882Y153669D01*
X270005Y152996D01*
X269331Y152118D01*
X268908Y151096D01*
X268764Y150000D01*
X268908Y148904D01*
X269331Y147882D01*
X270005Y147004D01*
X270882Y146331D01*
X271904Y145908D01*
X273000Y145764D01*
X274096Y145908D01*
X275118Y146331D01*
X275995Y147004D01*
X276669Y147882D01*
X276997Y148674D01*
X280618D01*
X281253Y148054D01*
X281301Y147909D01*
Y147547D01*
X283500D01*
Y149353D01*
X283406D01*
X283074Y150153D01*
X283773Y150851D01*
X285353D01*
X285790Y150938D01*
X286161Y151186D01*
X286408Y151556D01*
X286495Y151993D01*
Y153912D01*
X286408Y154349D01*
X286161Y154720D01*
X285790Y154967D01*
X285353Y155054D01*
D02*
G37*
G36*
X243500Y154372D02*
Y150500D01*
X247372D01*
X247287Y151149D01*
X246843Y152219D01*
X246138Y153138D01*
X245219Y153843D01*
X244149Y154287D01*
X243500Y154372D01*
D02*
G37*
G36*
X108000Y155325D02*
X44000D01*
X43493Y155225D01*
X43063Y154937D01*
X38063Y149937D01*
X37775Y149507D01*
X37674Y149000D01*
Y113549D01*
X34063Y109937D01*
X33775Y109507D01*
X33674Y109000D01*
Y88000D01*
X33775Y87493D01*
X34063Y87063D01*
X39737Y81388D01*
Y61384D01*
X39587D01*
X39083Y61284D01*
X38655Y60998D01*
X38370Y60571D01*
X38269Y60067D01*
Y55933D01*
X38370Y55429D01*
X38655Y55001D01*
X39083Y54716D01*
X39587Y54616D01*
X39737D01*
Y50979D01*
X39308Y50692D01*
X38906Y50090D01*
X38764Y49380D01*
Y44620D01*
X38906Y43910D01*
X39308Y43308D01*
X39910Y42906D01*
X40620Y42764D01*
X45380D01*
X46090Y42906D01*
X46692Y43308D01*
X47094Y43910D01*
X47236Y44620D01*
Y49380D01*
X47094Y50090D01*
X46692Y50692D01*
X46090Y51094D01*
X45380Y51236D01*
X42388D01*
Y54616D01*
X42539D01*
X43044Y54716D01*
X43471Y55001D01*
X43756Y55429D01*
X43857Y55933D01*
Y60067D01*
X43756Y60571D01*
X43471Y60998D01*
X43044Y61284D01*
X42539Y61384D01*
X42388D01*
Y81937D01*
X42288Y82444D01*
X42000Y82874D01*
X36325Y88549D01*
Y108451D01*
X39937Y112063D01*
X40225Y112493D01*
X40325Y113000D01*
Y148451D01*
X44549Y152674D01*
X107451D01*
X109063Y151063D01*
X109493Y150775D01*
X110000Y150674D01*
X111946D01*
Y150647D01*
X112033Y150210D01*
X112280Y149839D01*
X112651Y149592D01*
X113088Y149505D01*
X115007D01*
X115444Y149592D01*
X115814Y149839D01*
X116062Y150210D01*
X116149Y150647D01*
Y153353D01*
X116062Y153790D01*
X115814Y154161D01*
X115444Y154408D01*
X115007Y154495D01*
X113088D01*
X112651Y154408D01*
X112280Y154161D01*
X112033Y153790D01*
X111946Y153353D01*
Y153325D01*
X110549D01*
X108937Y154937D01*
X108507Y155225D01*
X108000Y155325D01*
D02*
G37*
G36*
X242500Y154372D02*
X241851Y154287D01*
X240781Y153843D01*
X239862Y153138D01*
X239157Y152219D01*
X238713Y151149D01*
X238628Y150500D01*
X242500D01*
Y154372D01*
D02*
G37*
G36*
X409500D02*
X408851Y154287D01*
X407781Y153843D01*
X406862Y153138D01*
X406157Y152219D01*
X405713Y151149D01*
X405628Y150500D01*
X409500D01*
Y154372D01*
D02*
G37*
G36*
X286635Y139500D02*
X284929D01*
Y137991D01*
X285364D01*
X285850Y138088D01*
X286262Y138363D01*
X286538Y138776D01*
X286635Y139262D01*
Y139500D01*
D02*
G37*
G36*
X121500Y141353D02*
X120647D01*
X120132Y141250D01*
X119695Y140958D01*
X119403Y140522D01*
X119301Y140007D01*
Y139547D01*
X121500D01*
Y141353D01*
D02*
G37*
G36*
X283929Y142009D02*
X283494D01*
X283008Y141912D01*
X282596Y141637D01*
X282320Y141224D01*
X282224Y140738D01*
Y140500D01*
X283929D01*
Y142009D01*
D02*
G37*
G36*
Y139500D02*
X282224D01*
Y139262D01*
X282320Y138776D01*
X282596Y138363D01*
X283008Y138088D01*
X283494Y137991D01*
X283929D01*
Y139500D01*
D02*
G37*
G36*
X263000Y154236D02*
X261904Y154092D01*
X260882Y153669D01*
X260004Y152996D01*
X259331Y152118D01*
X258908Y151096D01*
X258764Y150000D01*
X258908Y148904D01*
X259331Y147882D01*
X260004Y147004D01*
X260882Y146331D01*
X261722Y145983D01*
Y142422D01*
X261651Y142408D01*
X261280Y142161D01*
X261033Y141790D01*
X260946Y141353D01*
Y138647D01*
X261033Y138210D01*
X261280Y137839D01*
X261651Y137592D01*
X262088Y137505D01*
X264007D01*
X264444Y137592D01*
X264814Y137839D01*
X265062Y138210D01*
X265149Y138647D01*
Y141353D01*
X265062Y141790D01*
X264814Y142161D01*
X264444Y142408D01*
X264373Y142422D01*
Y146023D01*
X265118Y146331D01*
X265996Y147004D01*
X266669Y147882D01*
X267092Y148904D01*
X267236Y150000D01*
X267092Y151096D01*
X266669Y152118D01*
X265996Y152996D01*
X265118Y153669D01*
X264096Y154092D01*
X263000Y154236D01*
D02*
G37*
G36*
X390000D02*
X388904Y154092D01*
X387882Y153669D01*
X387004Y152996D01*
X386331Y152118D01*
X385908Y151096D01*
X385764Y150000D01*
X385908Y148904D01*
X386331Y147882D01*
X387004Y147004D01*
X387882Y146331D01*
X388904Y145908D01*
X390000Y145764D01*
X391096Y145908D01*
X391889Y146236D01*
X397505Y140621D01*
Y138993D01*
X397592Y138556D01*
X397839Y138186D01*
X398210Y137938D01*
X398647Y137851D01*
X401353D01*
X401790Y137938D01*
X402161Y138186D01*
X402408Y138556D01*
X402495Y138993D01*
Y140912D01*
X402408Y141349D01*
X402161Y141720D01*
X401790Y141967D01*
X401353Y142054D01*
X399820D01*
X393764Y148111D01*
X394092Y148904D01*
X394236Y150000D01*
X394092Y151096D01*
X393669Y152118D01*
X392996Y152996D01*
X392118Y153669D01*
X391096Y154092D01*
X390000Y154236D01*
D02*
G37*
G36*
X400000D02*
X398904Y154092D01*
X397882Y153669D01*
X397005Y152996D01*
X396331Y152118D01*
X395908Y151096D01*
X395764Y150000D01*
X395908Y148904D01*
X396331Y147882D01*
X397005Y147004D01*
X397882Y146331D01*
X398904Y145908D01*
X400000Y145764D01*
X401096Y145908D01*
X401889Y146236D01*
X407505Y140621D01*
Y138993D01*
X407592Y138556D01*
X407839Y138186D01*
X408210Y137938D01*
X408647Y137851D01*
X411353D01*
X411790Y137938D01*
X412161Y138186D01*
X412408Y138556D01*
X412495Y138993D01*
Y140912D01*
X412408Y141349D01*
X412161Y141720D01*
X411790Y141967D01*
X411353Y142054D01*
X409820D01*
X403764Y148111D01*
X404092Y148904D01*
X404236Y150000D01*
X404092Y151096D01*
X403669Y152118D01*
X402995Y152996D01*
X402118Y153669D01*
X401096Y154092D01*
X400000Y154236D01*
D02*
G37*
G36*
X285364Y142009D02*
X284929D01*
Y140500D01*
X286635D01*
Y140738D01*
X286538Y141224D01*
X286262Y141637D01*
X285850Y141912D01*
X285364Y142009D01*
D02*
G37*
G36*
X247372Y149500D02*
X243500D01*
Y145628D01*
X244149Y145713D01*
X245219Y146157D01*
X246138Y146862D01*
X246843Y147781D01*
X247287Y148851D01*
X247372Y149500D01*
D02*
G37*
G36*
X414372D02*
X410500D01*
Y145628D01*
X411149Y145713D01*
X412219Y146157D01*
X413138Y146862D01*
X413843Y147781D01*
X414287Y148851D01*
X414372Y149500D01*
D02*
G37*
G36*
X253000Y154236D02*
X251904Y154092D01*
X250882Y153669D01*
X250005Y152996D01*
X249331Y152118D01*
X248908Y151096D01*
X248764Y150000D01*
X248908Y148904D01*
X249331Y147882D01*
X250005Y147004D01*
X250882Y146331D01*
X251904Y145908D01*
X253000Y145764D01*
X254096Y145908D01*
X255118Y146331D01*
X255995Y147004D01*
X256669Y147882D01*
X257092Y148904D01*
X257236Y150000D01*
X257092Y151096D01*
X256669Y152118D01*
X255995Y152996D01*
X255118Y153669D01*
X254096Y154092D01*
X253000Y154236D01*
D02*
G37*
G36*
X409500Y149500D02*
X405628D01*
X405713Y148851D01*
X406157Y147781D01*
X406862Y146862D01*
X407781Y146157D01*
X408851Y145713D01*
X409500Y145628D01*
Y149500D01*
D02*
G37*
G36*
X283500Y146547D02*
X281301D01*
Y146088D01*
X281403Y145573D01*
X281695Y145136D01*
X282132Y144844D01*
X282647Y144742D01*
X283500D01*
Y146547D01*
D02*
G37*
G36*
X286699D02*
X284500D01*
Y144742D01*
X285353D01*
X285868Y144844D01*
X286305Y145136D01*
X286597Y145573D01*
X286699Y146088D01*
Y146547D01*
D02*
G37*
G36*
X242500Y149500D02*
X238628D01*
X238713Y148851D01*
X239157Y147781D01*
X239862Y146862D01*
X240781Y146157D01*
X241851Y145713D01*
X242500Y145628D01*
Y149500D01*
D02*
G37*
G36*
X412009Y119071D02*
X410500D01*
Y117365D01*
X410738D01*
X411224Y117462D01*
X411636Y117737D01*
X411912Y118150D01*
X412009Y118636D01*
Y119071D01*
D02*
G37*
G36*
X367500Y84635D02*
X367262D01*
X366776Y84538D01*
X366364Y84263D01*
X366088Y83850D01*
X365991Y83364D01*
Y82929D01*
X367500D01*
Y84635D01*
D02*
G37*
G36*
X325500D02*
X325262D01*
X324776Y84538D01*
X324363Y84263D01*
X324088Y83850D01*
X323991Y83364D01*
Y82929D01*
X325500D01*
Y84635D01*
D02*
G37*
G36*
X266016Y91158D02*
Y87024D01*
Y82889D01*
X266316Y82949D01*
X266745Y83236D01*
X266846D01*
X267274Y82949D01*
X267575Y82889D01*
Y87024D01*
Y91158D01*
X267274Y91098D01*
X266795Y90839D01*
X266316Y91098D01*
X266016Y91158D01*
D02*
G37*
G36*
X62067Y100935D02*
X60500D01*
Y98437D01*
X63588D01*
Y99413D01*
X63472Y99996D01*
X63143Y100489D01*
X62649Y100819D01*
X62067Y100935D01*
D02*
G37*
G36*
X409500Y84635D02*
X409262D01*
X408776Y84538D01*
X408363Y84263D01*
X408088Y83850D01*
X407991Y83364D01*
Y82929D01*
X409500D01*
Y84635D01*
D02*
G37*
G36*
X402500D02*
X402262D01*
X401776Y84538D01*
X401364Y84263D01*
X401088Y83850D01*
X400991Y83364D01*
Y82929D01*
X402500D01*
Y84635D01*
D02*
G37*
G36*
X149258Y105500D02*
X147453D01*
Y103301D01*
X147912D01*
X148427Y103403D01*
X148864Y103695D01*
X149156Y104132D01*
X149258Y104647D01*
Y105500D01*
D02*
G37*
G36*
X116500Y106437D02*
X113412D01*
Y105461D01*
X113528Y104878D01*
X113857Y104385D01*
X114351Y104055D01*
X114933Y103939D01*
X116500D01*
Y106437D01*
D02*
G37*
G36*
X120588D02*
X117500D01*
Y103939D01*
X119067D01*
X119649Y104055D01*
X120143Y104385D01*
X120473Y104878D01*
X120588Y105461D01*
Y106437D01*
D02*
G37*
G36*
X269691Y86524D02*
X268575D01*
Y82889D01*
X268876Y82949D01*
X269304Y83236D01*
X269590Y83664D01*
X269691Y84169D01*
Y86524D01*
D02*
G37*
G36*
X361738Y84587D02*
X361500D01*
Y82882D01*
X363009D01*
Y83317D01*
X362912Y83803D01*
X362636Y84215D01*
X362224Y84491D01*
X361738Y84587D01*
D02*
G37*
G36*
X360500D02*
X360262D01*
X359776Y84491D01*
X359364Y84215D01*
X359088Y83803D01*
X358991Y83317D01*
Y82882D01*
X360500D01*
Y84587D01*
D02*
G37*
G36*
X157500Y90372D02*
X156851Y90287D01*
X155781Y89843D01*
X154862Y89138D01*
X154157Y88219D01*
X153713Y87149D01*
X153628Y86500D01*
X157500D01*
Y90372D01*
D02*
G37*
G36*
X410738Y84635D02*
X410500D01*
Y82929D01*
X412009D01*
Y83364D01*
X411912Y83850D01*
X411636Y84263D01*
X411224Y84538D01*
X410738Y84635D01*
D02*
G37*
G36*
X59500Y97437D02*
X56412D01*
Y96461D01*
X56528Y95878D01*
X56857Y95385D01*
X57351Y95055D01*
X57933Y94939D01*
X59500D01*
Y97437D01*
D02*
G37*
G36*
X158500Y90372D02*
Y86500D01*
X162372D01*
X162287Y87149D01*
X161843Y88219D01*
X161138Y89138D01*
X160219Y89843D01*
X159149Y90287D01*
X158500Y90372D01*
D02*
G37*
G36*
X268575Y91158D02*
Y87524D01*
X269691D01*
Y89878D01*
X269590Y90383D01*
X269304Y90812D01*
X268876Y91098D01*
X268575Y91158D01*
D02*
G37*
G36*
X265016D02*
X264715Y91098D01*
X264236Y90839D01*
X263757Y91098D01*
X263457Y91158D01*
Y87024D01*
Y82889D01*
X263757Y82949D01*
X264186Y83236D01*
X264287D01*
X264715Y82949D01*
X265016Y82889D01*
Y87024D01*
Y91158D01*
D02*
G37*
G36*
X403738Y84635D02*
X403500D01*
Y82929D01*
X405009D01*
Y83364D01*
X404912Y83850D01*
X404636Y84263D01*
X404224Y84538D01*
X403738Y84635D01*
D02*
G37*
G36*
X368738D02*
X368500D01*
Y82929D01*
X370009D01*
Y83364D01*
X369912Y83850D01*
X369637Y84263D01*
X369224Y84538D01*
X368738Y84635D01*
D02*
G37*
G36*
X59500Y100935D02*
X57933D01*
X57351Y100819D01*
X56857Y100489D01*
X56528Y99996D01*
X56412Y99413D01*
Y98437D01*
X59500D01*
Y100935D01*
D02*
G37*
G36*
X63588Y97437D02*
X60500D01*
Y94939D01*
X62067D01*
X62649Y95055D01*
X63143Y95385D01*
X63472Y95878D01*
X63588Y96461D01*
Y97437D01*
D02*
G37*
G36*
X151453Y97500D02*
X149647D01*
Y96647D01*
X149750Y96132D01*
X150041Y95695D01*
X150478Y95403D01*
X150993Y95301D01*
X151453D01*
Y97500D01*
D02*
G37*
G36*
X154258D02*
X152453D01*
Y95301D01*
X152912D01*
X153427Y95403D01*
X153864Y95695D01*
X154156Y96132D01*
X154258Y96647D01*
Y97500D01*
D02*
G37*
G36*
X409500Y81929D02*
X407991D01*
Y81494D01*
X408088Y81008D01*
X408363Y80596D01*
X408776Y80320D01*
X409262Y80224D01*
X409500D01*
Y81929D01*
D02*
G37*
G36*
X111179Y113594D02*
X107500D01*
Y111097D01*
X109658D01*
X110240Y111213D01*
X110733Y111542D01*
X111063Y112036D01*
X111179Y112618D01*
Y113594D01*
D02*
G37*
G36*
X140547Y113500D02*
X138742D01*
Y112647D01*
X138844Y112132D01*
X139136Y111695D01*
X139573Y111403D01*
X140088Y111301D01*
X140547D01*
Y113500D01*
D02*
G37*
G36*
X83880Y110963D02*
X81083D01*
Y108555D01*
X85853D01*
Y108990D01*
X85703Y109745D01*
X85275Y110385D01*
X84635Y110813D01*
X83880Y110963D01*
D02*
G37*
G36*
X106500Y113594D02*
X102821D01*
Y112618D01*
X102937Y112036D01*
X103267Y111542D01*
X103760Y111213D01*
X104342Y111097D01*
X106500D01*
Y113594D01*
D02*
G37*
G36*
X412009Y81929D02*
X410500D01*
Y80224D01*
X410738D01*
X411224Y80320D01*
X411636Y80596D01*
X411912Y81008D01*
X412009Y81494D01*
Y81929D01*
D02*
G37*
G36*
X409500Y119071D02*
X407991D01*
Y118636D01*
X408088Y118150D01*
X408363Y117737D01*
X408776Y117462D01*
X409262Y117365D01*
X409500D01*
Y119071D01*
D02*
G37*
G36*
X405009Y81929D02*
X403500D01*
Y80224D01*
X403738D01*
X404224Y80320D01*
X404636Y80596D01*
X404912Y81008D01*
X405009Y81494D01*
Y81929D01*
D02*
G37*
G36*
X402500D02*
X400991D01*
Y81494D01*
X401088Y81008D01*
X401364Y80596D01*
X401776Y80320D01*
X402262Y80224D01*
X402500D01*
Y81929D01*
D02*
G37*
G36*
X140547Y116699D02*
X140088D01*
X139573Y116597D01*
X139136Y116305D01*
X138844Y115868D01*
X138742Y115353D01*
Y114500D01*
X140547D01*
Y116699D01*
D02*
G37*
G36*
X399500Y119071D02*
X397991D01*
Y118636D01*
X398088Y118150D01*
X398363Y117737D01*
X398776Y117462D01*
X399262Y117365D01*
X399500D01*
Y119071D01*
D02*
G37*
G36*
X402009D02*
X400500D01*
Y117365D01*
X400738D01*
X401224Y117462D01*
X401637Y117737D01*
X401912Y118150D01*
X402009Y118636D01*
Y119071D01*
D02*
G37*
G36*
X80083Y107555D02*
X75313D01*
Y107120D01*
X75463Y106365D01*
X75890Y105725D01*
X76530Y105297D01*
X77285Y105147D01*
X80083D01*
Y107555D01*
D02*
G37*
G36*
X85853D02*
X81083D01*
Y105147D01*
X83880D01*
X84635Y105297D01*
X85275Y105725D01*
X85703Y106365D01*
X85853Y107120D01*
Y107555D01*
D02*
G37*
G36*
X147912Y108699D02*
X147453D01*
Y106500D01*
X149258D01*
Y107353D01*
X149156Y107868D01*
X148864Y108305D01*
X148427Y108597D01*
X147912Y108699D01*
D02*
G37*
G36*
X235353Y83353D02*
X234500D01*
Y81547D01*
X236699D01*
Y82007D01*
X236597Y82522D01*
X236305Y82959D01*
X235868Y83250D01*
X235353Y83353D01*
D02*
G37*
G36*
X233500D02*
X232647D01*
X232132Y83250D01*
X231695Y82959D01*
X231403Y82522D01*
X231301Y82007D01*
Y81547D01*
X233500D01*
Y83353D01*
D02*
G37*
G36*
X73588Y107437D02*
X70500D01*
Y104939D01*
X72067D01*
X72649Y105055D01*
X73143Y105385D01*
X73472Y105878D01*
X73588Y106461D01*
Y107437D01*
D02*
G37*
G36*
X116500Y109935D02*
X114933D01*
X114351Y109819D01*
X113857Y109489D01*
X113528Y108996D01*
X113412Y108413D01*
Y107437D01*
X116500D01*
Y109935D01*
D02*
G37*
G36*
X72067Y110935D02*
X70500D01*
Y108437D01*
X73588D01*
Y109413D01*
X73472Y109996D01*
X73143Y110489D01*
X72649Y110819D01*
X72067Y110935D01*
D02*
G37*
G36*
X69500D02*
X67933D01*
X67351Y110819D01*
X66857Y110489D01*
X66527Y109996D01*
X66412Y109413D01*
Y108437D01*
X69500D01*
Y110935D01*
D02*
G37*
G36*
X119067Y109935D02*
X117500D01*
Y107437D01*
X120588D01*
Y108413D01*
X120473Y108996D01*
X120143Y109489D01*
X119649Y109819D01*
X119067Y109935D01*
D02*
G37*
G36*
X80083Y110963D02*
X77285D01*
X76530Y110813D01*
X75890Y110385D01*
X75463Y109745D01*
X75313Y108990D01*
Y108555D01*
X80083D01*
Y110963D01*
D02*
G37*
%LPD*%
G36*
X121000Y117000D02*
X60000Y117000D01*
X60000Y136000D01*
X92574Y136000D01*
X93610Y135150D01*
X94883Y134469D01*
X96264Y134050D01*
X97701Y133909D01*
X99137Y134050D01*
X100519Y134469D01*
X101791Y135150D01*
X102828Y136000D01*
X121000Y136000D01*
X121000Y117000D01*
D02*
G37*
%LPC*%
G36*
X72926Y122228D02*
X69579D01*
Y118881D01*
X71046D01*
X71766Y119024D01*
X72375Y119432D01*
X72783Y120041D01*
X72926Y120761D01*
Y122228D01*
D02*
G37*
G36*
X68579D02*
X65232D01*
Y120761D01*
X65375Y120041D01*
X65782Y119432D01*
X66392Y119024D01*
X67111Y118881D01*
X68579D01*
Y122228D01*
D02*
G37*
G36*
X78921Y134245D02*
X77979Y134120D01*
X77100Y133757D01*
X76346Y133178D01*
X75767Y132423D01*
X75403Y131545D01*
X75279Y130602D01*
X75403Y129660D01*
X75767Y128781D01*
X76346Y128027D01*
X77100Y127448D01*
X77979Y127084D01*
X78921Y126960D01*
X79864Y127084D01*
X80742Y127448D01*
X81497Y128027D01*
X81794Y128415D01*
X102571D01*
X102907Y127815D01*
X102821Y127382D01*
Y126406D01*
X107000D01*
Y125406D01*
X102821D01*
Y124429D01*
X102870Y124185D01*
X102445Y123585D01*
X82451D01*
X82439Y123671D01*
X82076Y124549D01*
X81497Y125304D01*
X80742Y125883D01*
X79864Y126246D01*
X78921Y126371D01*
X77979Y126246D01*
X77100Y125883D01*
X76346Y125304D01*
X75767Y124549D01*
X75403Y123671D01*
X75279Y122728D01*
X75403Y121786D01*
X75767Y120907D01*
X76346Y120153D01*
X77100Y119574D01*
X77979Y119210D01*
X78921Y119086D01*
X79864Y119210D01*
X80742Y119574D01*
X81497Y120153D01*
X82076Y120907D01*
X82087Y120934D01*
X114126D01*
X114305Y120667D01*
X114764Y120359D01*
X115307Y120252D01*
X118457D01*
X118999Y120359D01*
X119459Y120667D01*
X119767Y121127D01*
X119875Y121669D01*
Y122850D01*
X119767Y123393D01*
X119459Y123853D01*
X119703Y124412D01*
X119955Y124789D01*
X120078Y125409D01*
Y125500D01*
X116882D01*
Y126500D01*
X120078D01*
Y126591D01*
X119955Y127211D01*
X119703Y127588D01*
X119459Y128147D01*
X119767Y128607D01*
X119875Y129150D01*
Y130331D01*
X119767Y130873D01*
X119459Y131333D01*
X118999Y131641D01*
X118457Y131748D01*
X115307D01*
X114764Y131641D01*
X114305Y131333D01*
X114126Y131066D01*
X82502D01*
X82439Y131545D01*
X82076Y132423D01*
X81497Y133178D01*
X80742Y133757D01*
X79864Y134120D01*
X78921Y134245D01*
D02*
G37*
G36*
X69079D02*
X68136Y134120D01*
X67258Y133757D01*
X66503Y133178D01*
X65925Y132423D01*
X65561Y131545D01*
X65437Y130602D01*
X65561Y129660D01*
X65925Y128781D01*
X66503Y128027D01*
X67258Y127448D01*
X67916Y127175D01*
X67797Y126576D01*
X67111D01*
X66392Y126432D01*
X65782Y126025D01*
X65375Y125415D01*
X65232Y124696D01*
Y123228D01*
X69079D01*
Y122728D01*
D01*
Y123228D01*
X72926D01*
Y124696D01*
X72783Y125415D01*
X72375Y126025D01*
X71766Y126432D01*
X71046Y126576D01*
X70361D01*
X70241Y127175D01*
X70900Y127448D01*
X71654Y128027D01*
X72233Y128781D01*
X72597Y129660D01*
X72721Y130602D01*
X72597Y131545D01*
X72233Y132423D01*
X71654Y133178D01*
X70900Y133757D01*
X70021Y134120D01*
X69079Y134245D01*
D02*
G37*
%LPD*%
G36*
X356675Y129669D02*
Y111549D01*
X350715Y105589D01*
X349349D01*
Y105760D01*
X349171Y106656D01*
X348663Y107415D01*
X347904Y107923D01*
X347008Y108101D01*
X342992D01*
X342096Y107923D01*
X341337Y107415D01*
X340829Y106656D01*
X340651Y105760D01*
Y102768D01*
X340829Y101872D01*
X341337Y101112D01*
X342096Y100605D01*
X342992Y100427D01*
X343372D01*
Y96285D01*
X343186Y96161D01*
X342938Y95790D01*
X342851Y95353D01*
Y92647D01*
X342938Y92210D01*
X343186Y91839D01*
X342860Y91095D01*
X342345Y90580D01*
X340485D01*
X340406Y91380D01*
X340522Y91403D01*
X340958Y91695D01*
X341250Y92132D01*
X341353Y92647D01*
Y93500D01*
X336742D01*
Y92647D01*
X336844Y92132D01*
X337136Y91695D01*
X337573Y91403D01*
X337688Y91380D01*
X337609Y90580D01*
X336029D01*
X335834Y90834D01*
X335297Y91246D01*
X334671Y91505D01*
X334002Y91594D01*
X331298Y94298D01*
X330702Y94696D01*
X330000Y94835D01*
X314833D01*
X314325Y95224D01*
Y99993D01*
X314353D01*
X314790Y100080D01*
X315161Y100328D01*
X315408Y100698D01*
X315495Y101135D01*
Y103054D01*
X315408Y103491D01*
X315161Y103861D01*
X314790Y104109D01*
X314353Y104196D01*
X311647D01*
X311210Y104109D01*
X310839Y103861D01*
X310592Y103491D01*
X310505Y103054D01*
Y101135D01*
X310592Y100698D01*
X310839Y100328D01*
X311210Y100080D01*
X311647Y99993D01*
X311674D01*
Y95224D01*
X311167Y94835D01*
X283833D01*
X283297Y95246D01*
X282671Y95505D01*
X282000Y95594D01*
X281329Y95505D01*
X280703Y95246D01*
X280166Y94834D01*
X279754Y94297D01*
X279495Y93671D01*
X279406Y93000D01*
X279467Y92539D01*
X278830Y92140D01*
X278755Y92119D01*
X259939Y110935D01*
X260245Y111674D01*
X283451D01*
X291063Y104063D01*
X291493Y103775D01*
X292000Y103674D01*
X297776D01*
X298166Y103166D01*
X298703Y102754D01*
X299329Y102495D01*
X300000Y102406D01*
X300671Y102495D01*
X301297Y102754D01*
X301834Y103166D01*
X302246Y103703D01*
X302505Y104329D01*
X302594Y105000D01*
X302505Y105671D01*
X302246Y106297D01*
X301834Y106834D01*
X301297Y107246D01*
X300671Y107506D01*
X300000Y107594D01*
X299329Y107506D01*
X298703Y107246D01*
X298166Y106834D01*
X297776Y106325D01*
X292549D01*
X288119Y110755D01*
X288140Y110830D01*
X288539Y111467D01*
X289000Y111406D01*
X289671Y111495D01*
X290297Y111754D01*
X290834Y112166D01*
X291246Y112703D01*
X291506Y113329D01*
X291594Y114000D01*
X291506Y114671D01*
X291421Y114874D01*
X291914Y115674D01*
X296404D01*
X303505Y108573D01*
Y106993D01*
X303592Y106556D01*
X303839Y106186D01*
X304210Y105938D01*
X304647Y105851D01*
X307353D01*
X307790Y105938D01*
X308161Y106186D01*
X308408Y106556D01*
X308422Y106627D01*
X310587D01*
X310592Y106603D01*
X310839Y106233D01*
X311210Y105985D01*
X311647Y105898D01*
X314353D01*
X314790Y105985D01*
X315161Y106233D01*
X315408Y106603D01*
X315422Y106675D01*
X319451D01*
X320651Y105474D01*
Y102768D01*
X320829Y101872D01*
X321337Y101112D01*
X322096Y100605D01*
X322992Y100427D01*
X327008D01*
X327904Y100605D01*
X328663Y101112D01*
X329171Y101872D01*
X329349Y102768D01*
Y105760D01*
X329171Y106656D01*
X328663Y107415D01*
X327904Y107923D01*
X327008Y108101D01*
X322992D01*
X322096Y107923D01*
X322010Y107865D01*
X320937Y108937D01*
X320507Y109225D01*
X320000Y109326D01*
X315422D01*
X315408Y109397D01*
X315161Y109767D01*
X314790Y110015D01*
X314353Y110101D01*
X311647D01*
X311210Y110015D01*
X310839Y109767D01*
X310592Y109397D01*
X310568Y109278D01*
X308422D01*
X308408Y109349D01*
X308161Y109720D01*
X307790Y109967D01*
X307353Y110054D01*
X305773D01*
X297890Y117937D01*
X297460Y118225D01*
X296953Y118325D01*
X290104D01*
X289797Y119065D01*
X290887Y120154D01*
X290953Y120141D01*
X292528D01*
X293147Y120264D01*
X293672Y120615D01*
X294023Y121141D01*
X294146Y121760D01*
Y123413D01*
X296407Y125674D01*
X298587D01*
X298592Y125651D01*
X298839Y125280D01*
X299210Y125033D01*
X299647Y124946D01*
X302353D01*
X302790Y125033D01*
X303161Y125280D01*
X303408Y125651D01*
X303413Y125674D01*
X306000D01*
X306507Y125775D01*
X306937Y126063D01*
X307364Y126490D01*
X308000Y126406D01*
X308671Y126495D01*
X309297Y126754D01*
X309834Y127166D01*
X310224Y127674D01*
X348669D01*
X349000Y126874D01*
X345451Y123326D01*
X315224D01*
X314834Y123834D01*
X314297Y124246D01*
X313671Y124505D01*
X313000Y124594D01*
X312329Y124505D01*
X311703Y124246D01*
X311166Y123834D01*
X310754Y123297D01*
X310494Y122671D01*
X310406Y122000D01*
X310494Y121329D01*
X310754Y120703D01*
X311166Y120166D01*
X311703Y119754D01*
X312329Y119494D01*
X313000Y119406D01*
X313671Y119494D01*
X314297Y119754D01*
X314834Y120166D01*
X315224Y120675D01*
X346000D01*
X346507Y120775D01*
X346937Y121063D01*
X355874Y130000D01*
X356675Y129669D01*
D02*
G37*
%LPC*%
G36*
X307353Y104353D02*
X306500D01*
Y102547D01*
X308699D01*
Y103007D01*
X308597Y103522D01*
X308305Y103958D01*
X307868Y104250D01*
X307353Y104353D01*
D02*
G37*
G36*
X334500Y108305D02*
X332992D01*
X332018Y108111D01*
X331193Y107559D01*
X330641Y106734D01*
X330447Y105760D01*
Y104764D01*
X334500D01*
Y108305D01*
D02*
G37*
G36*
X283500Y105921D02*
Y102500D01*
X286921D01*
X286851Y103032D01*
X286453Y103993D01*
X285819Y104819D01*
X284993Y105453D01*
X284032Y105851D01*
X283500Y105921D01*
D02*
G37*
G36*
X305500Y104353D02*
X304647D01*
X304132Y104250D01*
X303695Y103958D01*
X303403Y103522D01*
X303301Y103007D01*
Y102547D01*
X305500D01*
Y104353D01*
D02*
G37*
G36*
X337008Y108305D02*
X335500D01*
Y104764D01*
X339553D01*
Y105760D01*
X339359Y106734D01*
X338807Y107559D01*
X337982Y108111D01*
X337008Y108305D01*
D02*
G37*
G36*
X282500Y101500D02*
X279079D01*
X279149Y100968D01*
X279547Y100007D01*
X280181Y99181D01*
X281007Y98547D01*
X281968Y98149D01*
X282500Y98079D01*
Y101500D01*
D02*
G37*
G36*
X286921D02*
X283500D01*
Y98079D01*
X284032Y98149D01*
X284993Y98547D01*
X285819Y99181D01*
X286453Y100007D01*
X286851Y100968D01*
X286921Y101500D01*
D02*
G37*
G36*
X338547Y96699D02*
X338088D01*
X337573Y96597D01*
X337136Y96305D01*
X336844Y95868D01*
X336742Y95353D01*
Y94500D01*
X338547D01*
Y96699D01*
D02*
G37*
G36*
X340007D02*
X339547D01*
Y94500D01*
X341353D01*
Y95353D01*
X341250Y95868D01*
X340958Y96305D01*
X340522Y96597D01*
X340007Y96699D01*
D02*
G37*
G36*
X305500Y101547D02*
X303301D01*
Y101088D01*
X303403Y100573D01*
X303695Y100136D01*
X304132Y99844D01*
X304647Y99742D01*
X305500D01*
Y101547D01*
D02*
G37*
G36*
X339553Y103764D02*
X335500D01*
Y100223D01*
X337008D01*
X337982Y100417D01*
X338807Y100968D01*
X339359Y101794D01*
X339553Y102768D01*
Y103764D01*
D02*
G37*
G36*
X282500Y105921D02*
X281968Y105851D01*
X281007Y105453D01*
X280181Y104819D01*
X279547Y103993D01*
X279149Y103032D01*
X279079Y102500D01*
X282500D01*
Y105921D01*
D02*
G37*
G36*
X308699Y101547D02*
X306500D01*
Y99742D01*
X307353D01*
X307868Y99844D01*
X308305Y100136D01*
X308597Y100573D01*
X308699Y101088D01*
Y101547D01*
D02*
G37*
G36*
X334500Y103764D02*
X330447D01*
Y102768D01*
X330641Y101794D01*
X331193Y100968D01*
X332018Y100417D01*
X332992Y100223D01*
X334500D01*
Y103764D01*
D02*
G37*
%LPD*%
D10*
X283000Y102000D02*
D03*
X60000Y77000D02*
D03*
X127000Y72000D02*
D03*
X117000Y86000D02*
D03*
D11*
X301000Y132953D02*
D03*
Y127047D02*
D03*
X284000Y152953D02*
D03*
Y147047D02*
D03*
X388000Y75000D02*
D03*
Y80905D02*
D03*
Y67953D02*
D03*
Y62047D02*
D03*
X346000Y75000D02*
D03*
Y80905D02*
D03*
X376000Y139953D02*
D03*
Y134047D02*
D03*
X370000Y139953D02*
D03*
Y134047D02*
D03*
X313000Y108000D02*
D03*
Y102094D02*
D03*
Y133047D02*
D03*
Y138953D02*
D03*
X394000Y80953D02*
D03*
Y75047D02*
D03*
X410000Y67953D02*
D03*
Y62047D02*
D03*
X394000Y62047D02*
D03*
Y67953D02*
D03*
X403000Y67953D02*
D03*
Y62047D02*
D03*
X326000Y67953D02*
D03*
Y62047D02*
D03*
X352000Y80905D02*
D03*
Y75000D02*
D03*
X368000Y67953D02*
D03*
Y62047D02*
D03*
X352000Y62000D02*
D03*
Y67905D02*
D03*
X361000Y67905D02*
D03*
Y62000D02*
D03*
X481000Y50953D02*
D03*
Y45047D02*
D03*
X388000Y126953D02*
D03*
Y121047D02*
D03*
X382000Y126953D02*
D03*
Y121047D02*
D03*
X410000Y134047D02*
D03*
Y139953D02*
D03*
X382000Y134047D02*
D03*
Y139953D02*
D03*
X400000Y134047D02*
D03*
Y139953D02*
D03*
X346000Y62000D02*
D03*
Y67905D02*
D03*
X376000Y126953D02*
D03*
Y121047D02*
D03*
X388000Y139953D02*
D03*
Y134047D02*
D03*
X234000Y81047D02*
D03*
Y86953D02*
D03*
Y70953D02*
D03*
Y65047D02*
D03*
X192000Y64953D02*
D03*
Y59047D02*
D03*
X306000Y107953D02*
D03*
Y102047D02*
D03*
X382000Y75047D02*
D03*
Y80953D02*
D03*
Y67953D02*
D03*
Y62047D02*
D03*
X340000Y75000D02*
D03*
Y80905D02*
D03*
Y67905D02*
D03*
Y62000D02*
D03*
X370000Y121047D02*
D03*
Y126953D02*
D03*
X122000Y144953D02*
D03*
Y139047D02*
D03*
D12*
X275953Y131000D02*
D03*
X270047D02*
D03*
Y123000D02*
D03*
X275953D02*
D03*
X263047Y140000D02*
D03*
X268953D02*
D03*
X141047Y130000D02*
D03*
X146953D02*
D03*
X141047Y122000D02*
D03*
X146953D02*
D03*
Y106000D02*
D03*
X141047D02*
D03*
X141047Y114000D02*
D03*
X146953D02*
D03*
X234047Y57000D02*
D03*
X239953D02*
D03*
X168047Y58000D02*
D03*
X173953D02*
D03*
X155047D02*
D03*
X160953D02*
D03*
X142047D02*
D03*
X147953D02*
D03*
X134953D02*
D03*
X129047D02*
D03*
X121953D02*
D03*
X116047D02*
D03*
X108953D02*
D03*
X103047D02*
D03*
X318000Y74000D02*
D03*
X312094D02*
D03*
X312094Y80000D02*
D03*
X318000D02*
D03*
X312094Y68000D02*
D03*
X318000D02*
D03*
X551047Y47000D02*
D03*
X556953D02*
D03*
X339047Y94000D02*
D03*
X344953D02*
D03*
X301095Y80000D02*
D03*
X307000D02*
D03*
X138953Y98000D02*
D03*
X133047D02*
D03*
X151953D02*
D03*
X146047D02*
D03*
X70047Y67000D02*
D03*
X75953D02*
D03*
X119953Y152000D02*
D03*
X114047D02*
D03*
X210953Y109000D02*
D03*
X205047D02*
D03*
X135953Y149000D02*
D03*
X130047D02*
D03*
X135953Y140000D02*
D03*
X130047D02*
D03*
X61953Y58000D02*
D03*
X56047D02*
D03*
X292047Y140000D02*
D03*
X297953D02*
D03*
D13*
X263118Y130740D02*
D03*
Y123260D02*
D03*
X252882D02*
D03*
Y127000D02*
D03*
Y130740D02*
D03*
X127118Y126000D02*
D03*
X116882Y129740D02*
D03*
Y126000D02*
D03*
Y122260D02*
D03*
X127118Y129740D02*
D03*
Y122260D02*
D03*
D14*
X288000Y133118D02*
D03*
X291740Y122882D02*
D03*
X284260D02*
D03*
X489260Y44882D02*
D03*
X496740D02*
D03*
X493000Y55118D02*
D03*
D15*
X275571Y140000D02*
D03*
X284429D02*
D03*
X493071Y62500D02*
D03*
X501929D02*
D03*
X344571Y150000D02*
D03*
X353429D02*
D03*
D16*
X103417Y99000D02*
D03*
D17*
X80583Y89945D02*
D03*
Y99000D02*
D03*
Y108055D02*
D03*
D18*
X88937Y79000D02*
D03*
X81063D02*
D03*
X565063Y47000D02*
D03*
X572937D02*
D03*
X41063Y58000D02*
D03*
X48937D02*
D03*
X76937D02*
D03*
X69063D02*
D03*
D19*
X60000Y97937D02*
D03*
Y90063D02*
D03*
X117000Y106937D02*
D03*
Y99063D02*
D03*
X70000Y107937D02*
D03*
Y100063D02*
D03*
X127000Y82063D02*
D03*
Y89937D02*
D03*
D20*
X107000Y125906D02*
D03*
Y114094D02*
D03*
D21*
X46000Y104800D02*
D03*
Y91200D02*
D03*
D22*
X239925Y64976D02*
D03*
X242484D02*
D03*
X245043D02*
D03*
X247602D02*
D03*
X250161D02*
D03*
X252720D02*
D03*
X255279D02*
D03*
X257839D02*
D03*
X260398D02*
D03*
X262957D02*
D03*
X265516D02*
D03*
X268075D02*
D03*
X239925Y87024D02*
D03*
X242484D02*
D03*
X245043D02*
D03*
X247602D02*
D03*
X250161D02*
D03*
X252720D02*
D03*
X255279D02*
D03*
X257839D02*
D03*
X260398D02*
D03*
X262957D02*
D03*
X265516D02*
D03*
X268075D02*
D03*
D23*
X325000Y104264D02*
D03*
X335000Y139736D02*
D03*
X345000Y104264D02*
D03*
Y139736D02*
D03*
X335000Y104264D02*
D03*
X325000Y139736D02*
D03*
D24*
X410000Y73571D02*
D03*
Y82429D02*
D03*
X403000D02*
D03*
Y73571D02*
D03*
X326000D02*
D03*
Y82429D02*
D03*
X368000D02*
D03*
Y73571D02*
D03*
X361000Y73524D02*
D03*
Y82382D02*
D03*
X400000Y119571D02*
D03*
Y128429D02*
D03*
X410000D02*
D03*
Y119571D02*
D03*
D25*
X517000Y47913D02*
D03*
Y62087D02*
D03*
D26*
X159465Y137024D02*
D03*
Y133874D02*
D03*
Y130724D02*
D03*
Y127575D02*
D03*
Y124425D02*
D03*
Y121276D02*
D03*
Y118126D02*
D03*
Y114976D02*
D03*
X192535D02*
D03*
Y118126D02*
D03*
Y121276D02*
D03*
Y124425D02*
D03*
Y127575D02*
D03*
Y130724D02*
D03*
Y133874D02*
D03*
Y137024D02*
D03*
D27*
X164976Y109465D02*
D03*
X168126D02*
D03*
X171276D02*
D03*
X174425D02*
D03*
X177575D02*
D03*
X180724D02*
D03*
X183874D02*
D03*
X187024D02*
D03*
Y142535D02*
D03*
X183874D02*
D03*
X180724D02*
D03*
X177575D02*
D03*
X174425D02*
D03*
X171276D02*
D03*
X168126D02*
D03*
X164976D02*
D03*
D28*
X144000Y140000D02*
D03*
Y149000D02*
D03*
D29*
X388000Y140000D02*
X392000D01*
X119953Y151000D02*
X120953Y152000D01*
X199024Y114976D02*
X205024Y108976D01*
X148000Y87000D02*
X149000Y86000D01*
X363571Y77953D02*
X368000Y73524D01*
X164976Y142535D02*
Y148024D01*
X162000Y151000D02*
X164976Y148024D01*
X160000Y151000D02*
X162000D01*
X292000Y105000D02*
X300000D01*
X284000Y113000D02*
X292000Y105000D01*
X218000Y113000D02*
X284000D01*
X286000Y114000D02*
X289000D01*
X285000Y115000D02*
X286000Y114000D01*
X219000Y115000D02*
X285000D01*
X296953Y117000D02*
X306000Y107953D01*
X252000Y117000D02*
X296953D01*
X313000Y122000D02*
X346000D01*
X312953Y107953D02*
X313000Y108000D01*
X306000Y107953D02*
X312953D01*
X323736Y104264D02*
X325000D01*
X320000Y108000D02*
X323736Y104264D01*
X313000Y108000D02*
X320000D01*
X313000Y93000D02*
Y102094D01*
X306000Y131000D02*
X308000Y129000D01*
X306000Y127000D02*
X308000Y129000D01*
X291740Y122882D02*
X295858Y127000D01*
X306000Y131000D02*
Y137000D01*
X227976Y137024D02*
X236000Y129000D01*
Y124000D02*
Y129000D01*
X232000Y120000D02*
X236000Y124000D01*
X192535Y137024D02*
X227976D01*
X287858Y119000D02*
X291740Y122882D01*
X262000Y119000D02*
X287858D01*
X259000Y122000D02*
X262000Y119000D01*
X215000Y154000D02*
X252000Y117000D01*
X258000Y111000D02*
X283000Y86000D01*
X217000Y111000D02*
X258000D01*
X209575Y124425D02*
X219000Y115000D01*
X209724Y121276D02*
X218000Y113000D01*
X209874Y118126D02*
X217000Y111000D01*
X259000Y122000D02*
Y126622D01*
X263118Y130740D01*
X292047Y130669D02*
Y140000D01*
X284260Y122882D02*
X292047Y130669D01*
X303000Y140000D02*
X306000Y137000D01*
X308000Y129000D02*
X349000D01*
X297953Y140000D02*
X303000D01*
X275953Y123000D02*
Y131000D01*
X245000Y130000D02*
X248000Y127000D01*
X252882D01*
X269787Y123260D02*
X270047Y123000D01*
X263118Y123260D02*
X269787D01*
X284142Y123000D02*
X284260Y122882D01*
X275953Y123000D02*
X284142D01*
X363953Y139953D02*
X370000D01*
X346000Y122000D02*
X363953Y139953D01*
X349000Y129000D02*
X370000Y150000D01*
X282453Y133118D02*
X288000D01*
X275571Y140000D02*
X282453Y133118D01*
X263000Y150000D02*
X263047Y149953D01*
Y140000D02*
Y149953D01*
X268953Y140000D02*
X275571D01*
X281047Y150000D02*
X284000Y152953D01*
X273000Y150000D02*
X281047D01*
X171276Y150276D02*
X174000Y153000D01*
X171276Y142535D02*
Y150276D01*
X181000Y154000D02*
X215000D01*
X174425Y147425D02*
X181000Y154000D01*
X174425Y142535D02*
Y147425D01*
X214000Y152000D02*
X220000Y146000D01*
X182000Y152000D02*
X214000D01*
X220000Y142000D02*
Y146000D01*
X209000Y150000D02*
X213000Y146000D01*
X184000Y150000D02*
X209000D01*
X213000Y142000D02*
Y146000D01*
X204000Y148000D02*
X206000Y146000D01*
X185000Y148000D02*
X204000D01*
X206000Y142000D02*
Y146000D01*
X177575Y147575D02*
X182000Y152000D01*
X177575Y142535D02*
Y147575D01*
X180724Y146724D02*
X184000Y150000D01*
X180724Y142535D02*
Y146724D01*
X183874Y146874D02*
X185000Y148000D01*
X183874Y142535D02*
Y146874D01*
X198465Y142535D02*
X199000Y142000D01*
X187024Y142535D02*
X198465D01*
X168126D02*
Y149874D01*
X165000Y153000D02*
X168126Y149874D01*
X225000Y120000D02*
X232000D01*
X216000Y121000D02*
X220000D01*
X209425Y127575D02*
X216000Y121000D01*
X192535Y127575D02*
X209425D01*
X192535Y124425D02*
X209575D01*
X192535Y121276D02*
X209724D01*
X214276Y130724D02*
X219000Y126000D01*
X192535Y130724D02*
X214276D01*
X225000Y126000D02*
X231000D01*
X220000Y121000D02*
X225000Y126000D01*
X219000Y132000D02*
X225000D01*
X217126Y133874D02*
X219000Y132000D01*
X192535Y133874D02*
X217126D01*
X330000Y85000D02*
X334000Y89000D01*
Y83000D02*
X338000D01*
X337953Y82953D02*
X338000Y83000D01*
X496858Y45000D02*
X509000D01*
X496740Y44882D02*
X496858Y45000D01*
X506500Y48500D02*
X510000Y45000D01*
X483453Y48500D02*
X506500D01*
X168000Y131000D02*
Y134000D01*
X167724Y130724D02*
X168000Y131000D01*
X330000Y81000D02*
Y85000D01*
X108000Y125906D02*
X116787D01*
X588000Y53000D02*
X594000Y47000D01*
X579000Y42000D02*
X584000Y47000D01*
X565063Y42937D02*
Y47000D01*
Y42937D02*
X566000Y42000D01*
X579000D01*
X539000Y47000D02*
X551047D01*
X556953D02*
X565063D01*
X410000Y67953D02*
Y73571D01*
X403000Y67953D02*
Y73571D01*
X400000Y150000D02*
X410000Y140000D01*
Y139953D02*
Y140000D01*
X390000Y150000D02*
X400000Y140000D01*
Y139953D02*
Y140000D01*
X376095Y139953D02*
X382000Y134047D01*
X376000Y139953D02*
X376095D01*
X370000D02*
X376000D01*
X370000Y139953D02*
X370000Y139953D01*
X370000Y121047D02*
X376000D01*
X381906Y126953D01*
X382000D01*
X376000D02*
Y134047D01*
X388000Y126953D02*
Y130500D01*
X493000Y62929D02*
X493071Y63000D01*
X531000Y59000D02*
X537000Y53000D01*
X493000Y76000D02*
X514000D01*
X531000Y59000D02*
Y77500D01*
X481165Y44882D02*
X489260D01*
X481000Y45047D02*
X481165Y44882D01*
X370000Y130500D02*
Y134047D01*
Y126953D02*
Y130500D01*
X517000Y60000D02*
Y62087D01*
X307000Y80000D02*
X312094D01*
X301047Y79953D02*
X301095Y80000D01*
X382000Y121047D02*
X388000D01*
X391047D01*
X394000Y124000D01*
X405571D01*
X410000Y128429D01*
Y134047D01*
X400000Y128429D02*
Y134047D01*
X394000Y131000D02*
Y138000D01*
Y131000D02*
X396571Y128429D01*
X400000D01*
X373047Y137000D02*
X376000Y134047D01*
X345000Y139736D02*
X353429Y148165D01*
Y150000D01*
X313953Y138953D02*
X325000Y150000D01*
X313000Y138953D02*
X313953D01*
X313000Y133047D02*
X338311D01*
X345000Y139736D01*
X335000Y150000D02*
X344571D01*
X335000Y139736D02*
Y150000D01*
X481000Y50953D02*
X483453Y48500D01*
X344953Y104217D02*
X345000Y104264D01*
X351264D01*
X247602Y52398D02*
Y61976D01*
Y52398D02*
X253000Y47000D01*
X257839Y59161D02*
Y62976D01*
Y59161D02*
X259473Y57527D01*
X258273Y55727D02*
X314273D01*
X323000Y47000D01*
X255279Y58720D02*
Y62976D01*
Y58720D02*
X258273Y55727D01*
X306073Y53927D02*
X313000Y47000D01*
X252720Y58280D02*
Y62976D01*
Y58280D02*
X257073Y53927D01*
X306073D01*
X250161Y57839D02*
Y62976D01*
X256000Y52000D02*
X298000D01*
X303000Y47000D01*
X259473Y57527D02*
X322473D01*
X333000Y47000D01*
X250161Y57839D02*
X256000Y52000D01*
X233000Y47000D02*
X238000Y52000D01*
X228000Y50953D02*
X234047Y57000D01*
X228000Y44500D02*
Y50953D01*
X343000Y46500D02*
Y47000D01*
X234000Y86953D02*
X239854D01*
X239925Y87024D01*
X242484D01*
X301047Y74000D02*
X312094D01*
X301047D02*
Y79953D01*
X234000Y70953D02*
Y76000D01*
Y81047D01*
Y65047D02*
X239854D01*
X239925Y64976D01*
X238000Y52000D02*
X242000D01*
X245043Y55043D01*
Y61976D01*
X234000Y62953D02*
X239925Y57028D01*
X234000Y76000D02*
X237500D01*
X242484Y71016D01*
Y64976D02*
Y71016D01*
X268098Y65000D02*
X272500D01*
X268075Y64976D02*
X268098Y65000D01*
X265516Y64976D02*
X268075D01*
X268098Y87000D02*
X272500D01*
X268075Y87024D02*
X268098Y87000D01*
X265516Y87024D02*
X268075D01*
X262957D02*
X265516D01*
X493071Y55189D02*
Y62500D01*
X493000Y55118D02*
X493071Y55189D01*
X493000Y76000D02*
X493071Y75929D01*
Y62500D02*
Y63000D01*
Y75929D01*
X501929Y62500D02*
X516587D01*
X517000Y62087D01*
X516087Y63000D02*
X516587Y62500D01*
X523913Y62087D02*
X539000Y47000D01*
X517000Y62087D02*
X523913D01*
X399618Y73571D02*
X403000D01*
X394000Y67953D02*
X399618Y73571D01*
X388000Y62047D02*
X394000D01*
X382000D02*
X388000D01*
X405571Y78000D02*
X410000Y73571D01*
X396953Y78000D02*
X405571D01*
X394000Y75047D02*
X396953Y78000D01*
X388047Y80953D02*
X394000D01*
X388000Y80905D02*
X388047Y80953D01*
X382047Y80905D02*
X388000D01*
X382000Y80953D02*
X382047Y80905D01*
X361000Y67905D02*
Y73524D01*
X340000Y62000D02*
X346000D01*
X352000D01*
Y75000D02*
X354953Y77953D01*
X363571D01*
X357618Y73524D02*
X361000D01*
X352000Y67905D02*
X357618Y73524D01*
X346000Y80905D02*
X352000D01*
X340000D02*
X346000D01*
X318000Y68000D02*
Y74000D01*
X318000Y74000D01*
X318000Y74000D02*
X318000Y74000D01*
X318000Y74000D02*
Y80000D01*
X394000Y62047D02*
X394953D01*
X388000Y67953D02*
Y75000D01*
X340000Y62000D02*
X340000Y62000D01*
X416000Y54000D02*
X423000Y47000D01*
X434000Y56000D02*
X443000Y47000D01*
X376000Y54000D02*
X383000Y47000D01*
X394000Y56000D02*
X403000Y47000D01*
X346000Y67905D02*
X348905Y65000D01*
X385047D01*
X388000Y67953D01*
X338000Y60000D02*
X340000Y62000D01*
X334000Y60000D02*
X338000D01*
X379953D02*
X382000Y62047D01*
X376000Y60000D02*
X379953D01*
X312094Y67905D02*
Y68000D01*
X343094Y65000D02*
X346000Y67905D01*
Y75000D01*
X326000Y82429D02*
Y86000D01*
Y67953D02*
Y73571D01*
X323571D02*
X326000D01*
X318000Y68000D02*
X323571Y73571D01*
X356000Y54000D02*
X363000Y47000D01*
X312094Y68000D02*
X315094Y65000D01*
X368000Y62000D02*
X374000Y56000D01*
X394000D01*
X361000Y62000D02*
X369000Y54000D01*
X376000D01*
X410000Y62047D02*
X416047Y56000D01*
X434000D01*
X403000Y62047D02*
X411047Y54000D01*
X416000D01*
X340000Y67905D02*
Y71500D01*
Y75000D01*
X382000Y71500D02*
Y75047D01*
Y67953D02*
Y71500D01*
X326000Y62047D02*
X334047Y54000D01*
X356000D01*
X364047Y121047D02*
X370000D01*
X364000Y121000D02*
X364047Y121047D01*
X351264Y104264D02*
X358000Y111000D01*
Y130000D01*
X365000Y137000D01*
X373047D01*
X368000Y67905D02*
Y67953D01*
Y73524D01*
X315094Y65000D02*
X343094D01*
X339906Y81000D02*
X340000Y80905D01*
X333000Y78000D02*
X343000D01*
X346000Y75000D01*
X330000Y81000D02*
X333000Y78000D01*
X376000Y83000D02*
X379953D01*
X382000Y80953D01*
X337953Y82953D02*
X339906Y81000D01*
X480953Y51000D02*
X481000Y50953D01*
X572937Y47000D02*
Y50937D01*
X575000Y53000D01*
X588000D01*
X537000D02*
X571000D01*
X572937Y51063D01*
Y50937D02*
Y51063D01*
X514000Y76000D02*
X519000Y81000D01*
X527500D01*
X531000Y77500D01*
X78921Y130602D02*
X79783Y129740D01*
X116882D01*
X78921Y122728D02*
X79390Y122260D01*
X116882D01*
X213000Y79000D02*
X223000Y69000D01*
Y47000D02*
Y69000D01*
X212953Y59047D02*
X213000Y59000D01*
X159465Y111465D02*
Y114976D01*
X157000Y109000D02*
X159465Y111465D01*
X153000Y109000D02*
X157000D01*
X48937Y58000D02*
X56047D01*
Y50047D02*
Y58000D01*
X53000Y47000D02*
X56047Y50047D01*
X41063Y48937D02*
Y58000D01*
Y48937D02*
X43000Y47000D01*
X76937Y50937D02*
Y58000D01*
X73000Y47000D02*
X76937Y50937D01*
X69063Y53063D02*
Y58000D01*
X63000Y47000D02*
X69063Y53063D01*
X164976Y104976D02*
Y109465D01*
X98000Y58000D02*
X103047D01*
X93000Y53000D02*
X98000Y58000D01*
X93000Y47000D02*
Y53000D01*
X113000Y54953D02*
X116047Y58000D01*
X113000Y47000D02*
Y54953D01*
X129047Y50953D02*
Y58000D01*
Y50953D02*
X133000Y47000D01*
X147953Y52047D02*
Y58000D01*
Y52047D02*
X153000Y47000D01*
X160953Y54047D02*
Y58000D01*
Y54047D02*
X163000Y52000D01*
X168000D01*
X173000Y47000D01*
X173953Y58000D02*
X182000D01*
X193000Y47000D01*
X183874Y103126D02*
Y109465D01*
X180724Y102276D02*
Y109465D01*
X177575Y101425D02*
Y109465D01*
X174425Y100575D02*
Y109465D01*
X171276Y99724D02*
Y109465D01*
X187024Y103976D02*
Y109465D01*
X234000Y81047D02*
X243047D01*
X245043Y83043D01*
Y87024D01*
X234000Y62953D02*
Y65047D01*
X108953Y58000D02*
Y63953D01*
X121953Y58000D02*
Y63953D01*
X134953Y58000D02*
Y63953D01*
X144000Y64000D02*
X148000D01*
X142047Y62047D02*
X144000Y64000D01*
X142047Y58000D02*
Y62047D01*
X157000Y64000D02*
X161000D01*
X155047Y62047D02*
X157000Y64000D01*
X155047Y58000D02*
Y62047D01*
X170000Y64000D02*
X174000D01*
X168047Y62047D02*
X170000Y64000D01*
X168047Y58000D02*
Y62047D01*
X474047Y45047D02*
X481000D01*
X474000Y45000D02*
X474047Y45047D01*
X301000Y86000D02*
X307000Y80000D01*
X228000Y44500D02*
X230500Y42000D01*
X338500D01*
X343000Y46500D01*
X171276Y99724D02*
X181000Y90000D01*
X174425Y100575D02*
X183000Y92000D01*
X177575Y101425D02*
X185000Y94000D01*
X180724Y102276D02*
X187000Y96000D01*
X183874Y103126D02*
X189000Y98000D01*
X187024Y103976D02*
X191000Y100000D01*
X247602Y87024D02*
Y93398D01*
X250161Y87024D02*
Y93839D01*
X218000Y90000D02*
X224000Y96000D01*
X245000D01*
X247602Y93398D01*
X217000Y92000D02*
X223000Y98000D01*
X246000D01*
X250161Y93839D01*
X216000Y94000D02*
X222000Y100000D01*
X247000D01*
X252720Y94279D01*
Y87024D02*
Y94279D01*
X215000Y96000D02*
X221000Y102000D01*
X248000D01*
X255279Y94721D01*
Y87024D02*
Y94721D01*
X257839Y87024D02*
Y95161D01*
X260398Y87024D02*
Y95602D01*
X214000Y98000D02*
X220000Y104000D01*
X249000D01*
X257839Y95161D01*
X213000Y100000D02*
X219000Y106000D01*
X250000D01*
X260398Y95602D01*
X138953Y98000D02*
X146047D01*
X135953Y140000D02*
X144000D01*
X135953Y149000D02*
X144000D01*
X149000Y144000D01*
Y140000D02*
Y144000D01*
Y140000D02*
X151976Y137024D01*
X159465D01*
X388000Y130500D02*
Y134047D01*
Y134095D01*
X382000Y139953D02*
X388000D01*
X382000Y139953D02*
X382000Y139953D01*
X392000Y140000D02*
X394000Y138000D01*
X144000Y140000D02*
X150126Y133874D01*
X159465D01*
X126047Y149000D02*
X130047D01*
X122000Y144953D02*
X126047Y149000D01*
X122000Y144953D02*
X126953Y140000D01*
X130047D01*
X113000Y145000D02*
X121953D01*
X122000Y144953D01*
X187000Y96000D02*
X215000D01*
X185000Y94000D02*
X216000D01*
X181000Y90000D02*
X218000D01*
X183000Y92000D02*
X217000D01*
X191000Y100000D02*
X213000D01*
X189000Y98000D02*
X214000D01*
X192535Y118126D02*
X209874D01*
X39000Y149000D02*
X44000Y154000D01*
X108000D01*
X110000Y152000D01*
X113047D01*
X120953D02*
X132953D01*
X135953Y149000D01*
X113000Y139000D02*
X121953D01*
X122000Y139047D01*
X133047Y90953D02*
Y98000D01*
X127000Y72000D02*
Y82063D01*
Y89937D02*
Y105000D01*
X146047Y94953D02*
Y98000D01*
X168126Y86126D02*
Y109465D01*
X168000Y86000D02*
X168126Y86126D01*
X148000Y87000D02*
Y93000D01*
X146047Y94953D02*
X148000Y93000D01*
X127000Y105000D02*
X131000Y109000D01*
X151953Y98000D02*
X155000D01*
X158000Y95000D01*
Y86000D02*
Y95000D01*
X133047Y90953D02*
X138000Y86000D01*
X127118Y126000D02*
X134000D01*
X228047Y65047D02*
X234000D01*
X228000Y65000D02*
X228047Y65047D01*
X70000Y67047D02*
Y84000D01*
Y67047D02*
X70047Y67000D01*
X65000D02*
X70047D01*
X61953Y63953D02*
X65000Y67000D01*
X61953Y58000D02*
Y63953D01*
X75953Y58984D02*
Y67000D01*
Y58984D02*
X76937Y58000D01*
X283000Y86000D02*
X301000D01*
X344953Y94953D02*
X345000Y95000D01*
X334000Y103264D02*
X335000Y104264D01*
X334000Y105264D02*
X335000Y104264D01*
X210953Y109000D02*
X257000D01*
X192535Y114976D02*
X199024D01*
X146047Y98000D02*
X149047Y101000D01*
X161000D01*
X164976Y104976D01*
X133047Y99000D02*
Y104047D01*
X135000Y106000D01*
X141047D01*
X257000Y109000D02*
X303000Y63000D01*
X223953Y86953D02*
X234000D01*
X39000Y113000D02*
Y149000D01*
X295858Y127000D02*
X306000D01*
X35000Y88000D02*
Y109000D01*
X39000Y113000D01*
X35000Y88000D02*
X41063Y81937D01*
Y58000D02*
Y81937D01*
X113047Y152000D02*
X114047Y151000D01*
D30*
X416000Y65000D02*
X422000Y59000D01*
X416000Y65000D02*
Y99000D01*
X422000Y59000D02*
X426000D01*
X480000D01*
X330000Y93000D02*
X334000Y89000D01*
X239925Y57028D02*
X239953Y57000D01*
X517000Y62087D02*
Y70000D01*
X523000Y76000D01*
X192000Y59047D02*
X212953D01*
X213000Y47000D02*
Y59000D01*
X60000Y105000D02*
X65063D01*
X70000Y100063D01*
X103417Y99000D02*
X116937D01*
X60000Y90063D02*
X80465D01*
X81063Y79000D02*
Y89465D01*
X80465Y90063D02*
X80583Y89945D01*
X81063Y89465D01*
Y73937D02*
Y79000D01*
X174000Y72000D02*
X186953Y59047D01*
X192000D01*
X80583Y99000D02*
X103417D01*
X117000Y86000D02*
Y99063D01*
X81063Y73937D02*
X83000Y72000D01*
X412000Y103000D02*
X416000Y99000D01*
X480000Y59000D02*
X488000Y51000D01*
X508000D01*
X517000Y60000D01*
X83000Y72000D02*
X127000D01*
X174000D01*
X117000Y86000D02*
X138000D01*
X145000Y79000D01*
X282000Y93000D02*
X313000D01*
X330000D01*
X181953Y86953D02*
X223953D01*
X145000Y79000D02*
X174000D01*
X181953Y86953D01*
X75000Y99000D02*
X80583D01*
X73937Y100063D02*
X75000Y99000D01*
X70000Y100063D02*
X73937D01*
X46137Y90063D02*
X60000D01*
X46000Y90200D02*
X46137Y90063D01*
X45000Y90200D02*
X46000D01*
X510000Y45000D02*
X524000D01*
D31*
X334000Y89000D02*
X343000D01*
X159465Y130724D02*
X167724D01*
X344953Y94953D02*
Y104217D01*
X146953Y114000D02*
X151000D01*
X155126Y118126D01*
X159465D01*
Y121276D01*
X146953Y112906D02*
Y114000D01*
X144000Y111047D02*
X146953Y114000D01*
X108953Y63953D02*
X109000Y64000D01*
X121953Y63953D02*
X122000Y64000D01*
X134953Y63953D02*
X135000Y64000D01*
X141047Y106000D02*
X144000Y108953D01*
Y111047D01*
X343000Y89000D02*
X344953Y90953D01*
Y94000D01*
Y94953D01*
D32*
X151000Y130000D02*
X153425Y127575D01*
X146953Y130000D02*
X151000D01*
X140287Y129740D02*
X140547Y130000D01*
X127118Y129740D02*
X140287D01*
X146953Y122000D02*
X151000D01*
X153425Y124425D01*
X146453Y130000D02*
X146953D01*
X146453Y122000D02*
X146953D01*
X153425Y127575D02*
X159465D01*
X153425Y124425D02*
X159465D01*
X116787Y125906D02*
X116882Y126000D01*
X127378Y122000D02*
X141047D01*
X127118Y122260D02*
X127378Y122000D01*
D33*
X53728Y122728D02*
X69079D01*
X45000Y103800D02*
X46000Y104800D01*
Y115000D01*
X53728Y122728D01*
D34*
X116937Y99000D02*
X117000Y99063D01*
D35*
X176000Y126000D02*
D03*
D36*
X69079Y122728D02*
D03*
D37*
Y130602D02*
D03*
X78921D02*
D03*
Y122728D02*
D03*
D38*
X97701Y141272D02*
D03*
X50299D02*
D03*
D39*
X148000Y86000D02*
D03*
X158000D02*
D03*
X168000D02*
D03*
X325000Y150000D02*
D03*
X315000D02*
D03*
X305000D02*
D03*
X335000D02*
D03*
X263000D02*
D03*
X253000D02*
D03*
X243000D02*
D03*
X273000D02*
D03*
X73000Y47000D02*
D03*
X273000D02*
D03*
X263000D02*
D03*
X243000D02*
D03*
X213000D02*
D03*
X223000D02*
D03*
X233000D02*
D03*
X253000D02*
D03*
X283000D02*
D03*
X293000D02*
D03*
X303000D02*
D03*
X313000D02*
D03*
X323000D02*
D03*
X333000D02*
D03*
X343000D02*
D03*
X353000D02*
D03*
X193000D02*
D03*
X173000D02*
D03*
X153000D02*
D03*
X133000D02*
D03*
X113000D02*
D03*
X93000D02*
D03*
X453000D02*
D03*
X433000D02*
D03*
X373000D02*
D03*
X413000D02*
D03*
X393000D02*
D03*
X594000D02*
D03*
X400000Y150000D02*
D03*
X390000D02*
D03*
X380000D02*
D03*
X410000D02*
D03*
X53000Y47000D02*
D03*
D40*
X138000Y86000D02*
D03*
X295000Y150000D02*
D03*
X233000D02*
D03*
X63000Y47000D02*
D03*
X203000D02*
D03*
X183000D02*
D03*
X163000D02*
D03*
X143000D02*
D03*
X123000D02*
D03*
X103000D02*
D03*
X83000D02*
D03*
X443000D02*
D03*
X423000D02*
D03*
X363000D02*
D03*
X403000D02*
D03*
X383000D02*
D03*
X584000D02*
D03*
X370000Y150000D02*
D03*
X43000Y47000D02*
D03*
D41*
X370079Y98425D02*
D03*
X622047D02*
D03*
X15748D02*
D03*
D42*
X361811D02*
D03*
X364279Y104225D02*
D03*
X370079Y106693D02*
D03*
X375879Y104225D02*
D03*
X378346Y98425D02*
D03*
X375979Y92525D02*
D03*
X370079Y90158D02*
D03*
X364179Y92625D02*
D03*
X613779Y98425D02*
D03*
X616247Y104225D02*
D03*
X622047Y106693D02*
D03*
X627847Y104225D02*
D03*
X630315Y98425D02*
D03*
X627947Y92525D02*
D03*
X622047Y90158D02*
D03*
X616147Y92625D02*
D03*
X7480Y98425D02*
D03*
X9948Y104225D02*
D03*
X15748Y106693D02*
D03*
X21548Y104225D02*
D03*
X24016Y98425D02*
D03*
X21648Y92525D02*
D03*
X15748Y90158D02*
D03*
X9848Y92625D02*
D03*
D43*
X523000Y76000D02*
D03*
D44*
Y106000D02*
D03*
Y126000D02*
D03*
Y146000D02*
D03*
X493000D02*
D03*
Y126000D02*
D03*
Y106000D02*
D03*
Y76000D02*
D03*
X203000Y69000D02*
D03*
X213000Y79000D02*
D03*
X565000Y69772D02*
D03*
X450000D02*
D03*
D45*
X213000Y59000D02*
D03*
D46*
X542559Y138000D02*
D03*
X427559D02*
D03*
D47*
X542559Y88000D02*
D03*
Y113000D02*
D03*
X587441Y138000D02*
D03*
Y88000D02*
D03*
Y113000D02*
D03*
X472441D02*
D03*
Y88000D02*
D03*
Y138000D02*
D03*
X427559Y113000D02*
D03*
Y88000D02*
D03*
D48*
X422000Y59000D02*
D03*
X426000D02*
D03*
X548000Y70000D02*
D03*
X582000D02*
D03*
X467000D02*
D03*
X433000D02*
D03*
X160000Y151000D02*
D03*
X198000Y107000D02*
D03*
X304000Y117000D02*
D03*
X308000Y129000D02*
D03*
X313000Y93000D02*
D03*
X300000Y105000D02*
D03*
X289000Y114000D02*
D03*
X313000Y122000D02*
D03*
X295000Y110000D02*
D03*
X267000Y127000D02*
D03*
X258000Y136000D02*
D03*
X288000Y143000D02*
D03*
X273000Y105000D02*
D03*
X245000Y130000D02*
D03*
X335000Y111000D02*
D03*
X174000Y153000D02*
D03*
X165000D02*
D03*
X334000Y89000D02*
D03*
Y83000D02*
D03*
X206000Y142000D02*
D03*
X524000Y45000D02*
D03*
X510000D02*
D03*
X153000Y109000D02*
D03*
X168000Y126000D02*
D03*
X184000D02*
D03*
X176000D02*
D03*
X168000Y118000D02*
D03*
X184000D02*
D03*
X176000D02*
D03*
Y134000D02*
D03*
X184000D02*
D03*
X168000D02*
D03*
X117000Y114000D02*
D03*
X388000Y130500D02*
D03*
X370000D02*
D03*
X326000Y86000D02*
D03*
X301047Y74000D02*
D03*
X234000Y76000D02*
D03*
X272500Y87000D02*
D03*
Y65000D02*
D03*
X376000Y60000D02*
D03*
X334000D02*
D03*
X340000Y71500D02*
D03*
X382000D02*
D03*
X364000Y121000D02*
D03*
X376000Y83000D02*
D03*
X134000Y126000D02*
D03*
X92000Y90000D02*
D03*
Y108000D02*
D03*
X60000Y105000D02*
D03*
Y112000D02*
D03*
X70000Y84000D02*
D03*
X109000Y64000D02*
D03*
X122000D02*
D03*
X135000D02*
D03*
X148000D02*
D03*
X161000D02*
D03*
X174000D02*
D03*
X220000Y142000D02*
D03*
X213000D02*
D03*
X199000D02*
D03*
X474000Y45000D02*
D03*
X113000Y145000D02*
D03*
X412000Y103000D02*
D03*
X113000Y139000D02*
D03*
X224000Y87000D02*
D03*
X131000Y109000D02*
D03*
X225000Y132000D02*
D03*
X231000Y126000D02*
D03*
X219000D02*
D03*
X225000Y120000D02*
D03*
X228000Y65000D02*
D03*
X282000Y93000D02*
D03*
X335000Y98000D02*
D03*
X155000Y142000D02*
D03*
X148000Y154000D02*
D03*
X53000Y76000D02*
D03*
X303000Y63000D02*
D03*
X296000Y133000D02*
D03*
X400000Y115000D02*
D03*
X410000D02*
D03*
X403000Y87000D02*
D03*
X410000D02*
D03*
D49*
X144000Y102000D02*
D03*
M02*
