M48
;Layer_Color=9474304
;FILE_FORMAT=2:4
INCH,LZ
;TYPE=PLATED
T1F00S00C0.0197
T2F00S00C0.0300
T3F00S00C0.0362
T4F00S00C0.0400
T5F00S00C0.0610
T6F00S00C0.0906
T7F00S00C0.1181
;TYPE=NON_PLATED
T8F00S00C0.0827
%
T01
X000985Y009263
X000748Y009843
X000995Y010423
X001575Y010669
X002155Y010423
X002402Y009843
X002165Y009253
X001575Y009016
X0053Y0076
X007Y0084
X0092Y009
Y0108
X0117Y0114
X0131Y0109
X0134Y0126
X0113Y0139
Y0145
X0148Y0154
X0155Y0142
X0153Y0109
X0144Y0102
X0148Y0064
X0135
X0122
X0109
X006Y0105
Y0112
X0168Y0118
Y0126
X0176
X0184
Y0118
X0176
Y0134
X0184
X0168
X0165Y0153
X016Y0151
X0174Y0153
X0199Y0142
X0206
X0213
X022
X0225Y0132
X0231Y0126
X0219
X0225Y012
X0245Y013
X0258Y0136
X0267Y0127
X0273Y0105
X02725Y0087
X0282Y0093
X0289Y0114
X0295Y011
X03Y0105
X0304Y0117
X0308Y0129
X0296Y0133
X0288Y0143
X030105Y0074
X0303Y0063
X02725Y0065
X0228
X0234Y0076
X0224Y0087
X0198Y0107
X0174Y0064
X0161
X0334Y006
X034Y00715
X0334Y0083
Y0089
X0335Y0098
Y0111
X0313Y0122
Y0093
X0326Y0086
X036418Y009263
X036181Y009843
X036428Y010423
X037008Y010669
X037588Y010423
X037835Y009843
X037598Y009253
X037008Y009016
X0376Y0083
X0382Y00715
X0376Y006
X0422Y0059
X0426
X0433Y007
X0467
X041Y0087
X0403
X0412Y0103
X041Y0115
X04
X0388Y01305
X037
X0364Y0121
X0474Y0045
X051
X0524
X0548Y007
X0582
X061615Y009263
X061378Y009843
X061625Y010423
X062205Y010669
Y009016
X062795Y009253
X063032Y009843
X062785Y010423
T02
X0203Y0069
X0213Y0059
Y0079
T03
X006908Y012273
Y01306
X007892
Y012273
T04
X0043Y0047
X0053
X0063
X0073
X0083
X0093
X0103
X0113
X0123
X0133
X0143
X0153
X0148Y0086
X0138
X0158
X0168
X0163Y0047
X0173
X0183
X0193
X0203
X0213
X0223
X0233
X0243
X0253
X0263
X0273
X0283
X0293
X0303
X0305Y015
X0295
X0273
X0263
X0253
X0243
X0233
X0315
X0325
X0335
X037
X038
X039
X04
X041
X0413Y0047
X0423
X0433
X0443
X0453
X0403
X0393
X0383
X0373
X0363
X0353
X0343
X0333
X0323
X0313
X0493Y0076
X0523
Y0106
Y0126
Y0146
X0493
Y0126
Y0106
X0584Y0047
X0594
T05
X042756Y0088
Y0113
Y0138
X047244
Y0113
Y0088
X054256
Y0113
Y0138
X058744
Y0113
Y0088
T06
X00503Y014127
X00977
T07
X001575Y009843
X037008
X062205
T08
X045Y006977
X0565
M30
